<?xml version="1.0" encoding="utf-8"?>
<!-- Generator: Adobe Illustrator 16.0.0, SVG Export Plug-In . SVG Version: 6.00 Build 0)  -->
<!DOCTYPE svg PUBLIC "-//W3C//DTD SVG 1.1//EN" "http://www.w3.org/Graphics/SVG/1.1/DTD/svg11.dtd">
<svg version="1.1" id="Layer_1" xmlns="http://www.w3.org/2000/svg" xmlns:xlink="http://www.w3.org/1999/xlink" x="0px" y="0px"
	 width="219px" height="144px" viewBox="0 0 219 144" enable-background="new 0 0 219 144" xml:space="preserve">
<g>
	<g>
		<path fill="#2BA6DF" d="M20.984,35.246h49.468c3.34,0.394,6.483,2.344,8.227,5.239c0.878,1.479,1.509,3.154,1.556,4.887
			c-0.01,12.253,0,24.506,0,36.754c-2.521-0.469-4.968-1.236-7.418-1.979c-5.192-1.56-10.25-3.532-15.35-5.357
			c2.61-4.56,4.541-9.502,5.765-14.602c-4.54,0.026-9.079,0.01-13.617,0.01c0.01-1.629-0.017-3.263,0.01-4.902
			c5.56,0.026,11.117,0,16.677,0.016c-0.021-0.924,0.027-1.852-0.035-2.775c-5.55,0.067-11.106,0-16.652,0.031
			c0.01-2.724-0.017-5.442,0.01-8.171c-2.307,0.015-4.611-0.031-6.914,0.026c-0.638-0.058-1.11,0.571-1.106,1.162
			c-0.026,2.329-0.004,4.659-0.004,6.982c-5.613-0.01-11.226,0.005-16.829-0.01c-0.016,0.917-0.009,1.831-0.009,2.754
			c5.612-0.016,11.224,0.005,16.832-0.016c0.005,1.645-0.004,3.273,0.005,4.902c-4.648,0.016-9.296-0.032-13.945,0.026
			c0.042,0.907,0.032,1.815,0.021,2.719c9.009-0.006,18.022,0.016,27.033-0.006c-0.96,3.201-2.194,6.334-3.782,9.285
			c-0.094,0.203-0.243,0.25-0.447,0.135c-5.923-1.908-11.962-3.704-18.197-4.098c-3.58-0.26-7.253,0.497-10.334,2.371
			c-2.882,1.738-4.846,4.813-5.456,8.097c-0.644,3.32,0.343,6.894,2.561,9.431c2.344,2.749,5.883,4.237,9.415,4.658
			c4.718,0.605,9.54-0.467,13.728-2.639c3.957-2.039,7.413-4.966,10.287-8.343c0.269-0.274,0.465-0.675,0.824-0.831
			c8.865,4.162,17.892,7.979,26.927,11.786c0.224,2.74-0.736,5.511-2.51,7.602c-1.754,2.125-4.316,3.51-7.044,3.884H20.747
			c-3.036-0.445-5.899-2.13-7.615-4.693c-1.081-1.488-1.675-3.284-1.93-5.09V45.028c0.305-2.188,1.182-4.315,2.634-5.986
			C15.631,36.926,18.247,35.608,20.984,35.246z"/>
		<path fill="#2BA6DF" d="M23.122,74.088c3.507-1.628,7.532-1.712,11.276-0.98c4.524,0.902,8.747,2.869,12.865,4.882
			c-3.107,3.921-6.93,7.476-11.671,9.27c-3.393,1.329-7.221,1.457-10.697,0.373c-2.034-0.654-3.962-1.871-5.126-3.702
			c-0.959-1.469-1.286-3.333-0.845-5.031C19.49,76.766,21.121,74.975,23.122,74.088z"/>
	</g>
	<g>
		<path fill="#3F3A39" d="M106.504,41.439c0.015-0.617,0.508-1.224,1.151-1.245c2.133-0.057,4.271,0.021,6.406-0.037
			c0.067,1.842,0.021,3.683,0.026,5.52c4.73,0.005,9.456,0.005,14.188,0c0,0.908-0.005,1.815,0.005,2.719
			c-4.726-0.006-9.456,0-14.188,0c-0.004,1.452,0.006,2.895-0.004,4.342c4.077,0,8.154,0,12.231,0
			c-1.677,6.598-6.225,12.112-11.64,16.091c4.407,2.677,9.108,4.865,13.975,6.577c0.071,1.033,0,2.059,0.056,3.096
			c-3.127-0.597-6.167-1.627-9.155-2.744c-3.092-1.177-6.11-2.588-8.983-4.247c-5.716,3.266-11.941,5.627-18.374,7.026
			c0-1.092,0-2.177,0-3.262c5.01-1.492,9.855-3.547,14.306-6.322c-3.969-2.972-7.658-6.474-10.132-10.821
			c2.133,0.031,4.254-0.006,6.385,0.015c1.998,3.113,4.834,5.566,7.709,7.839c3.361-2.817,6.36-6.313,7.823-10.515
			c-7.886,0.01-15.77,0-23.655,0.01c-0.01-0.913-0.005-1.826-0.005-2.744c3.959,0,7.917,0,11.875,0.004
			c-0.01-1.452-0.01-2.905-0.006-4.352c-4.684,0.011-9.378,0-14.068,0.006c0.007-0.904-0.02-1.816,0.017-2.729
			c4.685,0.037,9.368,0,14.052,0.016C106.504,44.277,106.473,42.86,106.504,41.439z"/>
		<path fill="#3F3A39" d="M186.308,40.08c2.483,0,4.968,0,7.458,0c-0.011,1.209,0,2.417-0.011,3.637
			c3.808,0.021,7.615-0.005,11.423,0.011c1.038-0.073,1.972,0.855,1.946,1.882c0.036,1.562,0,3.123,0.014,4.689
			c-2.374,0.016-4.75-0.01-7.127,0.016c-0.02-1.308-0.01-2.61,0.007-3.917c-6.635-0.047-13.259,0.037-19.89-0.031
			c-0.066,1.307-0.016,2.62-0.025,3.932c-2.386,0.011-4.762,0-7.139,0.011c0-2.199,0-4.399,0-6.588
			c4.451,0.011,8.893,0,13.344,0.006C186.317,42.513,186.312,41.298,186.308,40.08z"/>
		<path fill="#3F3A39" d="M136.933,40.402c2.276,0,4.556,0.021,6.826-0.011c-1.504,3.512-3.045,7.008-4.621,10.494
			c0.752,0.01,1.499,0.01,2.246,0.01c-0.027,9.021,0,18.037-0.011,27.054c-2.043,0.01-4.087-0.018-6.12,0.014
			c-0.052-6.799-0.011-13.595-0.021-20.401c-1.868,0.005-3.735,0.005-5.598,0.005C132.057,51.84,134.506,46.129,136.933,40.402z"/>
		<path fill="#3F3A39" d="M159.628,40.733c2.143,0,4.279,0,6.427,0c0.011,2.194-0.062,4.41,0.036,6.599
			c0.835-0.036,1.67-0.016,2.506-0.025c-0.005,0.887-0.005,1.784,0,2.671c-0.85,0-1.701,0-2.552,0c0,8.29,0,16.579,0,24.869
			c0.052,1.363-1.11,2.665-2.5,2.607c-2.719,0.011-5.437,0-8.155,0c0-0.907,0.021-1.825-0.011-2.733
			c1.1-0.072,2.211,0.021,3.31-0.045c0.602-0.021,1.039-0.643,0.944-1.221c0.01-7.833,0-15.655,0.01-23.478
			c-5.228,0-10.446,0-15.671,0c0.005-0.897-0.026-1.794,0.025-2.692c5.209,0.057,10.428,0,15.646,0.031
			C159.633,45.117,159.643,42.922,159.628,40.733z"/>
		<path fill="#3F3A39" d="M172.964,52.738c11.387,0,22.772,0,34.165,0c-0.005,0.881-0.005,1.763-0.005,2.645
			c-4.549-0.016-9.104,0.031-13.654-0.026c-0.057,1.744-0.016,3.502-0.025,5.25c4.555-0.01,9.108,0.016,13.663-0.01
			c0.021,0.908,0.017,1.806,0.01,2.713c-4.553-0.015-9.118,0-13.673-0.015c0,3.719,0,7.433,0,11.142c2.313-0.01,4.627-0.01,6.94,0
			c-0.575-1.93-1.173-3.849-1.711-5.784c1.939,0.036,3.885-0.01,5.83,0.011c0.513-0.021,1.043,0.279,1.182,0.798
			c0.79,2.47,1.464,4.974,2.252,7.439v0.207c-11.656,0-23.313,0-34.974,0.005c0-0.892,0-1.795,0-2.691
			c4.555,0.02,9.11,0,13.665,0.005c0-3.699-0.006-7.413,0-11.132c-4.555,0.015-9.11,0-13.665,0.015c0-0.897,0-1.805,0-2.708
			c4.555,0.016,9.11,0.005,13.665,0.005c0.005-1.738-0.021-3.471,0.01-5.203c-4.555-0.047-9.12-0.015-13.675-0.015
			C172.964,54.501,172.964,53.619,172.964,52.738z"/>
		<path fill="#3F3A39" d="M146.012,53.656c1.783,0,3.568,0,5.342,0c0.572-0.011,1.132,0.384,1.297,0.929
			c1.267,3.994,2.542,7.983,3.797,11.977c-2.096-0.005-4.185-0.005-6.274,0.005C148.766,62.271,147.427,57.951,146.012,53.656z"/>
		<g>
			<path fill="#3F3A39" d="M102.147,83.499c0.757-0.016,1.52-0.012,2.282-0.021c1.972,5.237,3.901,10.488,5.857,15.738
				c-1.011-0.021-2.029,0.045-3.035-0.042c-0.292-1.063-0.663-2.101-1.032-3.138c-1.924,0.015-3.844,0.015-5.764,0.004
				c-0.394,1.049-0.737,2.116-1.125,3.176c-1.002-0.004-1.997-0.004-2.993,0C98.297,93.993,100.227,88.742,102.147,83.499z
				 M103.329,87.663c-0.664,2.152-1.515,4.251-2.168,6.407c1.463-0.031,2.937-0.021,4.399-0.009
				c-0.612-1.899-1.275-3.777-1.899-5.678C103.589,88.121,103.479,87.882,103.329,87.663z"/>
		</g>
		<path fill="#3F3A39" d="M119.592,83.487c0.955-0.004,1.914,0.005,2.868-0.009c0.021,4.519,0.041,9.042-0.01,13.564
			c2.262,0.089,4.522,0.009,6.785,0.031c-0.011,0.712-0.011,1.422,0,2.143c-3.217,0-6.433,0-9.644,0
			C119.603,93.978,119.603,88.727,119.592,83.487z"/>
		<path fill="#3F3A39" d="M139.631,83.51c0.954-0.063,1.908,0.016,2.858-0.049c0.098,5.246-0.006,10.494,0.057,15.745
			c-0.976,0.024-1.935,0.007-2.904,0.011C139.65,93.978,139.673,88.742,139.631,83.51z"/>
		<g>
			<path fill="#3F3A39" d="M154.082,83.483c2.154,0.02,4.307-0.022,6.463,0.02c1.548,0.031,3.146,0.721,4.047,2.009
				c0.883,1.225,1.043,2.863,0.654,4.286c-0.416,1.466-1.63,2.634-3.07,3.083c-1.713,0.551-3.518,0.168-5.271,0.338
				c0.051,2.009,0,3.994,0.026,5.998c-0.951,0-1.905,0-2.858,0C154.082,93.967,154.073,88.727,154.082,83.483z M156.915,85.646
				c0.021,1.78,0.021,3.559-0.005,5.332c1.124,0.026,2.267,0.035,3.396-0.005c0.894-0.021,1.691-0.663,2.029-1.475
				c0.71-1.446-0.124-3.494-1.77-3.817C159.354,85.584,158.128,85.668,156.915,85.646z"/>
		</g>
		<g>
			<path fill="#3F3A39" d="M178.074,83.499c0.762-0.021,1.529-0.012,2.293-0.016c1.967,5.232,3.886,10.494,5.846,15.733
				c-1.006-0.021-2.022,0.036-3.034-0.03c-0.291-1.075-0.663-2.112-1.021-3.146c-1.926,0.005-3.839,0.022-5.759-0.016
				c-0.426,1.049-0.747,2.132-1.141,3.191c-0.997,0-2.003-0.004-2.998,0C174.221,93.993,176.154,88.742,178.074,83.499z
				 M179.272,87.628c-0.663,2.163-1.546,4.272-2.169,6.442c1.453-0.031,2.916-0.021,4.379,0
				C180.757,91.919,180.112,89.729,179.272,87.628z"/>
		</g>
		<path fill="#3F3A39" d="M192.712,83.492c1.023-0.024,2.051,0.011,3.077-0.024c1.069,2.158,2.064,4.342,3.08,6.514
			c0.054-0.009,0.152-0.019,0.209-0.029c0.964-2.158,2.013-4.275,2.946-6.442c1.042-0.058,2.085,0,3.132-0.031
			c-1.556,3.116-3.226,6.182-4.781,9.301c-0.058,2.143-0.011,4.295-0.021,6.438c-0.948,0-1.888,0-2.838,0
			c-0.005-2.143,0.025-4.286-0.015-6.429C195.954,89.672,194.311,86.586,192.712,83.492z"/>
	</g>
</g>
</svg>
