<?xml version="1.0" encoding="utf-8"?>
<!-- Generator: Adobe Illustrator 16.0.0, SVG Export Plug-In . SVG Version: 6.00 Build 0)  -->
<!DOCTYPE svg PUBLIC "-//W3C//DTD SVG 1.1//EN" "http://www.w3.org/Graphics/SVG/1.1/DTD/svg11.dtd">
<svg version="1.1" id="Layer_1" xmlns="http://www.w3.org/2000/svg" xmlns:xlink="http://www.w3.org/1999/xlink" x="0px" y="0px"
	 width="219px" height="144px" viewBox="0 0 219 144" enable-background="new 0 0 219 144" xml:space="preserve">
<g>
	<g>
		<path fill="#0069AA" d="M32.724,44.512c1.138-0.136,2.252-0.463,3.409-0.423c4.305-0.045,8.607-0.012,12.912-0.017
			c0.91,0.065,1.856-0.06,2.736,0.226c4.74,0.537,9.379,2.148,13.294,4.896c5.133,3.536,8.969,8.973,10.364,15.067
			c1.204,5.022,0.887,10.44-1.158,15.207C70.648,88.1,62.216,94.396,52.98,95.73c-2.215,0.359-4.466,0.268-6.702,0.278
			c-3.303-0.005-6.603,0.008-9.906-0.008c-5.84-0.05-11.626-2.181-16.134-5.891c-4.809-3.899-8.167-9.576-9.15-15.698
			c-0.108-1.08-0.56-2.097-0.462-3.199c0.066-1.35-0.196-2.797,0.292-4.074c0.661-6.104,3.457-12.009,8.033-16.146
			C22.739,47.495,27.631,45.255,32.724,44.512z M33.965,46.522c-6.624,0.807-12.796,4.575-16.557,10.082
			c-3.301,4.753-4.745,10.744-3.985,16.479c0.61,4.973,2.881,9.715,6.343,13.332c4.165,4.407,10.081,7.125,16.148,7.328
			c4.988,0.252,10.043-1.169,14.192-3.953c4.726-3.139,8.259-8.026,9.724-13.514c1.407-5.14,1.002-10.747-1.12-15.638
			c-2.282-5.302-6.57-9.701-11.815-12.11C42.888,46.645,38.35,46.013,33.965,46.522z"/>
	</g>
	<path fill="#0069AA" d="M42.333,56.098c3.005,1.112,5.583,3.291,7.293,5.99c2.152,3.375,2.861,7.639,1.879,11.527
		c-1.112,4.668-4.62,8.644-9.072,10.407c-0.088-0.182-0.12-0.377-0.099-0.582C42.342,74.326,42.346,65.211,42.333,56.098z"/>
	<path fill="#0069AA" d="M22.53,65.936c1.257-4.442,4.693-8.221,9.021-9.845c-0.087,9.312-0.02,18.63-0.032,27.945
		c-3.031-1.183-5.656-3.37-7.354-6.146C21.973,74.371,21.357,69.916,22.53,65.936z"/>
</g>
<g>
	<path fill="#231F20" d="M179.841,50.687c0.204-0.163,0.772-0.261,0.592,0.226c0.002,5.535,0,11.071,0.002,16.605
		c0,0.938-0.04,1.877,0.068,2.81c0.527,0.332,1.156,0.278,1.753,0.273c-0.002,0.254-0.002,0.508,0,0.759
		c-1.953-0.038-3.906-0.063-5.859,0c0-0.251,0.004-0.503,0.014-0.754c0.557-0.06,1.243,0.164,1.684-0.288
		c0.157-0.289,0.099-0.639,0.122-0.953c-0.016-5.067,0.008-10.136-0.009-15.205c-0.013-0.51-0.071-1.183-0.623-1.396
		c-0.328-0.211-0.973-0.192-0.808-0.739C177.811,51.608,178.877,51.26,179.841,50.687z"/>
	<g>
		<path fill="#231F20" d="M198.588,50.766c0.221-0.147,0.481-0.206,0.748-0.202c-0.022,3.417-0.007,6.836-0.007,10.254
			c1.248-1.042,2.75-2.088,4.464-1.925c1.67,0.092,3.163,1.191,3.924,2.648c1.88,3.529,0.051,8.513-3.73,9.883
			c-1.94,0.722-4.079,0.276-5.891-0.588c-0.248,0.202-0.49,0.406-0.731,0.605c-0.205-0.091-0.41-0.185-0.612-0.276
			c0.606-4.184,0.287-8.422,0.366-12.632c-0.069-1.728,0.149-3.483-0.134-5.188c-0.115-0.794-1.365-0.525-1.365-1.325
			C196.635,51.67,197.647,51.294,198.588,50.766z M199.322,61.668c0.007,2.104,0,4.208,0.003,6.313
			c-0.04,1.202,0.717,2.384,1.824,2.858c0.874,0.371,1.896,0.184,2.723-0.238c1.219-0.664,1.92-1.982,2.205-3.301
			c0.444-1.866-0.004-3.938-1.278-5.387c-0.768-0.874-1.867-1.601-3.078-1.5C200.778,60.468,200.029,61.111,199.322,61.668z"/>
	</g>
	<path fill="#231F20" d="M161.881,54.351c2.41-2,5.705-2.819,8.78-2.28c1.549,0.265,3.045,0.76,4.521,1.288
		c0.097,1.306,0.205,2.609,0.278,3.915c-0.237,0.003-0.472,0.003-0.705,0.005c-0.242-1.543-1.092-3.058-2.535-3.759
		c-2.545-1.216-5.766-0.818-7.979,0.919c-1.573,1.205-2.501,3.093-2.81,5.021c-0.654,3.687,0.64,7.854,3.795,10.038
		c1.84,1.305,4.374,1.851,6.476,0.852c1.683-0.757,2.785-2.433,3.146-4.206c0.221,0.089,0.738,0.046,0.593,0.444
		c-0.165,1.254-0.391,2.502-0.575,3.755c-3.162,1.474-6.929,1.953-10.254,0.729c-2.118-0.746-3.957-2.297-4.989-4.297
		c-0.967-1.815-1.294-3.916-1.181-5.952C158.597,58.301,159.922,55.922,161.881,54.351z"/>
	<g>
		<path fill="#231F20" d="M87.998,52.352c2.911-0.216,6.009,0.143,8.499,1.781c2.435,1.548,4.079,4.282,4.233,7.169
			c0.143,2.649-0.866,5.372-2.782,7.221c-2.202,2.131-5.38,2.851-8.36,2.84c-2.56-0.028-5.12-0.075-7.679,0
			c-0.005-0.247-0.005-0.493-0.007-0.737c0.662-0.094,1.412-0.069,1.956-0.513c0.53-0.466,0.528-1.232,0.553-1.883
			c0-4.221,0.002-8.442-0.002-12.665c-0.023-0.728-0.021-1.573-0.599-2.104c-0.523-0.457-1.26-0.346-1.896-0.395
			c-0.003-0.18-0.007-0.534-0.01-0.714C83.935,52.398,85.967,52.389,87.998,52.352z M87.106,53.334
			c0.002,4.964-0.002,9.928,0,14.891c-0.055,0.949,0.564,1.899,1.522,2.097c2.771,0.511,5.975-0.432,7.575-2.866
			c1.438-2.186,1.779-4.967,1.318-7.506c-0.427-2.378-1.884-4.615-4.065-5.727C91.52,53.183,89.246,53.096,87.106,53.334z"/>
	</g>
	<path fill="#231F20" d="M103.954,52.193c0.857-0.576,2.14,0.252,1.969,1.273c0.012,0.947-1.191,1.624-1.982,1.08
		C103.024,54.086,103.012,52.638,103.954,52.193z"/>
	<path fill="#231F20" d="M108.514,60.165c1.286-0.339,2.506-0.875,3.759-1.317c0.034,0.683,0.026,1.367,0.026,2.051
		c1.315-0.972,2.769-1.967,4.463-2.018c1.056-0.081,2.21,0.32,2.769,1.269c0.772,1.24,0.551,2.76,0.581,4.146
		c0.03,1.918-0.062,3.84,0.044,5.755c0.216,0.785,1.217,0.491,1.827,0.554c-0.004,0.252-0.004,0.504-0.004,0.757
		c-1.953-0.036-3.902-0.068-5.854,0c-0.004-0.253,0-0.505,0.002-0.756c0.543-0.056,1.204,0.157,1.635-0.278
		c0.214-0.442,0.144-0.953,0.163-1.428c-0.031-2.156,0.042-4.313-0.034-6.468c0-0.926-0.688-1.775-1.6-1.946
		c-1.456-0.35-2.815,0.472-3.999,1.207c0.034,2.787-0.035,5.576,0.032,8.363c0.175,0.765,1.209,0.494,1.801,0.549
		c0,0.25,0,0.504,0,0.755c-1.948-0.032-3.897-0.069-5.843,0.002c-0.002-0.251-0.002-0.505-0.002-0.756
		c0.557-0.053,1.225,0.144,1.677-0.282c0.104-0.308,0.077-0.636,0.089-0.951c-0.021-2.387,0.01-4.772-0.012-7.16
		c0.042-0.851-0.881-1.178-1.515-1.464C108.518,60.604,108.514,60.313,108.514,60.165z"/>
	<path fill="#231F20" d="M133.995,60.065c0.918-0.387,1.762-0.942,2.715-1.249c0.074,0.967,0.03,1.94,0.037,2.91
		c0.751-1.06,1.507-2.288,2.803-2.73c0.784-0.297,1.866-0.067,2.212,0.767c0.374,0.774-0.118,1.932-1.042,1.972
		c-0.799,0.16-1.293-0.806-2.096-0.601c-0.944,0.177-1.769,1.042-1.784,2.022c-0.028,2.067,0.002,4.139-0.015,6.206
		c0.007,0.435-0.064,1.038,0.465,1.198c0.786,0.083,1.576,0.021,2.363,0.037c-0.002,0.256,0,0.51,0,0.765
		c-2.367-0.044-4.738-0.071-7.107,0c0-0.255,0-0.509,0.002-0.765c0.517-0.002,1.03-0.002,1.548,0.014
		c0.264-0.202,0.549-0.431,0.496-0.808c0.029-2.531,0.011-5.063,0.009-7.593c0.075-0.86-0.896-1.09-1.504-1.372
		C133.134,60.353,133.635,60.25,133.995,60.065z"/>
	<path fill="#231F20" d="M102.056,60.005c1.228-0.308,2.379-0.881,3.619-1.125c-0.014,3.418,0.002,6.835-0.009,10.253
		c0.002,0.403,0,0.826,0.182,1.197c0.445,0.426,1.111,0.221,1.663,0.276c-0.002,0.251-0.004,0.503-0.004,0.756
		c-1.944-0.034-3.891-0.071-5.836,0.002c0-0.255,0-0.509,0.002-0.763c0.596-0.057,1.524,0.238,1.78-0.512
		c0.095-2.615,0.03-5.241,0.034-7.857c0.1-0.905-0.702-1.421-1.405-1.755C102.075,60.36,102.063,60.124,102.056,60.005z"/>
	<g>
		<path fill="#231F20" d="M123.631,60.576c1.11-1.179,2.776-1.888,4.403-1.655c1.439,0.184,2.874,0.997,3.511,2.347
			c0.416,0.762,0.387,1.651,0.392,2.494c-2.626,0.247-5.282,0.042-7.922,0.108c-0.056,1.465,0.066,3.011,0.87,4.281
			c0.7,1.174,2.009,2.074,3.419,1.957c1.34-0.127,2.497-0.927,3.42-1.859c0.104,0.106,0.311,0.32,0.415,0.428
			c-0.884,1.095-1.871,2.201-3.209,2.737c-1.877,0.757-4.274,0.364-5.601-1.23c-1.3-1.549-1.698-3.71-1.422-5.675
			C122.071,63.068,122.605,61.627,123.631,60.576z M125.251,60.591c-0.649,0.621-0.969,1.499-1.121,2.367
			c1.541-0.009,3.08,0.007,4.62-0.004c0.334,0,0.813-0.107,0.834-0.521c0.057-0.871-0.302-1.821-1.067-2.292
			C127.5,59.513,126.081,59.755,125.251,60.591z"/>
	</g>
	<path fill="#231F20" d="M144.446,59.498c1.737-0.987,3.918-0.692,5.643,0.174c0.063,0.953,0.164,1.907,0.181,2.865
		c-0.147-0.019-0.444-0.053-0.595-0.069c-0.272-0.854-0.552-1.819-1.397-2.282c-1.147-0.68-3.096-0.56-3.623,0.844
		c-0.41,1.163,0.535,2.238,1.547,2.664c1.327,0.694,2.891,1.063,3.932,2.206c1.29,1.46,0.861,3.954-0.752,4.997
		c-1.938,1.303-4.532,1.045-6.521-0.015c-0.124-0.966-0.223-1.936-0.27-2.909c-0.016-0.27,0.132-0.434,0.442-0.484
		c0.23,0.838,0.499,1.709,1.117,2.354c0.865,0.984,2.415,1.341,3.596,0.732c0.918-0.49,1.19-1.777,0.658-2.646
		c-0.585-0.949-1.707-1.312-2.652-1.783c-1.21-0.532-2.522-1.301-2.88-2.671C142.376,61.988,143.087,60.254,144.446,59.498z"/>
	<path fill="#231F20" d="M182.129,59.557c1.299-0.204,2.621-0.235,3.935-0.219c-0.002,2.66,0.013,5.319,0.006,7.977
		c0.012,1.091,0.33,2.442,1.507,2.818c1.556,0.486,2.937-0.626,4.111-1.484c0.025-2.297,0-4.599,0.016-6.897
		c-0.021-0.321,0.058-0.739-0.322-0.871c-0.59-0.359-1.292-0.441-1.926-0.697c-0.016-0.128-0.053-0.379-0.07-0.505
		c1.522-0.06,3.031-0.364,4.556-0.336c-0.003,3.342,0.006,6.686-0.008,10.031c-0.017,0.326,0.048,0.648,0.14,0.965
		c0.571-0.002,1.15,0,1.729,0.009c-0.017,0.133-0.048,0.399-0.064,0.532c-1.357,0.281-2.719,0.559-4.057,0.92
		c-0.027-0.756-0.025-1.517-0.018-2.274c-1.171,0.953-2.414,1.965-3.955,2.192c-1.192,0.237-2.603-0.102-3.293-1.172
		c-0.666-0.947-0.551-2.158-0.562-3.255c-0.017-2.077,0.039-4.154-0.023-6.23C183.787,60.008,182.27,60.422,182.129,59.557z"/>
	<path fill="#231F20" d="M109.261,76.771c0.112,0.01,0.337,0.03,0.449,0.042c-0.175,0.83-0.244,1.675-0.216,2.521
		c-0.148,0.059-0.443,0.18-0.591,0.239c-0.059-0.551-0.129-1.366-0.831-1.446c-0.839-0.071-1.69,0.062-2.531-0.063
		c-0.06,2.396-0.004,4.793-0.03,7.188c0.011,0.468-0.028,0.957,0.133,1.404c0.274,0.51,0.942,0.383,1.416,0.528
		c-0.016,0.134-0.053,0.405-0.068,0.539c-1.681-0.111-3.365-0.098-5.046-0.005c-0.004-0.139-0.016-0.417-0.021-0.555
		c0.433-0.083,0.905-0.066,1.308-0.267c0.242-0.43,0.24-0.931,0.24-1.408c-0.014-2.47,0.004-4.94-0.009-7.412
		c-1.004,0.083-2.032-0.119-3.02,0.104c-0.546,0.124-0.483,0.833-0.656,1.255c-0.208-0.014-0.413-0.026-0.615-0.039
		c0.188-0.868,0.262-1.755,0.294-2.643c0.497,0.065,0.868,0.513,1.389,0.468c2.464,0.005,4.931,0.002,7.396,0
		C108.649,77.254,109.049,77.135,109.261,76.771z"/>
	<path fill="#231F20" d="M150.977,76.779c0.098,0.01,0.295,0.028,0.393,0.036c0.273,0.31,0.659,0.444,1.069,0.41
		c2.465-0.004,4.927,0.008,7.391-0.004c0.507,0.092,0.774-0.467,1.251-0.481c0.088,0.852-0.221,1.714-0.123,2.579
		c-0.186,0.079-0.369,0.16-0.553,0.237c-0.117-0.522-0.121-1.333-0.812-1.426c-0.862-0.112-1.737-0.02-2.605-0.045
		c-0.019,2.466,0.002,4.935-0.011,7.404c0.008,0.475-0.025,1.011,0.303,1.402c0.383,0.195,0.833,0.193,1.251,0.276
		c-0.004,0.137-0.014,0.408-0.018,0.546c-1.689-0.083-3.379-0.102-5.064,0.01c-0.02-0.136-0.059-0.405-0.076-0.542
		c0.474-0.158,1.217,0.031,1.465-0.516c0.146-0.61,0.095-1.245,0.105-1.868c-0.021-2.243,0.027-4.489-0.026-6.731
		c-0.925,0.149-1.862-0.006-2.786,0.063c-0.687,0.006-0.707,0.813-0.871,1.303c-0.151-0.002-0.453-0.009-0.604-0.014
		C150.801,78.544,150.923,77.664,150.977,76.779z"/>
	<path fill="#231F20" d="M86.936,77.157c1.025,0.161,2.062,0.055,3.091,0.087c2.216,2.369,4.328,4.845,6.493,7.265
		c-0.023-1.902,0.042-3.805-0.028-5.705c-0.039-0.806-0.901-1.06-1.575-1.043c0.004-0.133,0.012-0.401,0.016-0.535
		c1.347,0.028,2.697,0.031,4.047,0.003c0,0.135,0.002,0.403,0.002,0.536c-0.864-0.121-1.589,0.494-1.524,1.383
		c-0.009,2.927-0.115,5.866,0.068,8.791c-0.187-0.017-0.557-0.046-0.744-0.06c-2.499-2.78-4.983-5.573-7.494-8.345
		c0.016,1.83,0.002,3.662,0.007,5.493c0.021,0.546,0.014,1.114,0.223,1.63c0.334,0.675,1.68,0.079,1.514,1.051
		c-1.373-0.063-2.748-0.097-4.118,0.019c-0.018-0.134-0.051-0.398-0.067-0.53c0.362-0.108,0.767-0.129,1.096-0.334
		c0.46-0.393,0.428-1.047,0.496-1.592c0.05-1.698,0-3.398,0.025-5.098c-0.016-0.602,0.06-1.251-0.239-1.8
		c-0.293-0.477-0.878-0.55-1.378-0.638C86.876,77.542,86.906,77.351,86.936,77.157z"/>
	<path fill="#231F20" d="M137.676,77.159c1.349,0.15,2.711,0.077,4.064,0.064c0,0.14,0,0.412,0,0.552
		c-0.465,0.042-1.066,0.018-1.308,0.506c-0.396,1.041-0.212,2.187-0.254,3.272c0.049,2.127-0.12,4.262,0.132,6.375
		c-0.187-0.01-0.561-0.031-0.747-0.043c-2.496-2.769-4.974-5.551-7.469-8.317c0.005,1.898,0.005,3.796-0.003,5.694
		c0.012,0.488-0.019,1.016,0.236,1.455c0.352,0.415,0.965,0.329,1.445,0.468c-0.018,0.136-0.058,0.407-0.076,0.543
		c-1.375-0.138-2.755-0.064-4.131-0.028c-0.155-0.864,0.972-0.446,1.295-1.004c0.354-0.471,0.303-1.099,0.325-1.656
		c-0.02-2.048,0.028-4.102-0.02-6.148c-0.042-0.787-0.871-1.114-1.548-1.138c-0.004-0.126-0.017-0.378-0.022-0.504
		c1.083-0.049,2.166,0.034,3.248-0.021c2.117,2.435,4.29,4.82,6.413,7.248c-0.01-1.943,0.055-3.893-0.028-5.833
		c-0.136-0.737-0.948-0.879-1.575-0.876C137.659,77.564,137.665,77.363,137.676,77.159z"/>
	<g>
		<path fill="#231F20" d="M145.885,77.481c0.53-0.216,1.047-0.472,1.559-0.736c1.251,3.235,2.287,6.554,3.507,9.802
			c0.155,0.665,1.318,0.335,1.125,1.159c-1.514-0.088-3.026-0.081-4.536,0.002c-0.197-0.743,0.688-0.625,1.15-0.799
			c-0.178-0.993-0.597-1.917-0.876-2.879c-1.077-0.014-2.153-0.008-3.229-0.008c-0.282,0.903-0.552,1.81-0.854,2.705
			c0.438,0.508,1.512,0.04,1.408,0.973c-1.228-0.068-2.455-0.084-3.683,0.004c-0.137-0.919,1.156-0.53,1.338-1.334
			C143.862,83.423,144.903,80.46,145.885,77.481z M146.193,79.207c-0.456,1.267-0.848,2.557-1.289,3.83
			c0.851,0.005,1.7,0.005,2.553,0C146.999,81.772,146.63,80.478,146.193,79.207z"/>
	</g>
	<g>
		<path fill="#231F20" d="M170.556,77.157c2.064-0.486,4.45-0.005,5.945,1.563c2.185,2.381,1.504,6.705-1.27,8.352
			c-2.354,1.451-5.79,1.055-7.575-1.12c-1.235-1.498-1.464-3.665-0.805-5.463C167.455,78.868,168.879,77.586,170.556,77.157z
			 M170.756,78.025c-1.298,0.521-1.879,1.976-1.99,3.28c-0.126,1.71,0.178,3.608,1.395,4.9c1.233,1.354,3.753,1.174,4.695-0.431
			c0.683-1.193,0.762-2.632,0.67-3.975c-0.175-1.274-0.661-2.608-1.718-3.407C172.951,77.733,171.745,77.62,170.756,78.025z"/>
	</g>
	<path fill="#231F20" d="M185.967,77.257c1.377-0.113,2.773,0.06,4.159-0.023c-0.003,0.134-0.009,0.402-0.011,0.536
		c-0.586,0.008-1.349,0.115-1.447,0.823c-0.27,1.506-0.06,3.056-0.125,4.581c0.037,1.586-0.097,3.183,0.104,4.761
		c-0.252-0.019-0.499-0.034-0.746-0.052c-2.487-2.777-4.969-5.557-7.469-8.323c0.002,1.965-0.009,3.932,0.004,5.896
		c0.032,0.483,0,1.062,0.385,1.423c0.409,0.204,0.888,0.207,1.336,0.309c-0.022,0.136-0.063,0.405-0.085,0.541
		c-1.341-0.11-2.69-0.11-4.031,0.003c-0.015-0.141-0.042-0.426-0.055-0.566c0.607-0.063,1.352-0.247,1.468-0.961
		c0.213-2,0.039-4.021,0.1-6.027c-0.041-0.679,0.162-1.518-0.414-2.026c-0.303-0.305-0.747-0.327-1.138-0.392
		c0-0.133-0.003-0.403-0.005-0.537c1.066,0.063,2.137-0.027,3.199,0.049c2.164,2.385,4.295,4.812,6.429,7.227
		c-0.016-1.929,0.055-3.864-0.033-5.792c-0.085-0.762-0.935-0.954-1.572-0.928C186.006,77.646,185.98,77.387,185.967,77.257z"/>
	<g>
		<path fill="#231F20" d="M194.246,77.519c0.504-0.282,1.043-0.504,1.562-0.767c1.226,3.247,2.285,6.558,3.499,9.808
			c0.189,0.621,1.204,0.324,1.111,1.131c-1.507-0.053-3.012-0.069-4.514,0.016c-0.183-0.741,0.678-0.624,1.143-0.8
			c-0.205-0.99-0.59-1.925-0.895-2.886c-1.072,0.002-2.144,0.002-3.217,0c-0.253,0.887-0.592,1.748-0.795,2.646
			c0.217,0.682,1.511,0.037,1.303,1.037c-1.206-0.074-2.415-0.088-3.62,0.002c-0.149-0.808,0.795-0.553,1.127-1.036
			c0.311-0.378,0.41-0.87,0.582-1.32C192.434,82.739,193.354,80.133,194.246,77.519z M194.571,79.19
			c-0.51,1.259-0.849,2.576-1.319,3.844c0.847,0.008,1.694,0.008,2.545,0.005C195.379,81.759,194.933,80.488,194.571,79.19z"/>
	</g>
	<g>
		<path fill="#231F20" d="M208.238,77.005c0.968-0.566,2.363,0.205,2.337,1.344c0.124,1.174-1.285,2.07-2.306,1.496
			C207.118,79.354,207.131,77.533,208.238,77.005z M208.04,79.17c0.414,0.611,1.191,0.544,1.794,0.286
			c-0.42-0.234-0.753-0.576-1.097-0.899c0.028,0.178,0.083,0.536,0.11,0.713c-0.138-0.009-0.409-0.025-0.544-0.032
			c0.207-0.551,0.166-1.133-0.006-1.686l0.508,0.04c-0.005,0.331-0.005,0.662,0.006,0.993c0.436-0.315,0.467-0.687,0.098-1.104
			c0.648,0.034,0.866,0.684,0.355,1.065c0.194,0.27,0.39,0.536,0.588,0.807c0.592-0.673,0.378-1.853-0.516-2.127
			C208.262,76.793,207.277,78.339,208.04,79.17z"/>
	</g>
	<path fill="#231F20" d="M81.791,77.226c1.57,0.032,3.144,0.024,4.716,0.003c0,0.137,0.002,0.407,0.002,0.544
		c-0.474,0.06-1.204-0.03-1.32,0.595c-0.083,2.369-0.001,4.746-0.037,7.12c0.021,0.476-0.087,1.02,0.238,1.419
		c0.361,0.161,0.767,0.194,1.154,0.281c-0.016,0.136-0.048,0.405-0.066,0.539c-1.548-0.095-3.103-0.12-4.651,0
		c-0.021-0.131-0.064-0.398-0.085-0.53c0.475-0.156,1.396-0.052,1.327-0.795c0.019-2.454-0.009-4.909,0.012-7.361
		c-0.03-0.326,0.051-0.688-0.118-0.982c-0.318-0.301-0.785-0.226-1.181-0.29C81.784,77.632,81.789,77.363,81.791,77.226z"/>
	<path fill="#231F20" d="M110.017,77.166c2.528,0.166,5.066,0.056,7.598,0.058c-0.009,0.793-0.004,1.588,0.025,2.382
		c-0.134,0.047-0.403,0.137-0.537,0.182c-0.137-0.59-0.163-1.414-0.862-1.628c-0.933-0.281-1.93-0.118-2.889-0.154
		c0.01,1.232,0.01,2.466,0,3.698c0.714-0.011,1.437,0.065,2.146-0.045c0.506-0.187,0.516-0.788,0.669-1.219
		c0.138,0.002,0.412,0.007,0.55,0.01c-0.04,1.181-0.04,2.362,0,3.544c-0.141,0.035-0.418,0.102-0.558,0.137
		c-0.144-0.512-0.061-1.296-0.715-1.454c-0.69-0.113-1.394-0.041-2.086-0.058c0.029,1.241-0.057,2.484,0.037,3.723
		c0.158,0.457,0.692,0.497,1.105,0.543c0.79,0.033,1.607,0.043,2.372-0.189c0.7-0.253,0.953-1.006,1.174-1.645
		c0.185,0.059,0.371,0.118,0.558,0.178c-0.226,0.824-0.392,1.663-0.565,2.501c-2.682-0.117-5.364-0.105-8.044-0.009
		c-0.009-0.136-0.028-0.408-0.036-0.541c0.488-0.129,1.338-0.044,1.311-0.771c0.029-2.46-0.007-4.917,0.016-7.375
		c-0.027-0.337,0.068-0.736-0.185-1.007c-0.322-0.258-0.76-0.2-1.139-0.263C109.976,77.613,110.003,77.316,110.017,77.166z"/>
	<g>
		<path fill="#231F20" d="M119.071,77.238c1.22-0.035,2.438,0.051,3.658,0c1.165,0.004,2.411-0.152,3.486,0.403
			c1.319,0.618,1.604,2.479,0.86,3.641c-0.357,0.613-1.002,0.958-1.615,1.265c0.905,1.323,1.765,2.683,2.697,3.988
			c0.316,0.604,1.426,0.287,1.223,1.185c-0.999-0.088-2.004-0.08-3.003-0.04c-1.163-1.51-2.135-3.15-3.091-4.793
			c-0.208,0-0.619,0.005-0.824,0.008c0.066,1.236-0.131,2.503,0.107,3.72c0.164,0.797,1.652,0.074,1.422,1.097
			c-1.617-0.053-3.237-0.115-4.854,0.016c-0.021-0.129-0.072-0.392-0.099-0.521c0.472-0.164,1.354-0.1,1.345-0.805
			c0.035-2.305-0.004-4.611,0.017-6.915c-0.015-0.465,0.035-0.956-0.147-1.396c-0.299-0.315-0.756-0.279-1.149-0.318
			C119.096,77.638,119.08,77.371,119.071,77.238z M122.464,77.929c0.008,1.433-0.017,2.865,0.018,4.298
			c0.801-0.064,1.778,0.058,2.37-0.612c0.678-0.947,0.69-2.49-0.253-3.275C124.015,77.821,123.187,77.901,122.464,77.929z"/>
	</g>
	<path fill="#231F20" d="M161.525,77.236c1.554,0.008,3.11,0.029,4.667-0.017c0.005,0.136,0.019,0.408,0.024,0.541
		c-0.432,0.069-1.239-0.014-1.268,0.61c-0.021,2.743-0.038,5.491,0.01,8.231c0.136,0.78,1.512,0.091,1.292,1.105
		c-1.581-0.063-3.16-0.095-4.738,0.007c-0.292-1.017,1.349-0.31,1.304-1.263c0.042-2.64,0.028-5.29,0.006-7.932
		c0.05-0.719-0.781-0.709-1.283-0.751C161.535,77.636,161.527,77.368,161.525,77.236z"/>
	<path fill="#231F20" d="M200.75,77.162c1.568,0.158,3.149,0.069,4.722,0.058c0,0.144,0,0.424,0,0.566
		c-0.456,0.042-1.354-0.134-1.354,0.563c-0.03,2.604-0.013,5.211-0.011,7.816c-0.066,0.607,0.628,0.778,1.1,0.78
		c0.974,0.027,2.121,0.082,2.865-0.665c0.481-0.418,0.348-1.477,1.212-1.309c-0.184,0.917-0.403,1.826-0.592,2.741
		c-2.649-0.081-5.298-0.09-7.947,0.004c-0.008-0.132-0.032-0.397-0.043-0.531c0.478-0.134,1.289-0.073,1.305-0.766
		c0.039-2.613,0.011-5.231,0.015-7.849c0.09-0.743-0.79-0.79-1.307-0.804C200.725,77.615,200.741,77.313,200.75,77.162z"/>
</g>
</svg>
