<?xml version="1.0" encoding="utf-8"?>
<!-- Generator: Adobe Illustrator 21.0.0, SVG Export Plug-In . SVG Version: 6.00 Build 0)  -->
<svg version="1.1" id="Layer_1" xmlns="http://www.w3.org/2000/svg" xmlns:xlink="http://www.w3.org/1999/xlink" x="0px" y="0px"
	 viewBox="0 0 75 67" style="enable-background:new 0 0 75 67;" xml:space="preserve">
<style type="text/css">
	.st0{fill:#1F417F;}
	.st1{fill:none;}
	.st2{fill:#FFFFFF;}
</style>
<title>f1</title>
<g>
	<g>
		<path class="st0" d="M29.2,32.4c-0.6,0-1.2-0.1-1.7-0.3l-18-8.2l-0.1-0.1L9,23.6l0.4-0.2l0.2-0.1l18-8.2c0.9-0.4,2.5-0.4,3.4,0
			l18,8.2l0.1,0.1l0.4,0.2L49,23.8l-0.2,0.1l0,0l-18,8.2C30.4,32.3,29.8,32.4,29.2,32.4z M10.1,23.6l17.6,8.1c0.7,0.4,2.2,0.4,2.9,0
			l17.6-8.1l-17.6-8.1c-0.8-0.4-2.2-0.3-2.9,0L10.1,23.6z"/>
	</g>
	<path class="st1" d="M29.2,37.8c-0.9,0-1.8-0.2-2.5-0.5L14,31.5l-3.9,1.8l17.6,8.1c0.7,0.4,2.2,0.4,2.9,0l17.6-8.1l-3.9-1.8
		l-12.7,5.8C31,37.6,30.1,37.8,29.2,37.8z"/>
	<path class="st1" d="M31.7,46.8c-0.7,0.3-1.6,0.5-2.5,0.5c-0.9,0-1.8-0.2-2.5-0.5L9.8,39L2,42.6c-0.1,0-0.1,0.1-0.2,0.1
		c0.1,0,0.1,0.1,0.2,0.1l25,11.5c0.6,0.3,1.4,0.4,2.2,0.4c0.8,0,1.6-0.1,2.2-0.4l25-11.5c0.1,0,0.1-0.1,0.2-0.1
		c-0.1,0-0.1-0.1-0.2-0.1L48.6,39L31.7,46.8z"/>
	<path class="st1" d="M49,33.1l0.4,0.2L49,33.5l-0.2,0.1l0,0l-18,8.2c-0.5,0.2-1.1,0.3-1.7,0.3c-0.6,0-1.2-0.1-1.7-0.3l-18-8.2
		l-0.1-0.1L9,33.3l0.4-0.2L9.5,33l3.8-1.8l-3.5-1.6L2,33.2c-0.1,0-0.1,0.1-0.2,0.1c0.1,0,0.1,0.1,0.2,0.1l25,11.5
		c0.6,0.3,1.4,0.4,2.2,0.4c0.8,0,1.6-0.1,2.2-0.4l25-11.5c0.1,0,0.1-0.1,0.2-0.1c-0.1,0-0.1-0.1-0.2-0.1l-7.8-3.6L45,31.2l3.8,1.8
		L49,33.1z"/>
	<path class="st0" d="M48.3,33.3l-17.6,8.1c-0.8,0.4-2.2,0.4-2.9,0l-17.6-8.1l3.9-1.8l-0.6-0.3L9.5,33l-0.2,0.1L9,33.3l0.4,0.2
		l0.1,0.1l18,8.2c0.4,0.2,1,0.3,1.7,0.3c0.6,0,1.2-0.1,1.7-0.3l18-8.2l0,0l0.2-0.1l0.3-0.3L49,33.1L48.8,33L45,31.2l-0.6,0.3
		L48.3,33.3z"/>
	<path class="st0" d="M48.3,42.7l-17.6,8.1c-0.8,0.4-2.2,0.4-2.9,0l-17.6-8.1L14,41l-0.6-0.3l-3.8,1.8l-0.2,0.1L9,42.8L9.4,43
		l0.1,0.1l18,8.2c0.4,0.2,1,0.3,1.7,0.3c0.6,0,1.2-0.1,1.7-0.3l18-8.2l0,0L49,43l0.3-0.3L49,42.5l-0.1-0.1L45,40.7L44.4,41
		L48.3,42.7z"/>
	<path class="st0" d="M57.7,24.7v-1.8c0,0.1,0,0.2-0.1,0.3c0.2-0.5-0.1-1.1-1-1.5l-25-11.5C31,10,30.1,9.9,29.2,9.9
		s-1.8,0.2-2.5,0.5l-25,11.5c-0.7,0.3-1.1,0.8-1,1.3c0,0,0-0.1,0-0.1v1.8c0,0.4,0.3,0.8,1,1.1l5.9,2.7l-5.9,2.7
		c-0.7,0.3-1.1,0.8-1,1.3c0,0,0-0.1,0-0.1v1.8c0,0.4,0.3,0.8,1,1.1L7.5,38l-5.8,2.7c-0.7,0.3-1.1,0.8-1,1.3c0,0,0-0.1,0-0.1v1.8
		c0,0.4,0.3,0.8,1,1.1l25,11.5c0.7,0.3,1.6,0.5,2.5,0.5c0.9,0,1.8-0.2,2.5-0.5l25-11.5c0.7-0.3,1-0.7,1-1.1v-1.8
		c0,0.1,0,0.2-0.1,0.3c0.2-0.5-0.1-1.1-1-1.5L50.8,38l5.8-2.7c0.7-0.3,1-0.7,1-1.1v-1.8c0,0.1,0,0.2-0.1,0.3c0.2-0.5-0.1-1.1-1-1.5
		l-5.9-2.7l5.9-2.7C57.3,25.6,57.7,25.1,57.7,24.7z M56.4,42.6c0.1,0,0.1,0.1,0.2,0.1c-0.1,0-0.1,0.1-0.2,0.1l-25,11.5
		c-0.6,0.3-1.4,0.4-2.2,0.4c-0.8,0-1.6-0.1-2.2-0.4L2,42.8c-0.1,0-0.1-0.1-0.2-0.1c0.1,0,0.1-0.1,0.2-0.1L9.8,39l16.9,7.8
		c0.7,0.3,1.6,0.5,2.5,0.5c0.9,0,1.8-0.2,2.5-0.5L48.6,39L56.4,42.6z M56.4,23.9l-7.8,3.6l-2.3,1l-3.5,1.6l2.3,1l3.5-1.6l7.8,3.6
		c0.1,0,0.1,0.1,0.2,0.1c-0.1,0-0.1,0.1-0.2,0.1l-25,11.5c-0.6,0.3-1.4,0.4-2.2,0.4c-0.8,0-1.6-0.1-2.2-0.4L2,33.4
		c-0.1,0-0.1-0.1-0.2-0.1c0.1,0,0.1-0.1,0.2-0.1l7.8-3.6l3.5,1.6l2.3-1l-3.5-1.6l-2.3-1L2,23.9c-0.1,0-0.1-0.1-0.2-0.1
		c0.1,0,0.1-0.1,0.2-0.1l25-11.5c0.6-0.3,1.4-0.4,2.2-0.4c0.8,0,1.6,0.1,2.2,0.4l25,11.5c0.1,0,0.1,0.1,0.2,0.1
		C56.5,23.9,56.4,23.9,56.4,23.9z"/>
	<path class="st0" d="M26.7,37.3c0.7,0.3,1.6,0.5,2.5,0.5c0.9,0,1.8-0.2,2.5-0.5l12.7-5.8l-2.3-1l-10.7,4.9
		c-0.6,0.3-1.4,0.4-2.2,0.4c-0.8,0-1.6-0.1-2.2-0.4l-10.7-4.9l-2.3,1L26.7,37.3z"/>
	<polygon class="st0" points="16.2,30.5 15.6,30.2 13.3,31.2 14,31.5 	"/>
	<polygon points="44.4,31.5 45,31.2 42.7,30.2 42.1,30.5 	"/>
	<g>
		<g>
			<g>
				<g>
					<path class="st2" d="M56.6,56.3l-0.4-0.1c-10.5-2.4-16.2-12.9-16.5-30.3v-2.2h2c2.9,0,5.2-2.3,5.2-5.2v-2h19.6v2
						c0,2.9,2.3,5.2,5.2,5.2h2v2.2c-0.3,17.5-6,28-16.5,30.4L56.6,56.3z"/>
					<path class="st0" d="M56.6,57.1L55.9,57C45,54.5,39.1,43.7,38.8,25.8v-3.1h2.8c2.4,0,4.4-2,4.4-4.4v-2.8h21.2v2.8
						c0,2.4,2,4.4,4.4,4.4h2.8v3C74,43.7,68.1,54.5,57.2,57L56.6,57.1z M40.4,24.4v1.4c0.3,17,5.8,27.2,15.9,29.5l0.3,0.1l0.3-0.1
						c10.1-2.3,15.6-12.6,15.9-29.6v-1.4h-1.2c-3.3,0-6-2.7-6-6v-1.2H47.6v1.2c0,3.3-2.7,6-6,6H40.4z"/>
				</g>
			</g>
			<g>
				<path class="st2" d="M44.4,27.9c0.4,9.6,2.9,20.9,12.2,23.4c9.3-2.4,11.8-13.7,12.2-23.4c-3.2-0.7-5.8-3.3-6.5-6.5H50.9
					C50.2,24.6,47.6,27.1,44.4,27.9z"/>
				<path class="st0" d="M56.6,51.5L56.6,51.5C46.9,49,44.5,37.3,44.1,27.9l0-0.2l0.2-0.1c3.1-0.7,5.6-3.2,6.3-6.3l0-0.2h11.8l0,0.2
					c0.7,3.1,3.2,5.6,6.3,6.3l0.2,0.1l0,0.2C68.6,37.3,66.2,49,56.6,51.5L56.6,51.5z M44.7,28.1c0.4,9.1,2.8,20.4,11.9,22.9
					c9.1-2.5,11.5-13.7,11.9-22.9c-3.2-0.8-5.7-3.3-6.4-6.5H51.1C50.3,24.8,47.8,27.3,44.7,28.1z"/>
			</g>
		</g>
		<path class="st0" d="M64,31.8l-1.1-1.1c-0.1-0.1-0.3-0.1-0.4,0l-7.5,7.5l-4.1-4.1c-0.1-0.1-0.3-0.1-0.4,0l-1,1
			c-0.1,0.1-0.1,0.3,0,0.4l4.3,4.3l1.1,1.1l0,0c0.1,0.1,0.3,0.1,0.4,0l0,0l1-1l7.7-7.7C64.1,32.1,64.1,31.9,64,31.8z"/>
	</g>
</g>
</svg>
