<?xml version="1.0" encoding="utf-8"?>
<!-- Generator: Adobe Illustrator 24.1.2, SVG Export Plug-In . SVG Version: 6.00 Build 0)  -->
<svg version="1.1" id="Layer_1" xmlns="http://www.w3.org/2000/svg" xmlns:xlink="http://www.w3.org/1999/xlink" x="0px" y="0px"
	 width="20px" height="20px" viewBox="0 0 20 20" style="enable-background:new 0 0 20 20;" xml:space="preserve">
<style type="text/css">
	.st0{fill:#FFFFFF;}
</style>
<path class="st0" d="M10,0C4.5,0,0,4.5,0,10c0,5.5,4.5,10,10,10c5.5,0,10-4.5,10-10C20,4.5,15.5,0,10,0z M13.4,16
	c-0.5,0.4-1.1,0.7-1.8,0.9v1.7H9V17c-0.8-0.2-1.6-0.5-2.3-1c-1-0.7-1.4-1.8-1.4-3.3l0-0.1h2.4c0,0.8,0.2,1.4,0.6,1.8
	c0.4,0.4,1,0.6,1.8,0.6c0.7,0,1.2-0.2,1.5-0.5c0.3-0.3,0.5-0.7,0.5-1.2c0-0.5-0.2-1-0.5-1.3c-0.3-0.3-0.9-0.6-1.8-0.9
	c-1.4-0.5-2.5-1-3.3-1.7C5.9,8.7,5.6,7.8,5.6,6.7c0-1.1,0.4-2.1,1.3-2.8C7.4,3.4,8.1,3.1,9,3V1.4h2.6v1.7c0.7,0.2,1.2,0.5,1.7,0.9
	c0.8,0.8,1.2,1.8,1.2,3l0,0.1h-2.4c0-0.7-0.2-1.2-0.6-1.6C11.2,5.2,10.7,5,10,5C9.4,5,8.9,5.1,8.6,5.5C8.2,5.8,8.1,6.2,8.1,6.7
	c0,0.5,0.2,0.9,0.5,1.2c0.4,0.3,1,0.6,1.9,1c1.4,0.4,2.4,1,3.1,1.7c0.7,0.7,1.1,1.6,1.1,2.7C14.7,14.4,14.3,15.4,13.4,16z"/>
</svg>
