<?xml version="1.0" encoding="utf-8"?>
<!-- Generator: Adobe Illustrator 16.0.0, SVG Export Plug-In . SVG Version: 6.00 Build 0)  -->
<!DOCTYPE svg PUBLIC "-//W3C//DTD SVG 1.1//EN" "http://www.w3.org/Graphics/SVG/1.1/DTD/svg11.dtd">
<svg version="1.1" id="Layer_1" xmlns="http://www.w3.org/2000/svg" xmlns:xlink="http://www.w3.org/1999/xlink" x="0px" y="0px"
	 width="144px" height="144px" viewBox="0 0 144 144" enable-background="new 0 0 144 144" xml:space="preserve">
<g>
	<rect x="-9.254" y="4.32" fill="none" width="161.754" height="132.68"/>
	<g>
		<g>
			<path id="XMLID_1775_" d="M30.792,120.301v-6.61c0-2.49-1.586-4.164-4.143-4.187c-1.343-0.022-2.731,0.396-3.702,1.872
				c-0.727-1.167-1.872-1.872-3.481-1.872c-1.125,0-2.226,0.33-3.085,1.565v-1.301H14.09v10.532h2.313v-5.84
				c0-1.828,1.014-2.798,2.578-2.798c1.522,0,2.292,0.991,2.292,2.775v5.862h2.313v-5.84c0-1.828,1.058-2.798,2.578-2.798
				c1.564,0,2.313,0.991,2.313,2.775v5.862H30.792z M65.034,109.769h-3.746v-3.195h-2.314v3.195h-2.137v2.093h2.137v4.804
				c0,2.445,0.948,3.9,3.658,3.9c0.992,0,2.137-0.31,2.865-0.815l-0.661-1.962c-0.684,0.397-1.434,0.596-2.028,0.596
				c-1.146,0-1.52-0.705-1.52-1.763v-4.76h3.746V109.769z M84.577,109.504c-1.321,0-2.181,0.617-2.775,1.542v-1.277h-2.27v10.532
				h2.291v-5.905c0-1.741,0.749-2.71,2.248-2.71c0.463,0,0.947,0.065,1.432,0.265l0.705-2.16
				C85.701,109.592,85.04,109.504,84.577,109.504L84.577,109.504z M55.031,110.605c-1.102-0.727-2.624-1.102-4.297-1.102
				c-2.667,0-4.384,1.277-4.384,3.372c0,1.718,1.278,2.775,3.635,3.105l1.081,0.154c1.254,0.177,1.851,0.507,1.851,1.103
				c0,0.814-0.839,1.277-2.402,1.277c-1.587,0-2.733-0.507-3.504-1.102l-1.08,1.785c1.257,0.925,2.843,1.366,4.562,1.366
				c3.04,0,4.803-1.433,4.803-3.438c0-1.851-1.388-2.82-3.679-3.152l-1.081-0.153c-0.992-0.132-1.784-0.33-1.784-1.035
				c0-0.771,0.749-1.234,2.003-1.234c1.345,0,2.645,0.507,3.285,0.903L55.031,110.605z M116.417,109.504
				c-1.322,0-2.182,0.617-2.775,1.542v-1.277h-2.271v10.532h2.291v-5.905c0-1.741,0.749-2.71,2.248-2.71
				c0.463,0,0.947,0.065,1.433,0.265l0.705-2.16C117.541,109.592,116.88,109.504,116.417,109.504L116.417,109.504z M86.892,115.034
				c0,3.195,2.226,5.531,5.618,5.531c1.586,0,2.644-0.353,3.79-1.257l-1.102-1.851c-0.859,0.617-1.763,0.946-2.754,0.946
				c-1.829-0.021-3.173-1.344-3.173-3.37s1.344-3.349,3.173-3.371c0.991,0,1.895,0.329,2.754,0.948l1.102-1.852
				c-1.146-0.904-2.204-1.256-3.79-1.256C89.117,109.504,86.892,111.839,86.892,115.034L86.892,115.034z M108.353,115.034v-5.266
				h-2.292v1.277c-0.727-0.947-1.828-1.542-3.327-1.542c-2.953,0-5.266,2.313-5.266,5.53s2.313,5.531,5.266,5.531
				c1.499,0,2.601-0.596,3.327-1.542v1.277h2.292V115.034z M99.825,115.034c0-1.852,1.213-3.371,3.196-3.371
				c1.894,0,3.171,1.454,3.171,3.371s-1.277,3.37-3.171,3.37C101.038,118.404,99.825,116.885,99.825,115.034L99.825,115.034z
				 M72.172,109.504c-3.084,0-5.243,2.247-5.243,5.53c0,3.35,2.248,5.531,5.398,5.531c1.586,0,3.041-0.397,4.317-1.478l-1.123-1.696
				c-0.881,0.706-2.005,1.102-3.063,1.102c-1.476,0-2.819-0.684-3.15-2.578h7.822c0.022-0.286,0.045-0.572,0.045-0.881
				C77.152,111.751,75.124,109.504,72.172,109.504L72.172,109.504z M72.129,111.553c1.477,0,2.424,0.925,2.665,2.556H69.33
				C69.572,112.588,70.498,111.553,72.129,111.553L72.129,111.553z M129.616,115.034v-9.496h-2.292v5.508
				c-0.728-0.947-1.829-1.542-3.327-1.542c-2.953,0-5.266,2.313-5.266,5.53s2.313,5.531,5.266,5.531c1.498,0,2.6-0.596,3.327-1.542
				v1.277h2.292V115.034z M121.089,115.034c0-1.852,1.211-3.371,3.194-3.371c1.896,0,3.173,1.454,3.173,3.371
				s-1.277,3.37-3.173,3.37C122.3,118.404,121.089,116.885,121.089,115.034L121.089,115.034z M43.704,115.034v-5.266h-2.292v1.277
				c-0.727-0.947-1.829-1.542-3.327-1.542c-2.953,0-5.266,2.313-5.266,5.53s2.313,5.531,5.266,5.531c1.498,0,2.6-0.596,3.327-1.542
				v1.277h2.292V115.034z M35.178,115.034c0-1.852,1.211-3.371,3.194-3.371c1.896,0,3.173,1.454,3.173,3.371s-1.277,3.37-3.173,3.37
				C36.39,118.404,35.178,116.885,35.178,115.034z M133.436,118.773c0.146,0,0.285,0.028,0.414,0.083s0.242,0.129,0.34,0.225
				c0.096,0.095,0.172,0.205,0.228,0.334c0.056,0.127,0.083,0.262,0.083,0.406c0,0.143-0.027,0.279-0.083,0.405
				s-0.132,0.236-0.228,0.331c-0.098,0.096-0.211,0.17-0.34,0.227c-0.129,0.056-0.268,0.084-0.414,0.084
				c-0.15,0-0.292-0.028-0.423-0.084c-0.13-0.057-0.244-0.131-0.339-0.227c-0.097-0.095-0.172-0.205-0.228-0.331
				c-0.055-0.126-0.084-0.263-0.084-0.405c0-0.145,0.029-0.279,0.084-0.406c0.056-0.129,0.131-0.239,0.228-0.334
				c0.095-0.096,0.209-0.17,0.339-0.225C133.144,118.802,133.285,118.773,133.436,118.773z M133.436,120.638
				c0.113,0,0.218-0.022,0.315-0.064c0.098-0.043,0.184-0.101,0.257-0.175c0.074-0.073,0.131-0.16,0.173-0.259
				c0.041-0.101,0.063-0.205,0.063-0.318c0-0.112-0.022-0.219-0.063-0.319c-0.042-0.099-0.099-0.184-0.173-0.258
				c-0.073-0.073-0.159-0.133-0.257-0.174c-0.098-0.042-0.202-0.063-0.315-0.063c-0.114,0-0.223,0.021-0.322,0.063
				c-0.101,0.041-0.187,0.101-0.261,0.174c-0.073,0.074-0.131,0.159-0.174,0.258c-0.041,0.101-0.062,0.207-0.062,0.319
				c0,0.113,0.021,0.218,0.062,0.318c0.043,0.099,0.101,0.186,0.174,0.259c0.074,0.074,0.16,0.132,0.261,0.175
				C133.213,120.615,133.321,120.638,133.436,120.638z M133.497,119.33c0.125,0,0.221,0.028,0.289,0.085
				c0.067,0.056,0.101,0.131,0.101,0.227c0,0.079-0.026,0.146-0.081,0.199c-0.054,0.051-0.13,0.083-0.229,0.096l0.317,0.367h-0.249
				l-0.294-0.365h-0.096v0.365h-0.208v-0.974H133.497z M133.256,119.514v0.259h0.239c0.054,0,0.099-0.011,0.13-0.032
				c0.032-0.021,0.049-0.055,0.049-0.099c0-0.043-0.017-0.075-0.049-0.097c-0.031-0.021-0.076-0.031-0.13-0.031H133.256z"/>
		</g>
		<g id="XMLID_328_">
			<rect x="54.269" y="29.501" fill="#FF5F00" width="34.708" height="62.373"/>
			<path id="XMLID_330_" fill="#EB001B" d="M56.473,60.687c0-12.654,5.925-23.922,15.15-31.186
				c-6.748-5.312-15.26-8.481-24.514-8.481c-21.906,0-39.665,17.76-39.665,39.667c0,21.908,17.759,39.667,39.665,39.667
				c9.254,0,17.767-3.168,24.514-8.479C62.397,84.61,56.473,73.342,56.473,60.687z"/>
			<path fill="#F79E1B" d="M135.801,60.687c0,21.908-17.759,39.667-39.664,39.667c-9.253,0-17.767-3.168-24.514-8.479
				c9.226-7.264,15.149-18.532,15.149-31.187c0-12.654-5.924-23.922-15.149-31.186c6.747-5.312,15.261-8.481,24.514-8.481
				C118.042,21.02,135.801,38.78,135.801,60.687z M132.017,85.268v-1.276h0.514V83.73h-1.31v0.261h0.515v1.276H132.017z
				 M134.563,85.268v-1.54h-0.402l-0.463,1.059l-0.462-1.059h-0.401v1.54h0.283v-1.162l0.434,1.002h0.294l0.435-1.004v1.164H134.563
				z"/>
		</g>
	</g>
</g>
</svg>
