<?xml version="1.0" encoding="utf-8"?>
<!-- Generator: Adobe Illustrator 21.0.0, SVG Export Plug-In . SVG Version: 6.00 Build 0)  -->
<svg version="1.1" id="Layer_1" xmlns="http://www.w3.org/2000/svg" xmlns:xlink="http://www.w3.org/1999/xlink" x="0px" y="0px"
	 viewBox="0 0 75 67" style="enable-background:new 0 0 75 67;" xml:space="preserve">
<style type="text/css">
	.st0{fill:#133977;}
	.st1{fill:none;stroke:#133977;stroke-width:1.5;stroke-miterlimit:10;}
	.st2{fill:none;stroke:#133977;stroke-miterlimit:10;}
	.st3{fill:#FFFFFF;stroke:#133977;stroke-width:1.5;stroke-miterlimit:10;}
	.st4{fill:none;stroke:#133977;stroke-width:0.5;stroke-miterlimit:10;}
</style>
<g id="Layer_1_1_">
	<title>f3</title>
	<g>
		<path class="st0" d="M-89.7,50.1V29.6l0.1-0.1c0-0.2,0.1-0.4,0.2-0.5c0.2-0.5,0.6-0.8,1-1.1c0.4-0.3,0.9-0.4,1.4-0.4h6.9v-0.4
			c0-4.7,0-9.3,0-13.9c0-0.3,0.1-0.5,0.1-0.8c0.1-0.5,0.4-0.9,0.8-1.2c0.2-0.2,0.4-0.3,0.6-0.3c0.1,0,0.3-0.1,0.4-0.2h52.6l0.1,0.1
			c0.1,0,0.3,0,0.4,0.1c0.4,0.2,0.7,0.4,0.9,0.7c0.2,0.3,0.4,0.6,0.4,0.9h0.1v22.7l-0.1,0.1c0,0.1,0,0.3-0.1,0.4
			c-0.2,0.4-0.4,0.7-0.7,0.9c-0.4,0.3-0.9,0.5-1.3,0.5h-19.7v6.2h12.7c0.3,0,0.6,0,0.8,0.1c0.1,0.1,0.3,0.1,0.5,0.2
			c0.5,0.2,0.9,0.6,1.2,1c0.3,0.4,0.4,0.9,0.5,1.4c0,6.6,0,13.2,0,19.8c0,0.8-0.4,1.5-1,1.9c-0.3,0.3-0.7,0.5-1.2,0.6l-0.1,0.1
			h-39.4l-0.1-0.1c-0.2,0-0.5-0.1-0.6-0.2c-0.4-0.2-0.8-0.5-1.1-0.9c-0.3-0.4-0.4-0.8-0.5-1.3c0-4.3,0-8.6,0-12.9
			c0-0.5,0-0.5-0.5-0.5h-12.7c-0.6,0-1.3-0.3-1.7-0.8c-0.2-0.2-0.4-0.4-0.5-0.7C-89.5,50.7-89.6,50.5-89.7,50.1
			C-89.6,50.2-89.6,50.1-89.7,50.1z M-71.5,65.5c0.2,0.2,0.4,0.3,0.7,0.2h38.2l0.3-0.3V54.5c0-2.8,0-5.5,0-8.3
			c0-0.2-0.1-0.4-0.2-0.6H-71c-0.4,0-0.4,0-0.4,0.4c0,4.5,0,9,0,13.5L-71.5,65.5L-71.5,65.5z M-26.2,30V17.2h-11.7v-2h11.7v-2.3
			h-39.6v2.9c0,0.4,0,0.9,0,1.3c0,0.1-0.1,0.2-0.2,0.2h-0.1h-3.5c-0.1,0-0.2-0.1-0.2-0.2l0,0c0-0.1,0-0.2,0-0.2v-4h-7.8v14.4h13.9
			c0-0.2,0-0.3,0-0.5s0.1-0.3,0.1-0.5c0-0.4,0.1-0.8,0.1-1.2V25c0.1-0.3,0.3-0.6,0.5-0.8c0.3-0.3,0.7-0.5,1.1-0.4c0.2,0,0.3,0,0.6,0
			l-0.1-0.2c-0.1-0.1-0.1-0.3-0.2-0.5c-0.1-0.2-0.1-0.4-0.1-0.5c0-0.2,0-0.4-0.1-0.6c0-0.3-0.1-0.6-0.1-0.9c0-0.2,0-0.4-0.1-0.6
			c-0.1-0.4-0.1-0.8-0.2-1.3c0-0.2,0-0.4-0.1-0.6c0-0.2-0.1-0.4-0.1-0.6c-0.1-0.5,0-1,0.2-1.4c0.1-0.4,0.3-0.8,0.5-1.1
			c0.2-0.4,0.5-0.7,0.9-0.9c0.2-0.1,0.4-0.2,0.6-0.2h4c0.1,0,0.2,0,0.2,0c0.3,0.3,0.5,0.4,0.7,0.6c0.4,0.4,0.7,0.8,0.8,1.3
			c0.2,0.4,0.3,0.8,0.3,1.3v0.1c0,0.1,0,0.1,0,0.2s0,0.1,0,0.2c0,0.3-0.1,0.6-0.1,0.9c-0.1,0.1-0.1,0.3-0.1,0.5
			c0,0.1-0.1,0.3-0.1,0.5c0,0.3,0,0.6-0.1,0.9c0,0.2,0,0.4-0.1,0.6s-0.1,0.3-0.1,0.5s-0.1,0.4-0.1,0.5c0,0.4-0.1,0.7-0.2,1.1
			c0,0.1-0.1,0.1-0.1,0.2c0.3,0,0.5,0,0.7,0c0.3,0,0.6,0.1,0.9,0.2c0.2,0.1,0.3,0.2,0.5,0.4c0.2,0.2,0.3,0.5,0.4,0.8
			c0.1,0.3,0,0.5,0.1,0.8c0.1,0.4,0.1,0.8,0.1,1.2v0.1c0,0.1,0.1,0.1,0.2,0.2c0.1,0,0.2,0,0.3,0h3.7c0.5,0,0.9,0.1,1.3,0.4
			c0.4,0.3,0.8,0.6,1,1.1c0.2,0.4,0.3,0.8,0.3,1.2L-26.2,30L-26.2,30z M-87.2,38.7v11l0.2,0.2h13.1v-0.5c0-1.3,0-2.6,0-3.9
			c0-0.1,0-0.2,0-0.3c0.2-0.6,0.5-1,1-1.4c0.3-0.2,0.6-0.4,1-0.5s0.7-0.2,1.1-0.2H-48v-4.4C-48,38.7-87.2,38.7-87.2,38.7z M-48,34
			h-39.2c0,1,0,3.7,0,4h39.1L-48,34L-48,34z M-48.3,29.8H-87l-0.2,0.2v3.3c1.4,0.1,38.8,0,39.2,0V30L-48.3,29.8z M-45.6,34.4h19.4
			c0.1-1.3,0-3.5,0-3.8h-19.4V34.4L-45.6,34.4z M-60.1,15.8c-0.2,0.2-0.3,0.4-0.5,0.6c-0.2,0.3-0.4,0.6-0.5,1
			c-0.1,0.2-0.1,0.4-0.1,0.6s0,0.4,0.1,0.5s0,0.4,0.1,0.6c0,0.1,0.1,0.3,0.1,0.4s0.1,0.3,0.1,0.4c0,0.3,0,0.6,0.1,0.9
			c0.1,0.2,0,0.4,0.1,0.6c0,0.1,0.1,0.2,0.1,0.3c0,0.1,0.1,0.3,0.1,0.4s0,0.3,0,0.4s0,0.2,0.1,0.3c0.1,0.5,0.5,0.8,1,0.9
			c0.8,0,1.6,0,2.4,0c0.5,0,1-0.5,1-1c0.1-0.2,0.1-0.5,0.1-0.7c0.1-0.1,0.1-0.2,0.1-0.4c0-0.1,0.1-0.3,0.1-0.4c0-0.2,0-0.4,0.1-0.6
			s0-0.4,0.1-0.6s0-0.4,0.1-0.6s0.1-0.6,0.1-0.9v-0.1c0.2-0.9-0.1-1.8-0.8-2.5L-60.1,15.8L-60.1,15.8z M-54.2,25H-62
			c-0.1,0.1-0.2,0.1-0.2,0.2c-0.1,0.1-0.1,0.2-0.1,0.3c0,0.3,0,0.7-0.1,1c0,0.2,0,0.4-0.1,0.7c0,0.1,0,0.1,0,0.2h8.9
			c0-0.1,0-0.3,0-0.4c-0.1-0.2-0.1-0.4-0.1-0.5c0-0.2-0.1-0.4-0.1-0.6C-53.8,25.5-53.9,25.2-54.2,25z"/>
		<path class="st0" d="M-47.5,59.4c0-0.6,0.1-1.3,0.5-1.8c0.1-0.1,0.2-0.3,0.3-0.4c0.5-0.6,1.2-1.1,2-1.3c0.1,0,0.2-0.1,0.3-0.1
			c0.4,0,0.8,0,1.2,0c0.5,0.1,1,0.3,1.4,0.6c0.1,0.1,0.3,0.1,0.5,0c0.5-0.3,1.1-0.4,1.7-0.4c0.8,0,1.5,0.4,2.1,0.9
			c0.3,0.3,0.5,0.5,0.7,0.9c0.1,0.3,0.2,0.6,0.3,0.9c0,0.2,0.1,0.4,0.1,0.7c0,0.5-0.1,0.9-0.3,1.4c-0.1,0.3-0.3,0.5-0.5,0.7
			c-0.2,0.3-0.5,0.5-0.8,0.8c-0.4,0.2-0.8,0.4-1.2,0.5c-0.3,0.1-0.5,0.1-0.8,0.1c-0.4,0-0.9-0.1-1.2-0.3c-0.2-0.2-0.4-0.2-0.5,0
			c-0.3,0.2-0.6,0.4-0.9,0.4c-0.2,0.1-0.4,0.1-0.6,0.1c-0.1,0-0.3,0-0.4,0.1l0,0c-0.1,0-0.2,0-0.3,0s-0.3,0-0.4,0
			c-0.1,0-0.2-0.1-0.3-0.1c-0.7-0.2-1.4-0.7-1.8-1.3c-0.3-0.4-0.5-0.9-0.6-1.4c0-0.1-0.1-0.3-0.1-0.4
			C-47.5,59.7-47.5,59.6-47.5,59.4z M-41.1,57.1c0.5,0.6,0.8,1.5,0.8,2.3s-0.3,1.6-0.8,2.3c1.1,0.7,2.5,0.4,3.3-0.6
			c0.9-1,0.9-2.6-0.1-3.5c-0.4-0.4-1-0.7-1.6-0.8c-0.4-0.1-0.7,0-1.1,0.1C-40.7,56.9-40.9,57-41.1,57.1L-41.1,57.1z M-42.5,57.5
			c-1-0.8-2.5-0.5-3.3,0.5c-0.2,0.4-0.4,0.7-0.5,1.1c-0.1,0.6,0.1,1.2,0.5,1.7c0.8,1,2.2,1.2,3.2,0.5
			C-43.3,60.2-43.3,58.6-42.5,57.5L-42.5,57.5z M-42,57.9c-0.2,0.3-0.3,0.7-0.4,1c-0.1,0.3-0.1,0.7,0,1c0.1,0.4,0.2,0.7,0.4,1
			c0.3-0.4,0.5-1,0.5-1.5C-41.5,58.8-41.7,58.3-42,57.9L-42,57.9z"/>
		<path class="st0" d="M-67.4,49.6h7.3c0.1,0,0.2,0,0.2,0c0.1,0,0.2,0.1,0.2,0.2l0,0c0,0.1,0,0.2,0,0.2v4.7h-7.7V49.6z M-64,50.9
			v2.6h1v-2.6H-64z M-65.3,53.5h0.6c0.1,0,0.2-0.1,0.2-0.2c0,0,0,0,0-0.1c0-0.2,0-0.5,0-0.7c0-0.1-0.1-0.2-0.2-0.2l0,0H-66
			c-0.1,0-0.2,0.1-0.2,0.2l0,0c0,0.2,0,0.5,0,0.7c0,0.1,0.1,0.2,0.2,0.2l0,0C-66,53.5-65.3,53.5-65.3,53.5z M-66.2,50.9V52
			c0.6,0,1.1,0,1.7,0v-1L-66.2,50.9L-66.2,50.9z M-61,53.5v-1.1c-0.5,0-1,0-1.5,0v1.1H-61L-61,53.5z M-62.5,50.9v1h1.5v-1H-62.5
			L-62.5,50.9z"/>
		<path class="st0" d="M-30.3,20.5h0.8c0.1,0,0.2,0.1,0.2,0.2l0,0c0,0.2-0.1,0.4-0.2,0.5H-30v0.9h0.5c0.1,0,0.2,0.1,0.2,0.2l0,0
			c0.1,0.2-0.1,0.4-0.2,0.4h-0.1h-0.7c-0.1,0.2-0.2,0.3-0.3,0.5c-0.4,0.5-0.9,0.8-1.4,1c-0.2,0-0.3,0.1-0.5,0.1
			c-0.8,0.1-1.7,0.1-2.5,0.1v3h1c0.2,0.1,0.3,0.3,0.2,0.5c0,0.1-0.1,0.2-0.2,0.2l0,0h-2.8l-0.2-0.3c0-0.2,0.3-0.4,0.5-0.3h0.8v-3
			c-0.2,0-0.4,0-0.7,0s-0.6-0.1-0.6-0.4l0.3-0.3h1v-1c-0.3,0-0.6,0-0.8,0s-0.4-0.1-0.4-0.3c0-0.1,0-0.1,0.1-0.2l0.1-0.2h1.1v-0.9
			h-0.9c-0.1,0-0.2,0-0.3-0.1s-0.1-0.1-0.2-0.2l0.1-0.2l0.1-0.2h1.1c0-0.3,0-0.6,0-0.9c0-0.1-0.1-0.2-0.2-0.2H-36h-0.9
			c0-0.1-0.1-0.1-0.1-0.2s-0.2-0.2,0-0.3c0.1-0.1,0.2-0.1,0.3-0.2h0.2c1.1,0,2.3,0,3.4,0c1,0,2,0.5,2.5,1.4c0.1,0.1,0.1,0.2,0.2,0.3
			C-30.3,20.4-30.3,20.4-30.3,20.5z M-31.1,20.5C-31.1,20.5-31.1,20.4-31.1,20.5c-0.2-0.3-0.3-0.4-0.5-0.6s-0.3-0.3-0.6-0.4
			c-0.2-0.1-0.5-0.1-0.7-0.1c-0.7,0-1.5,0-2.2,0c0,0.2,0,0.4,0,0.6s0,0.4,0,0.5H-31.1L-31.1,20.5z M-30.7,21.2H-35v0.9h4.2
			C-30.7,21.8-30.7,21.5-30.7,21.2L-30.7,21.2z M-31.1,22.7h-4v1h2.5h0.1C-31.9,23.5-31.4,23.2-31.1,22.7L-31.1,22.7z"/>
		<path class="st0" d="M-73.7,16.5v10.3h-1.5c-0.1,0-0.2-0.1-0.2-0.2l0,0c0-0.1,0-0.1,0-0.2v-9.5c0,0,0-0.1,0-0.2s0-0.2,0.2-0.2
			c0,0,0,0,0.1,0L-73.7,16.5L-73.7,16.5z"/>
		<path class="st0" d="M-80.4,40.2h11.7v1.4h-11.4c-0.1,0-0.2,0-0.2-0.2v-0.1C-80.4,40.9-80.4,40.6-80.4,40.2z"/>
		<path class="st0" d="M-29.4,31.8V33h-10.2v-1.2H-29.4z"/>
	</g>
</g>
<g>
	<g>
		<path class="st1" d="M73.2,29.4H12.7c-0.3,0-0.5-0.2-0.5-0.5V2.5c0-0.3,0.2-0.5,0.5-0.5h60.5c0.3,0,0.5,0.2,0.5,0.5v26.4
			C73.7,29.2,73.5,29.4,73.2,29.4z"/>
		<g>
			<path class="st2" d="M37,16.3h-2.5c-1.1,0-2-0.9-2-2l-0.8-5.2c0-1.1,1-3.1,2.1-3.1h3.9c1.1,0,2,2,2,3.1L39,14.3
				C39,15.4,38.1,16.3,37,16.3z"/>
			<path class="st2" d="M41.1,27.1H30.8c-0.7,0-1.3-0.6-1.3-1.3l0.8-8.1c0-0.7,0.6-1.3,1.3-1.3h8.6c0.7,0,1.3,0.6,1.3,1.3l0.9,8.1
				C42.4,26.5,41.8,27.1,41.1,27.1z"/>
		</g>
		<rect x="12.9" y="23" class="st0" width="16.6" height="0.6"/>
		<rect x="42.2" y="23" class="st0" width="31" height="0.6"/>
		<rect x="57" y="25" class="st0" width="11.7" height="1.3"/>
		<rect x="16.3" y="7.5" class="st0" width="1.9" height="11.7"/>
		<rect x="22.6" y="2" class="st0" width="4.4" height="6.5"/>
		<rect x="59" y="6.1" class="st0" width="13.4" height="2.2"/>
		<rect x="22.6" y="25.3" class="st0" width="4.4" height="3.2"/>
		<g>
			<path class="st0" d="M63.2,20c0.2,0,0.4,0.2,0.4,0.4c0,0.2-0.2,0.4-0.4,0.4h-2.8c-0.2,0-0.4-0.2-0.4-0.4c0-0.2,0.2-0.4,0.4-0.4
				H63.2z"/>
			<path class="st0" d="M64.6,16.5c-0.2,0-0.4-0.2-0.4-0.4c0-0.2,0.2-0.4,0.4-0.4c0.7,0,1.3-0.3,1.8-0.7l0,0
				c0.4-0.4,0.7-1.1,0.7-1.7c0-0.7-0.3-1.3-0.7-1.8l0,0c-0.4-0.4-1.1-0.7-1.7-0.7h-4.3c-0.2,0-0.4-0.2-0.4-0.4s0.2-0.4,0.4-0.4h4.3
				c0.9,0,1.7,0.4,2.2,0.9l0,0c0.6,0.6,0.9,1.4,0.9,2.3c0,0.9-0.3,1.7-0.9,2.2l0,0C66.3,16.1,65.5,16.5,64.6,16.5z"/>
			<path class="st0" d="M60.4,16.5c-0.2,0-0.4-0.2-0.4-0.4c0-0.2,0.2-0.4,0.4-0.4h4.3c0.2,0,0.4,0.2,0.4,0.4c0,0.2-0.2,0.4-0.4,0.4
				H60.4z"/>
			<path class="st0" d="M62.1,20.4c0,0.2-0.2,0.4-0.4,0.4s-0.4-0.2-0.4-0.4v-10c0-0.2,0.2-0.4,0.4-0.4s0.4,0.2,0.4,0.4V20.4z"/>
			<path class="st0" d="M60.4,12.8c-0.2,0-0.4-0.2-0.4-0.4s0.2-0.4,0.4-0.4h8c0.2,0,0.4,0.2,0.4,0.4s-0.2,0.4-0.4,0.4H60.4z"/>
			<path class="st0" d="M60.4,14.5c-0.2,0-0.4-0.2-0.4-0.4s0.2-0.4,0.4-0.4h8c0.2,0,0.4,0.2,0.4,0.4s-0.2,0.4-0.4,0.4H60.4z"/>
		</g>
	</g>
	<g>
		<path class="st3" d="M48.1,47H1.9c-0.4,0-0.6-0.3-0.6-0.6V21.9c0-0.4,0.3-0.6,0.6-0.6h46.2c0.4,0,0.6,0.3,0.6,0.6v24.4
			C48.8,46.7,48.5,47,48.1,47z"/>
		<rect x="1.3" y="26.7" class="st0" width="47.5" height="0.7"/>
		<rect x="1.3" y="32" class="st0" width="47.5" height="0.8"/>
		<rect x="10.6" y="34.5" class="st0" width="13.3" height="1.5"/>
	</g>
	<g>
		<path class="st3" d="M66.1,65H19.9c-0.4,0-0.6-0.3-0.6-0.6V39.9c0-0.4,0.3-0.6,0.6-0.6h46.2c0.4,0,0.6,0.3,0.6,0.6v24.4
			C66.7,64.7,66.4,65,66.1,65z"/>
		<g>
			<rect x="26" y="46" class="st4" width="7.4" height="4.4"/>
			<rect x="26.3" y="48" class="st0" width="2.8" height="0.4"/>
			<rect x="30.6" y="48" class="st0" width="2.9" height="0.4"/>
			<g>
				<rect x="28.7" y="45.9" class="st0" width="0.4" height="4.8"/>
				<rect x="30.5" y="45.8" class="st0" width="0.4" height="4.8"/>
			</g>
		</g>
		<g>
			<circle class="st4" cx="52.2" cy="56.5" r="3.4"/>
			<circle class="st4" cx="56.8" cy="56.5" r="3.4"/>
		</g>
	</g>
</g>
</svg>
