<?xml version="1.0" encoding="utf-8"?>
<!-- Generator: Adobe Illustrator 21.0.0, SVG Export Plug-In . SVG Version: 6.00 Build 0)  -->
<svg version="1.1" id="Layer_1" xmlns="http://www.w3.org/2000/svg" xmlns:xlink="http://www.w3.org/1999/xlink" x="0px" y="0px"
	 viewBox="0 0 75 67" style="enable-background:new 0 0 75 67;" xml:space="preserve">
<style type="text/css">
	.st0{fill:#1F417F;}
</style>
<title>f4</title>
<g>
	<g>
		<path class="st0" d="M70.7,58H4.3c-2,0-3.6-1.6-3.6-3.6V12.6c0-2,1.6-3.6,3.6-3.6h66.3c2,0,3.6,1.6,3.6,3.6v41.9
			C74.2,56.4,72.6,58,70.7,58z M4.3,11.3c-0.7,0-1.3,0.6-1.3,1.3v41.9c0,0.7,0.6,1.2,1.3,1.2h66.3c0.7,0,1.2-0.6,1.2-1.2V12.6
			c0-0.7-0.6-1.3-1.2-1.3H4.3z"/>
	</g>
	<g>
		<path class="st0" d="M67.9,53H7.1c-0.9,0-1.7-0.8-1.7-1.7V15.7c0-0.9,0.8-1.7,1.7-1.7h60.7c0.9,0,1.7,0.8,1.7,1.7v35.6
			C69.6,52.2,68.8,53,67.9,53z M7.1,14.6c-0.6,0-1.1,0.5-1.1,1.1v35.6c0,0.6,0.5,1.1,1.1,1.1h60.7c0.6,0,1.1-0.5,1.1-1.1V15.7
			c0-0.6-0.5-1.1-1.1-1.1H7.1z"/>
	</g>
	<rect x="8.4" y="16.9" class="st0" width="1.5" height="32.4"/>
	
		<rect x="36.8" y="20.1" transform="matrix(9.255956e-11 1 -1 9.255956e-11 86.9446 11.7255)" class="st0" width="1.5" height="58.5"/>
	<g>
		<path class="st0" d="M14.9,46.6c-1.5,0-2.7-1.2-2.7-2.7c0-1.5,1.2-2.7,2.7-2.7s2.7,1.2,2.7,2.7C17.5,45.4,16.3,46.6,14.9,46.6z
			 M14.9,42.4c-0.8,0-1.5,0.7-1.5,1.5c0,0.8,0.7,1.5,1.5,1.5c0.8,0,1.5-0.7,1.5-1.5C16.4,43.1,15.7,42.4,14.9,42.4z"/>
	</g>
	<g>
		<path class="st0" d="M33.2,43.8c-1.5,0-2.7-1.2-2.7-2.7c0-1.5,1.2-2.7,2.7-2.7c1.5,0,2.7,1.2,2.7,2.7
			C35.9,42.6,34.7,43.8,33.2,43.8z M33.2,39.6c-0.8,0-1.5,0.7-1.5,1.5c0,0.8,0.7,1.5,1.5,1.5c0.8,0,1.5-0.7,1.5-1.5
			C34.7,40.3,34,39.6,33.2,39.6z"/>
	</g>
	<g>
		<path class="st0" d="M42.5,32c-1.5,0-2.7-1.2-2.7-2.7s1.2-2.7,2.7-2.7c1.5,0,2.7,1.2,2.7,2.7S44,32,42.5,32z M42.5,27.8
			c-0.8,0-1.5,0.7-1.5,1.5c0,0.8,0.7,1.5,1.5,1.5s1.5-0.7,1.5-1.5C44,28.5,43.3,27.8,42.5,27.8z"/>
	</g>
	<g>
		<path class="st0" d="M52.6,38c-1.5,0-2.7-1.2-2.7-2.7s1.2-2.7,2.7-2.7s2.7,1.2,2.7,2.7S54,38,52.6,38z M52.6,33.9
			c-0.8,0-1.5,0.7-1.5,1.5s0.7,1.5,1.5,1.5s1.5-0.7,1.5-1.5S53.4,33.9,52.6,33.9z"/>
	</g>
	<g>
		<path class="st0" d="M62.9,28.6c-1.5,0-2.7-1.2-2.7-2.7c0-1.5,1.2-2.7,2.7-2.7c1.5,0,2.7,1.2,2.7,2.7
			C65.6,27.4,64.4,28.6,62.9,28.6z M62.9,24.5c-0.8,0-1.5,0.7-1.5,1.5c0,0.8,0.7,1.5,1.5,1.5c0.8,0,1.5-0.7,1.5-1.5
			C64.4,25.1,63.8,24.5,62.9,24.5z"/>
	</g>
	<g>
		<path class="st0" d="M23.7,37.4c-1.5,0-2.7-1.2-2.7-2.7c0-1.5,1.2-2.7,2.7-2.7s2.7,1.2,2.7,2.7C26.4,36.2,25.2,37.4,23.7,37.4z
			 M23.7,33.3c-0.8,0-1.5,0.7-1.5,1.5c0,0.8,0.7,1.5,1.5,1.5c0.8,0,1.5-0.7,1.5-1.5C25.2,34,24.6,33.3,23.7,33.3z"/>
	</g>
	<g>
		
			<rect x="14.5" y="38.9" transform="matrix(0.6993 -0.7149 0.7149 0.6993 -22.4269 25.6404)" class="st0" width="9.4" height="1.2"/>
	</g>
	<g>
		
			<rect x="28.2" y="34.5" transform="matrix(0.5691 -0.8223 0.8223 0.5691 -19.0432 40.1277)" class="st0" width="1.2" height="7.5"/>
	</g>
	<g>
		
			<rect x="32.6" y="34.9" transform="matrix(0.6256 -0.7801 0.7801 0.6256 -13.5036 42.791)" class="st0" width="10.4" height="1.2"/>
	</g>
	<g>
		
			<rect x="47.2" y="28.3" transform="matrix(0.5387 -0.8425 0.8425 0.5387 -4.9877 55.0223)" class="st0" width="1.2" height="7.6"/>
	</g>
	<g>
		<polygon class="st0" points="54.6,34.5 53.8,33.7 61.2,26.8 62,27.7 		"/>
	</g>
</g>
</svg>
