<?xml version="1.0" encoding="utf-8"?>
<!-- Generator: Adobe Illustrator 16.0.0, SVG Export Plug-In . SVG Version: 6.00 Build 0)  -->
<!DOCTYPE svg PUBLIC "-//W3C//DTD SVG 1.1//EN" "http://www.w3.org/Graphics/SVG/1.1/DTD/svg11.dtd">
<svg version="1.1" id="Layer_1" xmlns="http://www.w3.org/2000/svg" xmlns:xlink="http://www.w3.org/1999/xlink" x="0px" y="0px"
	 width="197.333px" height="30.333px" viewBox="0 0 197.333 30.333" enable-background="new 0 0 197.333 30.333"
	 xml:space="preserve">
<g>
	<g>
		<path fill="#FFFFFF" d="M6.098,19.459c0.634,0.39,1.56,0.715,2.535,0.715c1.446,0,2.291-0.764,2.291-1.868
			c0-1.024-0.585-1.609-2.063-2.178c-1.788-0.634-2.893-1.561-2.893-3.104c0-1.706,1.413-2.974,3.542-2.974
			c1.121,0,1.935,0.26,2.422,0.536l-0.391,1.154c-0.357-0.195-1.089-0.521-2.08-0.521c-1.495,0-2.063,0.895-2.063,1.642
			c0,1.023,0.666,1.527,2.178,2.112c1.853,0.715,2.795,1.609,2.795,3.218c0,1.69-1.251,3.152-3.835,3.152
			c-1.057,0-2.21-0.309-2.795-0.698L6.098,19.459z"/>
		<path fill="#FFFFFF" d="M15.15,17.509c0.032,1.934,1.268,2.73,2.697,2.73c1.024,0,1.642-0.179,2.178-0.406l0.244,1.023
			c-0.504,0.228-1.365,0.487-2.616,0.487c-2.422,0-3.868-1.592-3.868-3.965c0-2.372,1.397-4.241,3.689-4.241
			c2.567,0,3.25,2.259,3.25,3.705c0,0.292-0.033,0.52-0.049,0.666H15.15z M19.343,16.486c0.017-0.91-0.374-2.324-1.982-2.324
			c-1.446,0-2.08,1.333-2.193,2.324H19.343z"/>
		<path fill="#FFFFFF" d="M26.852,21.182l-0.113-0.991h-0.049c-0.438,0.617-1.284,1.17-2.405,1.17c-1.593,0-2.405-1.121-2.405-2.259
			c0-1.901,1.69-2.941,4.729-2.925v-0.163c0-0.649-0.179-1.819-1.788-1.819c-0.731,0-1.495,0.228-2.048,0.585l-0.324-0.943
			c0.649-0.422,1.592-0.698,2.583-0.698c2.405,0,2.99,1.642,2.99,3.218v2.941c0,0.683,0.033,1.349,0.13,1.885H26.852z
			 M26.641,17.168c-1.561-0.033-3.331,0.243-3.331,1.771c0,0.926,0.617,1.364,1.349,1.364c1.023,0,1.674-0.649,1.901-1.315
			c0.049-0.146,0.081-0.31,0.081-0.455V17.168z"/>
		<path fill="#FFFFFF" d="M30.331,15.771c0-0.927-0.017-1.723-0.065-2.454h1.251l0.049,1.544h0.065
			c0.357-1.057,1.219-1.723,2.178-1.723c0.162,0,0.276,0.017,0.406,0.049v1.349c-0.146-0.032-0.293-0.049-0.488-0.049
			c-1.007,0-1.722,0.764-1.917,1.836c-0.032,0.195-0.065,0.423-0.065,0.667v4.192h-1.413V15.771z"/>
		<path fill="#FFFFFF" d="M41.09,20.889c-0.374,0.195-1.202,0.455-2.259,0.455c-2.373,0-3.916-1.608-3.916-4.014
			c0-2.421,1.657-4.176,4.225-4.176c0.845,0,1.593,0.211,1.982,0.406l-0.324,1.104c-0.342-0.195-0.878-0.374-1.658-0.374
			c-1.804,0-2.778,1.333-2.778,2.975c0,1.819,1.17,2.941,2.729,2.941c0.813,0,1.349-0.212,1.755-0.391L41.09,20.889z"/>
		<path fill="#FFFFFF" d="M42.765,9.644h1.43v4.908h0.033c0.228-0.406,0.585-0.764,1.023-1.008c0.423-0.244,0.927-0.406,1.463-0.406
			c1.056,0,2.746,0.65,2.746,3.364v4.68h-1.43v-4.518c0-1.268-0.472-2.34-1.82-2.34c-0.927,0-1.658,0.649-1.918,1.43
			c-0.081,0.195-0.098,0.406-0.098,0.683v4.745h-1.43V9.644z"/>
		<path fill="#FFFFFF" d="M55.279,10.359c0.683-0.113,1.577-0.211,2.714-0.211c1.398,0,2.422,0.325,3.072,0.91
			c0.601,0.52,0.958,1.316,0.958,2.291c0,0.991-0.292,1.771-0.845,2.34c-0.747,0.797-1.967,1.203-3.348,1.203
			c-0.423,0-0.813-0.017-1.138-0.098v4.388h-1.414V10.359z M56.693,15.641c0.309,0.081,0.699,0.113,1.17,0.113
			c1.707,0,2.747-0.829,2.747-2.34c0-1.446-1.024-2.146-2.584-2.146c-0.618,0-1.089,0.049-1.333,0.114V15.641z"/>
		<path fill="#FFFFFF" d="M67.811,21.182l-0.113-0.991h-0.049c-0.438,0.617-1.284,1.17-2.405,1.17c-1.593,0-2.405-1.121-2.405-2.259
			c0-1.901,1.69-2.941,4.729-2.925v-0.163c0-0.649-0.179-1.819-1.788-1.819c-0.731,0-1.495,0.228-2.048,0.585l-0.324-0.943
			c0.649-0.422,1.592-0.698,2.583-0.698c2.405,0,2.99,1.642,2.99,3.218v2.941c0,0.683,0.033,1.349,0.13,1.885H67.811z M67.6,17.168
			c-1.561-0.033-3.331,0.243-3.331,1.771c0,0.926,0.617,1.364,1.349,1.364c1.023,0,1.674-0.649,1.901-1.315
			c0.049-0.146,0.081-0.31,0.081-0.455V17.168z"/>
		<path fill="#FFFFFF" d="M71.68,13.317l1.723,4.647c0.179,0.521,0.374,1.138,0.504,1.609h0.032
			c0.146-0.472,0.309-1.073,0.504-1.642l1.56-4.615h1.512l-2.146,5.606c-1.023,2.697-1.722,4.079-2.697,4.924
			c-0.698,0.617-1.397,0.861-1.755,0.927l-0.357-1.203c0.357-0.113,0.828-0.341,1.251-0.698c0.391-0.31,0.878-0.861,1.203-1.593
			c0.064-0.146,0.113-0.26,0.113-0.342c0-0.081-0.032-0.194-0.098-0.373l-2.908-7.248H71.68z"/>
		<path fill="#FFFFFF" d="M78.863,10.375c0.861-0.13,1.886-0.228,3.007-0.228c2.031,0,3.478,0.472,4.437,1.365
			c0.975,0.894,1.544,2.161,1.544,3.933c0,1.787-0.553,3.25-1.576,4.258c-1.024,1.023-2.714,1.576-4.843,1.576
			c-1.008,0-1.853-0.049-2.568-0.13V10.375z M80.277,20.061c0.357,0.064,0.878,0.081,1.431,0.081c3.022,0,4.663-1.69,4.663-4.647
			c0.017-2.584-1.446-4.226-4.436-4.226c-0.731,0-1.284,0.065-1.658,0.146V20.061z"/>
		<path fill="#FFFFFF" d="M96.822,17.184c0,2.909-2.016,4.177-3.917,4.177c-2.129,0-3.77-1.56-3.77-4.046
			c0-2.633,1.723-4.177,3.899-4.177C95.294,13.138,96.822,14.78,96.822,17.184z M90.582,17.266c0,1.723,0.991,3.022,2.389,3.022
			c1.365,0,2.389-1.284,2.389-3.056c0-1.332-0.666-3.022-2.356-3.022S90.582,15.771,90.582,17.266z"/>
		<path fill="#FFFFFF" d="M98.628,9.644h1.429v11.538h-1.429V9.644z"/>
		<path fill="#FFFFFF" d="M102.463,9.644h1.43v11.538h-1.43V9.644z"/>
		<path fill="#FFFFFF" d="M110.653,21.182l-0.113-0.991h-0.049c-0.438,0.617-1.283,1.17-2.404,1.17
			c-1.594,0-2.406-1.121-2.406-2.259c0-1.901,1.691-2.941,4.73-2.925v-0.163c0-0.649-0.18-1.819-1.789-1.819
			c-0.73,0-1.494,0.228-2.047,0.585l-0.324-0.943c0.648-0.422,1.592-0.698,2.584-0.698c2.404,0,2.99,1.642,2.99,3.218v2.941
			c0,0.683,0.031,1.349,0.129,1.885H110.653z M110.442,17.168c-1.559-0.033-3.33,0.243-3.33,1.771c0,0.926,0.617,1.364,1.348,1.364
			c1.023,0,1.674-0.649,1.902-1.315c0.049-0.146,0.08-0.31,0.08-0.455V17.168z"/>
		<path fill="#FFFFFF" d="M114.133,15.771c0-0.927-0.016-1.723-0.064-2.454h1.252l0.047,1.544h0.066
			c0.357-1.057,1.219-1.723,2.178-1.723c0.162,0,0.275,0.017,0.406,0.049v1.349c-0.146-0.032-0.293-0.049-0.488-0.049
			c-1.008,0-1.723,0.764-1.918,1.836c-0.031,0.195-0.064,0.423-0.064,0.667v4.192h-1.414V15.771z"/>
		<path fill="#FFFFFF" d="M132.172,16.372c-0.082-1.527-0.178-3.363-0.162-4.729h-0.049c-0.375,1.284-0.828,2.648-1.381,4.16
			l-1.934,5.313h-1.074l-1.771-5.216c-0.52-1.544-0.957-2.958-1.268-4.258h-0.031c-0.033,1.365-0.113,3.201-0.211,4.843
			l-0.293,4.696h-1.35l0.764-10.953h1.805l1.869,5.298c0.455,1.349,0.828,2.552,1.105,3.688h0.049
			c0.275-1.104,0.666-2.307,1.152-3.688l1.951-5.298h1.803l0.684,10.953h-1.383L132.172,16.372z"/>
		<path fill="#FFFFFF" d="M140.413,21.182l-0.113-0.991h-0.049c-0.438,0.617-1.283,1.17-2.404,1.17
			c-1.594,0-2.406-1.121-2.406-2.259c0-1.901,1.691-2.941,4.73-2.925v-0.163c0-0.649-0.18-1.819-1.789-1.819
			c-0.73,0-1.494,0.228-2.047,0.585l-0.324-0.943c0.648-0.422,1.592-0.698,2.584-0.698c2.404,0,2.99,1.642,2.99,3.218v2.941
			c0,0.683,0.031,1.349,0.129,1.885H140.413z M140.202,17.168c-1.559-0.033-3.33,0.243-3.33,1.771c0,0.926,0.617,1.364,1.348,1.364
			c1.023,0,1.674-0.649,1.902-1.315c0.049-0.146,0.08-0.31,0.08-0.455V17.168z"/>
		<path fill="#FFFFFF" d="M143.893,9.644h1.43v11.538h-1.43V9.644z"/>
		<path fill="#FFFFFF" d="M152.083,21.182l-0.113-0.991h-0.049c-0.438,0.617-1.283,1.17-2.404,1.17
			c-1.594,0-2.406-1.121-2.406-2.259c0-1.901,1.691-2.941,4.73-2.925v-0.163c0-0.649-0.18-1.819-1.789-1.819
			c-0.73,0-1.494,0.228-2.047,0.585l-0.324-0.943c0.648-0.422,1.592-0.698,2.584-0.698c2.404,0,2.99,1.642,2.99,3.218v2.941
			c0,0.683,0.031,1.349,0.129,1.885H152.083z M151.872,17.168c-1.559-0.033-3.33,0.243-3.33,1.771c0,0.926,0.617,1.364,1.348,1.364
			c1.023,0,1.674-0.649,1.902-1.315c0.049-0.146,0.08-0.31,0.08-0.455V17.168z"/>
		<path fill="#FFFFFF" d="M155.952,13.317l1.723,4.647c0.18,0.521,0.375,1.138,0.504,1.609h0.033
			c0.146-0.472,0.309-1.073,0.504-1.642l1.561-4.615h1.51l-2.145,5.606c-1.023,2.697-1.723,4.079-2.697,4.924
			c-0.699,0.617-1.398,0.861-1.756,0.927l-0.357-1.203c0.357-0.113,0.83-0.341,1.252-0.698c0.391-0.31,0.877-0.861,1.203-1.593
			c0.064-0.146,0.113-0.26,0.113-0.342c0-0.081-0.033-0.194-0.098-0.373l-2.908-7.248H155.952z"/>
		<path fill="#FFFFFF" d="M162.795,19.719c0.422,0.276,1.17,0.569,1.885,0.569c1.039,0,1.527-0.521,1.527-1.17
			c0-0.683-0.406-1.057-1.463-1.446c-1.414-0.504-2.08-1.284-2.08-2.227c0-1.268,1.023-2.308,2.715-2.308
			c0.795,0,1.494,0.228,1.934,0.487l-0.357,1.04c-0.309-0.195-0.879-0.455-1.609-0.455c-0.846,0-1.316,0.487-1.316,1.072
			c0,0.65,0.471,0.943,1.496,1.333c1.365,0.52,2.063,1.202,2.063,2.373c0,1.381-1.072,2.355-2.941,2.355
			c-0.861,0-1.656-0.211-2.209-0.536L162.795,19.719z"/>
		<path fill="#FFFFFF" d="M171.02,11.107c0.016,0.487-0.342,0.877-0.91,0.877c-0.504,0-0.861-0.39-0.861-0.877
			c0-0.504,0.373-0.894,0.893-0.894C170.678,10.213,171.02,10.603,171.02,11.107z M169.426,21.182v-7.865h1.43v7.865H169.426z"/>
		<path fill="#FFFFFF" d="M177.584,21.182l-0.113-0.991h-0.049c-0.438,0.617-1.283,1.17-2.404,1.17
			c-1.594,0-2.406-1.121-2.406-2.259c0-1.901,1.691-2.941,4.73-2.925v-0.163c0-0.649-0.18-1.819-1.789-1.819
			c-0.73,0-1.494,0.228-2.047,0.585l-0.324-0.943c0.648-0.422,1.592-0.698,2.584-0.698c2.404,0,2.99,1.642,2.99,3.218v2.941
			c0,0.683,0.031,1.349,0.129,1.885H177.584z M177.374,17.168c-1.559-0.033-3.33,0.243-3.33,1.771c0,0.926,0.617,1.364,1.348,1.364
			c1.023,0,1.674-0.649,1.902-1.315c0.049-0.146,0.08-0.31,0.08-0.455V17.168z"/>
	</g>
	<g>
		<path fill="#FFFFFF" d="M180.129,20.837c0-0.602,0.406-1.024,0.975-1.024s0.959,0.423,0.959,1.024
			c0,0.585-0.373,1.023-0.975,1.023C180.52,21.861,180.129,21.422,180.129,20.837z"/>
		<path fill="#FFFFFF" d="M183.493,20.837c0-0.602,0.406-1.024,0.977-1.024c0.568,0,0.959,0.423,0.959,1.024
			c0,0.585-0.375,1.023-0.977,1.023C183.883,21.861,183.493,21.422,183.493,20.837z"/>
		<path fill="#FFFFFF" d="M186.858,20.837c0-0.602,0.406-1.024,0.975-1.024s0.959,0.423,0.959,1.024
			c0,0.585-0.373,1.023-0.975,1.023C187.249,21.861,186.858,21.422,186.858,20.837z"/>
	</g>
</g>
</svg>
