<?xml version="1.0" encoding="utf-8"?>
<!-- Generator: Adobe Illustrator 16.0.0, SVG Export Plug-In . SVG Version: 6.00 Build 0)  -->
<!DOCTYPE svg PUBLIC "-//W3C//DTD SVG 1.1//EN" "http://www.w3.org/Graphics/SVG/1.1/DTD/svg11.dtd">
<svg version="1.1" id="Layer_1" xmlns="http://www.w3.org/2000/svg" xmlns:xlink="http://www.w3.org/1999/xlink" x="0px" y="0px"
	 width="197.333px" height="30.333px" viewBox="0 0 197.333 30.333" enable-background="new 0 0 197.333 30.333"
	 xml:space="preserve">
<g>
	<path fill="#FFFFFF" d="M13.167,18.374c0-0.619-0.232-1.125-0.695-1.518c-0.464-0.393-1.271-0.738-2.422-1.041
		c-1.245-0.313-2.188-0.719-2.828-1.219c-0.64-0.5-0.962-1.174-0.962-2.023c0-0.87,0.358-1.578,1.074-2.125
		c0.716-0.547,1.637-0.82,2.762-0.82c1.172,0,2.117,0.326,2.836,0.977c0.719,0.651,1.067,1.445,1.047,2.383l-0.023,0.047h-0.859
		c0-0.76-0.27-1.385-0.809-1.875c-0.539-0.489-1.27-0.734-2.191-0.734c-0.912,0-1.624,0.203-2.137,0.609
		c-0.513,0.406-0.77,0.912-0.77,1.516c0,0.573,0.237,1.051,0.711,1.434c0.474,0.383,1.292,0.72,2.453,1.012
		c1.224,0.313,2.155,0.734,2.793,1.266c0.638,0.53,0.957,1.231,0.957,2.103c0,0.905-0.371,1.627-1.113,2.163
		c-0.742,0.537-1.689,0.806-2.84,0.806c-1.136,0-2.126-0.285-2.973-0.855c-0.847-0.57-1.257-1.402-1.23-2.496l0.016-0.047h0.859
		c0,0.883,0.331,1.537,0.992,1.963s1.44,0.639,2.336,0.639c0.901,0,1.629-0.197,2.184-0.593
		C12.889,19.545,13.167,19.023,13.167,18.374z"/>
	<path fill="#FFFFFF" d="M19.19,21.331c-1.058,0-1.937-0.391-2.637-1.172c-0.701-0.781-1.051-1.771-1.051-2.969v-0.43
		c0-1.208,0.348-2.211,1.043-3.008c0.695-0.797,1.538-1.195,2.527-1.195c1.036,0,1.852,0.328,2.445,0.984
		c0.593,0.656,0.891,1.531,0.891,2.625v0.797H16.44v0.226c0,0.951,0.252,1.746,0.758,2.386c0.505,0.639,1.169,0.959,1.992,0.959
		c0.583,0,1.081-0.082,1.492-0.242c0.411-0.162,0.763-0.394,1.055-0.695l0.398,0.641c-0.318,0.336-0.72,0.602-1.207,0.799
		C20.441,21.232,19.862,21.331,19.19,21.331z M19.073,13.354c-0.693,0-1.273,0.264-1.742,0.791c-0.469,0.527-0.742,1.188-0.82,1.982
		l0.016,0.039h4.953v-0.234c0-0.732-0.216-1.345-0.648-1.838C20.398,13.601,19.812,13.354,19.073,13.354z"/>
	<path fill="#FFFFFF" d="M29.612,21.167c-0.063-0.285-0.107-0.533-0.133-0.742c-0.026-0.207-0.039-0.418-0.039-0.633
		c-0.313,0.443-0.729,0.811-1.25,1.103s-1.107,0.438-1.758,0.438c-0.823,0-1.462-0.22-1.918-0.656
		c-0.456-0.438-0.684-1.023-0.684-1.758c0-0.781,0.337-1.406,1.012-1.875c0.674-0.469,1.584-0.703,2.73-0.703h1.867v-1.047
		c0-0.604-0.194-1.078-0.582-1.422c-0.388-0.344-0.931-0.516-1.629-0.516c-0.651,0-1.191,0.164-1.621,0.492
		c-0.43,0.328-0.645,0.729-0.645,1.203l-0.859-0.008l-0.016-0.047c-0.031-0.63,0.256-1.194,0.863-1.691
		c0.606-0.497,1.379-0.746,2.316-0.746c0.932,0,1.682,0.237,2.25,0.711c0.567,0.474,0.852,1.154,0.852,2.039v4.155
		c0,0.297,0.017,0.586,0.051,0.867s0.09,0.561,0.168,0.836H29.612z M26.542,20.502c0.672,0,1.266-0.158,1.781-0.474
		c0.516-0.315,0.888-0.717,1.117-1.206v-1.767h-1.883c-0.849,0-1.527,0.181-2.035,0.543s-0.762,0.812-0.762,1.349
		c0,0.457,0.157,0.831,0.473,1.12C25.548,20.358,25.984,20.502,26.542,20.502z"/>
	<path fill="#FFFFFF" d="M36.752,13.518l-0.695-0.047c-0.589,0-1.072,0.166-1.449,0.496c-0.378,0.331-0.647,0.785-0.809,1.363v5.836
		h-0.938v-8.454h0.82l0.117,1.406v0.094c0.245-0.521,0.573-0.927,0.984-1.219c0.411-0.292,0.901-0.438,1.469-0.438
		c0.12,0,0.235,0.009,0.348,0.027c0.112,0.019,0.204,0.038,0.277,0.059L36.752,13.518z"/>
	<path fill="#FFFFFF" d="M41.292,20.534c0.62,0,1.167-0.176,1.641-0.529c0.474-0.353,0.711-0.842,0.711-1.471h0.828l0.016,0.047
		c0.026,0.781-0.287,1.436-0.938,1.961c-0.651,0.526-1.404,0.789-2.258,0.789c-1.151,0-2.041-0.395-2.668-1.184
		c-0.628-0.789-0.941-1.803-0.941-3.043v-0.328c0-1.229,0.315-2.239,0.945-3.031s1.516-1.188,2.656-1.188
		c0.927,0,1.699,0.273,2.316,0.82c0.617,0.547,0.915,1.266,0.895,2.156l-0.016,0.047h-0.836c0-0.677-0.228-1.217-0.684-1.621
		c-0.456-0.403-1.015-0.605-1.676-0.605c-0.906,0-1.577,0.324-2.012,0.972c-0.435,0.647-0.652,1.463-0.652,2.446V17.1
		c0,0.999,0.216,1.82,0.648,2.466C39.7,20.211,40.375,20.534,41.292,20.534z"/>
	<path fill="#FFFFFF" d="M47.385,14.159c0.281-0.505,0.656-0.898,1.125-1.18c0.469-0.282,1.016-0.422,1.641-0.422
		c0.891,0,1.574,0.276,2.051,0.828c0.477,0.552,0.715,1.409,0.715,2.571v5.211h-0.938v-5.237c0-0.918-0.181-1.577-0.543-1.977
		c-0.362-0.399-0.861-0.599-1.496-0.599c-0.641,0-1.176,0.168-1.605,0.505c-0.43,0.337-0.746,0.784-0.949,1.343v5.965h-0.938V8.979
		h0.938v5.18H47.385z"/>
</g>
</svg>
