<svg id="Layer_1" data-name="Layer 1" xmlns="http://www.w3.org/2000/svg" xmlns:xlink="http://www.w3.org/1999/xlink" viewBox="0 0 150 75"><defs><style>.cls-1{fill:#fff;}.cls-1,.cls-3,.cls-5,.cls-6,.cls-7{fill-rule:evenodd;}.cls-2{mask:url(#mask);}.cls-3{fill:#0c0e50;}.cls-4{mask:url(#mask-2-2);}.cls-5{fill:#00b6d8;}.cls-6{fill:#ec1264;}.cls-7{fill:#120054;}</style><mask id="mask" x="9.65" y="53.36" width="12.16" height="14.11" maskUnits="userSpaceOnUse"><g id="mask-2"><polygon id="path-1" class="cls-1" points="9.65 53.36 9.65 67.47 21.82 67.47 21.82 53.36 9.65 53.36"/></g></mask><mask id="mask-2-2" x="128.18" y="53.36" width="12.16" height="14.11" maskUnits="userSpaceOnUse"><g id="mask-4"><polygon id="path-3" class="cls-1" points="140.35 67.47 140.35 53.36 128.18 53.36 128.18 67.47 140.35 67.47"/></g></mask></defs><g id="mask-4-2" data-name="mask-4"><polygon id="path-3-2" data-name="path-3" class="cls-1" points="140.35 67.47 140.35 53.36 128.18 53.36 128.18 67.47 140.35 67.47"/></g><g id="mask-2-3" data-name="mask-2"><polygon id="path-1-2" data-name="path-1" class="cls-1" points="9.65 53.36 9.65 67.47 21.82 67.47 21.82 53.36 9.65 53.36"/></g><g id="Page-1"><g id="LF-EVENTSFORCE-2"><g id="Group-2"><g id="Page-1-2" data-name="Page-1"><g id="Group-3"><g class="cls-2"><path id="Fill-1" class="cls-3" d="M18.13,57.21a1.14,1.14,0,0,0-.31-.84,1,1,0,0,0-.76-.31,2.76,2.76,0,0,0-1.33.33,3.25,3.25,0,0,0-1,.9,3.32,3.32,0,0,0-.5.89c-.13.35-.26.76-.39,1.22a11.46,11.46,0,0,0,1.83-.11A4.74,4.74,0,0,0,16.9,59a1.78,1.78,0,0,0,1.23-1.74m3.69-.13A3.89,3.89,0,0,1,20.64,60a6.86,6.86,0,0,1-3.05,1.65,10.65,10.65,0,0,1-1.74.32,18.43,18.43,0,0,1-2,.1h-.3a.23.23,0,0,0,0,.11.44.44,0,0,0,0,.19c0,.05,0,.11,0,.16a.83.83,0,0,0,0,.13A1.51,1.51,0,0,0,14,64a2.37,2.37,0,0,0,1.44.4A4.67,4.67,0,0,0,17.26,64c.56-.23,1.06-.46,1.51-.67a.86.86,0,0,1,.35-.11c.1,0,.19.08.26.22l.86,2a.35.35,0,0,1,0,.16.45.45,0,0,1-.16.29,3.68,3.68,0,0,1-.85.54A8.66,8.66,0,0,1,18,67a12.73,12.73,0,0,1-1.56.38,10.89,10.89,0,0,1-1.72.14A5.06,5.06,0,0,1,11,66.15,5.11,5.11,0,0,1,9.65,62.4a10.32,10.32,0,0,1,.74-3.89,9.09,9.09,0,0,1,2-3.12,7.52,7.52,0,0,1,2.29-1.48,7,7,0,0,1,2.77-.55,4.74,4.74,0,0,1,3.15,1,3.39,3.39,0,0,1,1.18,2.73"/></g></g><path id="Fill-4" class="cls-3" d="M28.26,67.06a.41.41,0,0,1-.37.24H25a.43.43,0,0,1-.28-.07.48.48,0,0,1-.09-.28L22.92,54.41a1.06,1.06,0,0,1,0-.21c0-.2.11-.31.35-.32l3.16-.3h.16a.63.63,0,0,1,.26.05q.09.06.09.27l.27,6.79q0,.62,0,1.17v1.32l.36-.9.25-.62.2-.49.23-.48,3.22-6.81a.43.43,0,0,1,.4-.3H32l3.4.27c.17,0,.25.11.25.21a.72.72,0,0,1-.14.35Z"/><path id="Fill-6" class="cls-3" d="M43.29,57.45A1.18,1.18,0,0,0,43,56.6a1.08,1.08,0,0,0-.77-.3,2.74,2.74,0,0,0-1.34.33,3.45,3.45,0,0,0-1,.9,3.24,3.24,0,0,0-.5.9,10.38,10.38,0,0,0-.39,1.22,13.4,13.4,0,0,0,1.85-.1A4.73,4.73,0,0,0,42,59.2a1.78,1.78,0,0,0,1.25-1.75M47,57.32a3.9,3.9,0,0,1-1.19,2.94,7,7,0,0,1-3.08,1.65,9.92,9.92,0,0,1-1.76.32,16.76,16.76,0,0,1-2,.11h-.3a.43.43,0,0,0,0,.11.44.44,0,0,0,0,.19s0,.1,0,.16a.83.83,0,0,0,0,.13,1.51,1.51,0,0,0,.54,1.29,2.39,2.39,0,0,0,1.46.41,4.77,4.77,0,0,0,1.8-.35c.57-.24,1.08-.46,1.53-.68a.82.82,0,0,1,.35-.1q.16,0,.27.21l.86,2a.37.37,0,0,1,0,.17.43.43,0,0,1-.16.29,3.68,3.68,0,0,1-.85.54,10.27,10.27,0,0,1-1.29.5,12.68,12.68,0,0,1-1.58.37,10.05,10.05,0,0,1-1.74.15,4.63,4.63,0,0,1-5.11-5.11,10.46,10.46,0,0,1,.74-3.91,9.2,9.2,0,0,1,2.07-3.13,8,8,0,0,1,2.31-1.49,7.32,7.32,0,0,1,2.8-.55,4.78,4.78,0,0,1,3.19,1A3.38,3.38,0,0,1,47,57.32"/><path id="Fill-8" class="cls-3" d="M60.73,56.61a7.62,7.62,0,0,1,0,1c0,.31-.1.67-.19,1.08L58.58,67a.56.56,0,0,1-.1.26.68.68,0,0,1-.27,0H55c-.23,0-.35-.09-.35-.27a.69.69,0,0,1,0-.22l1.74-7.73c.06-.3.11-.58.16-.83a2.71,2.71,0,0,0,.08-.64v-.08c0-.49-.28-.73-.8-.73A2.31,2.31,0,0,0,54,58a10.12,10.12,0,0,0-1.31,3.51L51.49,67a.56.56,0,0,1-.1.26.68.68,0,0,1-.27,0H47.81c-.21,0-.32-.09-.32-.27s0-.08,0-.12,0-.1,0-.18l1.9-8.32a8,8,0,0,0,.2-1.11,7.4,7.4,0,0,0,.07-.93c0-.18,0-.35,0-.52a2.38,2.38,0,0,0-.1-.55,1,1,0,0,1-.08-.38c0-.16.12-.27.35-.35l2.66-.88a.35.35,0,0,1,.16,0,.33.33,0,0,1,.32.22,2.25,2.25,0,0,1,.19.45,5.41,5.41,0,0,1,.22,1.51v.21a7.39,7.39,0,0,1,1.92-1.8,4.43,4.43,0,0,1,2.38-.67A2.93,2.93,0,0,1,60,54.4a3.11,3.11,0,0,1,.77,2.21"/><path id="Fill-10" class="cls-3" d="M71.79,56.35a.65.65,0,0,1-.12.24.58.58,0,0,1-.28,0H68.15L67,62.31c0,.21-.07.42-.1.61a5.08,5.08,0,0,0,0,.51c0,.4.23.61.71.61a4.15,4.15,0,0,0,1-.15c.38-.1.71-.2,1-.3a1.41,1.41,0,0,1,.45-.14c.12,0,.22.11.29.32l.56,1.91a1.66,1.66,0,0,1,0,.24.25.25,0,0,1-.09.22,2.87,2.87,0,0,1-.31.2,3.89,3.89,0,0,1-.81.36,8.91,8.91,0,0,1-1.06.31c-.38.08-.77.15-1.18.21a9.77,9.77,0,0,1-1.19.08,4.2,4.2,0,0,1-2.66-.73,2.71,2.71,0,0,1-.9-2.24,6.61,6.61,0,0,1,0-.76c0-.25.09-.56.16-.91l1.25-6H62.5c-.23,0-.35-.07-.35-.21a1.35,1.35,0,0,1,.06-.27l.47-2.09a.72.72,0,0,1,.11-.27.48.48,0,0,1,.27,0h1.75l.71-3.29a.4.4,0,0,1,.35-.32l3.24-.34h.21q.27,0,.27.21v.12a.39.39,0,0,1,0,.14l-.8,3.48h3.43c.24,0,.37.07.37.21s0,.1,0,.24Z"/><path id="Fill-12" class="cls-3" d="M81.75,57.1c-.07.2-.18.3-.34.3a.65.65,0,0,1-.2,0l-.19-.1c-.32-.14-.7-.28-1.15-.43a4.1,4.1,0,0,0-1.2-.21,1.94,1.94,0,0,0-1.09.29,1,1,0,0,0-.44.86.71.71,0,0,0,.27.59,3.28,3.28,0,0,0,.66.43l1.42.73a8.25,8.25,0,0,1,1,.62,3.21,3.21,0,0,1,.72.7,2.93,2.93,0,0,1,.42.87,4.06,4.06,0,0,1,.15,1.17,5.07,5.07,0,0,1-.39,2,4.18,4.18,0,0,1-1.08,1.53,4.81,4.81,0,0,1-1.68,1,6.73,6.73,0,0,1-2.23.35A8.49,8.49,0,0,1,74,67.46a10.85,10.85,0,0,1-2-.74c-.32-.14-.48-.27-.48-.37a1.11,1.11,0,0,1,.08-.3l.79-2.12a.27.27,0,0,1,.26-.22.32.32,0,0,1,.16,0c.2.07.42.16.67.27l.83.32a9.12,9.12,0,0,0,.93.28,3.79,3.79,0,0,0,.94.12,2.28,2.28,0,0,0,1.35-.33,1.13,1.13,0,0,0,.45-1,.85.85,0,0,0-.4-.74,11.24,11.24,0,0,0-1.26-.65c-.51-.25-1-.49-1.33-.72a3.81,3.81,0,0,1-.94-.76,2.69,2.69,0,0,1-.55-.92,3.46,3.46,0,0,1-.19-1.23,4.93,4.93,0,0,1,.39-2,4.18,4.18,0,0,1,1.08-1.53,4.85,4.85,0,0,1,1.65-1,6.38,6.38,0,0,1,2.15-.35,7.2,7.2,0,0,1,1.94.24,5.81,5.81,0,0,1,1.43.59,1.17,1.17,0,0,1,.36.3.48.48,0,0,1,.09.27.76.76,0,0,1-.08.32Z"/><path id="Fill-14" class="cls-3" d="M94.55,51.21a.4.4,0,0,1-.38.29,1.18,1.18,0,0,1-.29,0,4.67,4.67,0,0,0-.63-.2,2.46,2.46,0,0,0-.72-.1,1.22,1.22,0,0,0-1,.42A3.44,3.44,0,0,0,91,53l-.19.93h3c.19,0,.29.08.29.22a.58.58,0,0,1,0,.21l-.63,2.29c0,.14-.07.23-.11.25a.51.51,0,0,1-.27,0H90.22L88.29,67.1a11.74,11.74,0,0,1-.7,2.39,5,5,0,0,1-1.13,1.68,4.49,4.49,0,0,1-1.58,1,5.67,5.67,0,0,1-2,.35,11,11,0,0,1-1.42-.08,3.47,3.47,0,0,1-1-.29c-.2-.09-.29-.2-.29-.32a.58.58,0,0,1,0-.18l.08-.22.66-2.21a.2.2,0,0,1,.22-.19l0,0h.08l.53.11a3.64,3.64,0,0,0,.56,0,2.73,2.73,0,0,0,.74-.09,1.22,1.22,0,0,0,.56-.38,2.52,2.52,0,0,0,.42-.81,9.25,9.25,0,0,0,.34-1.38L86.3,56.9H84.53c-.23,0-.35-.09-.35-.26a.54.54,0,0,1,0-.19l.42-2.13a1.23,1.23,0,0,1,.11-.33c0-.06.13-.1.29-.1h1.88l.35-1.78a7.1,7.1,0,0,1,.65-2,3.94,3.94,0,0,1,1.1-1.3,5.19,5.19,0,0,1,3.2-.93,8,8,0,0,1,1.57.14,4.11,4.11,0,0,1,1.19.41.47.47,0,0,1,.29.4.33.33,0,0,1,0,.15l0,.17Z"/><path id="Fill-16" class="cls-3" d="M101.63,58.26a2,2,0,0,0-.34-1.23,1.34,1.34,0,0,0-1.12-.44A1.79,1.79,0,0,0,99,57a4.13,4.13,0,0,0-.9,1.14,5.65,5.65,0,0,0-.47,1.13c-.14.43-.25.86-.35,1.3a12.7,12.7,0,0,0-.23,1.3A8.28,8.28,0,0,0,96.94,63a2.35,2.35,0,0,0,.31,1.31,1.17,1.17,0,0,0,1.06.47,2.11,2.11,0,0,0,1.35-.45,3.55,3.55,0,0,0,1-1.41q.21-.51.39-1.11c.11-.41.22-.82.31-1.24s.15-.83.2-1.23.07-.77.07-1.09m4,.24a10.8,10.8,0,0,1-.72,3.88,9.78,9.78,0,0,1-2,3.29,6.15,6.15,0,0,1-2.28,1.56,7.51,7.51,0,0,1-2.84.54,4.44,4.44,0,0,1-4.93-4.92,11,11,0,0,1,.71-3.91,9.25,9.25,0,0,1,2.06-3.26A7.24,7.24,0,0,1,98,54.12a7.09,7.09,0,0,1,2.84-.54,4.77,4.77,0,0,1,3.58,1.32,4.89,4.89,0,0,1,1.3,3.6"/><path id="Fill-18" class="cls-3" d="M116.24,57.44a.23.23,0,0,1-.21.16.39.39,0,0,1-.15,0l-.14-.06-.42-.09a1.84,1.84,0,0,0-.41,0,2,2,0,0,0-1.12.35,3.69,3.69,0,0,0-.9.94,6.27,6.27,0,0,0-.69,1.37,10.57,10.57,0,0,0-.48,1.6L110.6,67a.62.62,0,0,1-.1.27.41.41,0,0,1-.27.06H107c-.24,0-.37-.07-.37-.22a1.73,1.73,0,0,1,.06-.27l1.7-8.18a9.71,9.71,0,0,0,.26-1.94,7.46,7.46,0,0,0,0-.85c0-.27,0-.53-.09-.8s0-.23,0-.24.09-.2.26-.27l2.77-.92a.54.54,0,0,1,.19,0,.31.31,0,0,1,.3.2c.06.14.14.33.23.58a4.93,4.93,0,0,1,.13,1.19v.26a1.3,1.3,0,0,1,0,.26,10.31,10.31,0,0,1,.7-1,4.52,4.52,0,0,1,.66-.65,3.86,3.86,0,0,1,1-.61,3.4,3.4,0,0,1,1.21-.22,5,5,0,0,1,.8.06,1.24,1.24,0,0,1,.59.26.45.45,0,0,1,.18.3,1.23,1.23,0,0,1-.11.32Z"/><path id="Fill-20" class="cls-3" d="M127.26,57.21c-.15.25-.29.38-.41.38a.71.71,0,0,1-.44-.19,3.81,3.81,0,0,0-.92-.47,3.33,3.33,0,0,0-1.14-.18,2.73,2.73,0,0,0-2.21,1A6,6,0,0,0,121,60a9.6,9.6,0,0,0-.37,2.6c0,1.23.57,1.85,1.71,1.85a3.69,3.69,0,0,0,.93-.11,6.94,6.94,0,0,0,1-.32l.35-.13a.66.66,0,0,1,.27-.06.3.3,0,0,1,.3.22l.76,2.18a.75.75,0,0,1,0,.16.35.35,0,0,1,0,.13c0,.13-.13.26-.41.4a7.67,7.67,0,0,1-1.69.63,7.42,7.42,0,0,1-2,.26,5.46,5.46,0,0,1-4-1.41,5.22,5.22,0,0,1-1.44-3.91,10.58,10.58,0,0,1,.82-4.14,8.25,8.25,0,0,1,2.38-3.22,7.06,7.06,0,0,1,4.62-1.51,6.31,6.31,0,0,1,3.78,1.08.39.39,0,0,1,.22.35.49.49,0,0,1-.05.18Z"/><g id="Group-24"><g class="cls-4"><path id="Fill-22" class="cls-3" d="M136.66,57.21a1.1,1.1,0,0,0-.31-.84,1,1,0,0,0-.76-.31,2.69,2.69,0,0,0-1.32.33,3.18,3.18,0,0,0-1,.9,3.62,3.62,0,0,0-.5.89c-.13.35-.26.76-.39,1.22a11.68,11.68,0,0,0,1.84-.11,4.77,4.77,0,0,0,1.24-.34,1.78,1.78,0,0,0,1.23-1.74m3.69-.13A3.85,3.85,0,0,1,139.17,60a6.86,6.86,0,0,1-3,1.65,10.51,10.51,0,0,1-1.73.32,18.75,18.75,0,0,1-2,.1h-.3a.52.52,0,0,0,0,.11.44.44,0,0,0,0,.19.86.86,0,0,1,0,.16.83.83,0,0,0,0,.13,1.51,1.51,0,0,0,.54,1.29,2.39,2.39,0,0,0,1.44.4,4.63,4.63,0,0,0,1.78-.35c.56-.23,1.06-.46,1.51-.67a.86.86,0,0,1,.35-.11c.1,0,.19.08.26.22l.86,2a.35.35,0,0,1,0,.16.45.45,0,0,1-.16.29,3.68,3.68,0,0,1-.85.54,8.24,8.24,0,0,1-1.27.49,12.73,12.73,0,0,1-1.56.38,10.89,10.89,0,0,1-1.72.14,5.06,5.06,0,0,1-3.75-1.32,5.11,5.11,0,0,1-1.31-3.75,10.32,10.32,0,0,1,.74-3.89,9.09,9.09,0,0,1,2-3.12,7.64,7.64,0,0,1,2.29-1.48,7,7,0,0,1,2.77-.55,4.72,4.72,0,0,1,3.15,1,3.36,3.36,0,0,1,1.18,2.73"/></g></g></g><g id="Group"><path id="Fill-1-2" data-name="Fill-1" class="cls-5" d="M71.77,26.47H59.25a4,4,0,1,0,0,8H71.77a4,4,0,0,1,6.91,0h4.53a4,4,0,0,0,3.46-6H75.23a4,4,0,0,1-3.46-2"/><path id="Fill-3" class="cls-5" d="M75.23,8.49H86.67a4,4,0,0,0-3.46-6h-24a4,4,0,1,0,0,8H71.77a4,4,0,0,1,3.46-2"/><path id="Fill-5" class="cls-5" d="M71.77,14.48H51.26a4,4,0,0,0,0,8H71.77a4,4,0,0,1,3.46-2h3.45a4,4,0,0,0,0-4H75.23a4,4,0,0,1-3.46-2"/><path id="Fill-7" class="cls-6" d="M99.19,8.49H86.67a4,4,0,0,1-3.45,2H71.77a4,4,0,0,0,0,4h3.46a4,4,0,0,1,3.45,2H99.19a4,4,0,1,0,0-8"/><path id="Fill-9" class="cls-7" d="M86.67,8.49H75.23a4,4,0,0,0-3.46,2H83.21a4,4,0,0,0,3.46-2"/><path id="Fill-11" class="cls-7" d="M75.23,14.48H71.77a4,4,0,0,0,3.46,2h3.45a4,4,0,0,0-3.45-2"/><path id="Fill-13" class="cls-6" d="M75.23,22.47H71.77a4,4,0,0,0,0,4H83.21a4,4,0,0,1,3.46,2H91.2a4,4,0,1,0,0-8H78.68a4,4,0,0,1-3.45,2"/><path id="Fill-15" class="cls-7" d="M83.21,26.47H71.77a4,4,0,0,0,3.46,2H86.67a4,4,0,0,0-3.46-2"/><path id="Fill-17" class="cls-7" d="M71.77,22.47h3.46a4,4,0,0,0,3.45-2H75.23a4,4,0,0,0-3.46,2"/><path id="Fill-19" class="cls-6" d="M71.23,36.45a4,4,0,1,0,7.46-2H71.77a4,4,0,0,0-.54,2"/><path id="Fill-21" class="cls-7" d="M75.23,32.46a4,4,0,0,0-3.46,2h6.91a4,4,0,0,0-3.45-2"/><path id="Fill-23" class="cls-5" d="M71.77,26.47H59.25a4,4,0,1,0,0,8H71.77a4,4,0,0,1,6.91,0h4.53a4,4,0,0,0,3.46-6H75.23a4,4,0,0,1-3.46-2"/><path id="Fill-25" class="cls-5" d="M75.23,8.49H86.67a4,4,0,0,0-3.46-6h-24a4,4,0,1,0,0,8H71.77a4,4,0,0,1,3.46-2"/><path id="Fill-27" class="cls-5" d="M71.77,14.48H51.26a4,4,0,0,0,0,8H71.77a4,4,0,0,1,3.46-2h3.45a4,4,0,0,0,0-4H75.23a4,4,0,0,1-3.46-2"/><path id="Fill-29" class="cls-6" d="M99.19,8.49H86.67a4,4,0,0,1-3.45,2H71.77a4,4,0,0,0,0,4h3.46a4,4,0,0,1,3.45,2H99.19a4,4,0,1,0,0-8"/><path id="Fill-31" class="cls-7" d="M86.67,8.49H75.23a4,4,0,0,0-3.46,2H83.21a4,4,0,0,0,3.46-2"/><path id="Fill-33" class="cls-7" d="M75.23,14.48H71.77a4,4,0,0,0,3.46,2h3.45a4,4,0,0,0-3.45-2"/><path id="Fill-35" class="cls-6" d="M75.23,22.47H71.77a4,4,0,0,0,0,4H83.21a4,4,0,0,1,3.46,2H91.2a4,4,0,1,0,0-8H78.68a4,4,0,0,1-3.45,2"/><path id="Fill-37" class="cls-7" d="M83.21,26.47H71.77a4,4,0,0,0,3.46,2H86.67a4,4,0,0,0-3.46-2"/><path id="Fill-39" class="cls-7" d="M71.77,22.47h3.46a4,4,0,0,0,3.45-2H75.23a4,4,0,0,0-3.46,2"/><path id="Fill-41" class="cls-6" d="M71.23,36.45a4,4,0,1,0,7.46-2H71.77a4,4,0,0,0-.54,2"/><path id="Fill-43" class="cls-7" d="M75.23,32.46a4,4,0,0,0-3.46,2h6.91a4,4,0,0,0-3.45-2"/></g></g></g></g></svg>