<svg id="Layer_1" data-name="Layer 1" xmlns="http://www.w3.org/2000/svg" xmlns:xlink="http://www.w3.org/1999/xlink" viewBox="0 0 150 75"><defs><style>.cls-1{fill:none;}.cls-2{clip-path:url(#clip-path);}.cls-3{fill:#1ab4d7;}.cls-4{fill:#fff;}</style><clipPath id="clip-path"><rect class="cls-1" x="40" y="2.5" width="70" height="70"/></clipPath></defs><g class="cls-2"><g class="cls-2"><path class="cls-3" d="M75,72.5a35,35,0,1,0-35-35,35,35,0,0,0,35,35"/><path class="cls-4" d="M56.75,37.4l6-6a1.06,1.06,0,0,0,.31-.75,1.07,1.07,0,0,0-1.84-.75l-6,6-6-6a1.06,1.06,0,0,0-.75-.31,1.07,1.07,0,0,0-1.07,1.07,1,1,0,0,0,.32.76l6,6-6,6a1.07,1.07,0,0,0,.75,1.84,1,1,0,0,0,.75-.32l6-6,6,5.95a1.05,1.05,0,0,0,.77.34,1.07,1.07,0,0,0,.76-1.83Z"/><path class="cls-4" d="M92.26,37.4a1.95,1.95,0,1,0,1.95-1.95,1.94,1.94,0,0,0-1.95,1.95"/><path class="cls-4" d="M88.57,37.4A5.64,5.64,0,1,1,94.21,43a5.64,5.64,0,0,1-5.64-5.63m-2.21,0a7.85,7.85,0,1,0,7.85-7.85,7.85,7.85,0,0,0-7.85,7.85"/><path class="cls-4" d="M85.8,29.68h-.33a4.49,4.49,0,0,0-2.74.93,1.06,1.06,0,0,0-2.1.22V44.05a1.07,1.07,0,0,0,2.14,0V35.92c0-2.71.25-3.81,2.57-4.1.21,0,.45,0,.45,0a1.06,1.06,0,0,0,1.09-1.05,1.08,1.08,0,0,0-1.08-1.07"/><path class="cls-4" d="M65.25,36.11a.28.28,0,0,1,0-.09,5.67,5.67,0,0,1,11,.09Zm13.21-.21A7.82,7.82,0,0,0,75,30.78a7.85,7.85,0,0,0-12.05,6.67,8.08,8.08,0,0,0,.23,1.89,7.92,7.92,0,0,0,6.66,5.87A7.55,7.55,0,0,0,72.65,45,7.66,7.66,0,0,0,75,44a8.37,8.37,0,0,0,2-1.9l0,0a1.17,1.17,0,0,0-.12-1.64,1.07,1.07,0,0,0-1.58.25c-.12.16-.24.32-.38.49a6.08,6.08,0,0,1-1.55,1.24,5.64,5.64,0,0,1-2.63.67,5.77,5.77,0,0,1-5.37-3.76,6.61,6.61,0,0,1-.24-.9c0-.06,0-.11,0-.16H76.33a2,2,0,0,0,2.13-2.35"/></g></g></svg>