<svg id="Layer_1" data-name="Layer 1" xmlns="http://www.w3.org/2000/svg" viewBox="0 0 150 75"><defs><style>.cls-1{fill:#95bf47;}.cls-2{fill:#5e8e3e;}.cls-3{fill:#fff;}</style></defs><path class="cls-1" d="M35.07,25.12a.38.38,0,0,0-.34-.32l-3.16-.23s-2.09-2.07-2.3-2.3a1,1,0,0,0-.85-.12l-1.18.37c-.66-2-1.91-3.84-4.07-3.84H23a2.67,2.67,0,0,0-2-1.18c-5.05,0-7.44,6.31-8.2,9.51-2,.6-3.34,1-3.52,1.08-1.09.35-1.13.37-1.27,1.41-.11.8-3,22.91-3,22.91l22.27,4.17L39.33,54S35.1,25.33,35.07,25.12Zm-9-2.21c-.55.19-1.19.37-1.89.58v-.42a9.13,9.13,0,0,0-.46-3C24.8,20.2,25.56,21.46,26,22.91Zm-3.7-2.62a9.59,9.59,0,0,1,.5,3.38v.21l-3.89,1.2C19.69,22.22,21.1,20.82,22.32,20.29Zm-1.5-1.41a1.13,1.13,0,0,1,.64.21c-1.61.76-3.34,2.67-4.07,6.49l-3.09,1C15.18,23.63,17.2,18.88,20.82,18.88Z"/><path class="cls-2" d="M34.73,24.8l-3.16-.23s-2.09-2.07-2.3-2.3a.47.47,0,0,0-.32-.14L27.27,56.58,39.33,54S35.1,25.33,35.07,25.15A.4.4,0,0,0,34.73,24.8Z"/><path class="cls-3" d="M23.17,31.48l-1.5,4.42a6.92,6.92,0,0,0-2.9-.69c-2.35,0-2.46,1.47-2.46,1.84,0,2,5.27,2.79,5.27,7.53,0,3.73-2.37,6.13-5.55,6.13a7.73,7.73,0,0,1-5.78-2.38l1-3.38s2,1.73,3.71,1.73a1.51,1.51,0,0,0,1.57-1.52c0-2.65-4.33-2.77-4.33-7.1,0-3.63,2.62-7.18,7.9-7.18A6.62,6.62,0,0,1,23.17,31.48Z"/><path d="M53.4,39.77c-1.2-.65-1.82-1.2-1.82-2,0-1,.85-1.59,2.21-1.59a7.78,7.78,0,0,1,3,.65l1.11-3.37s-1-.78-4-.78c-4.14,0-7,2.37-7,5.71,0,1.89,1.33,3.34,3.13,4.38,1.45.83,2,1.4,2,2.28s-.72,1.61-2.07,1.61a9.25,9.25,0,0,1-3.9-1L44.79,49a8.91,8.91,0,0,0,4.67,1.18c4.26,0,7.33-2.1,7.33-5.87,0-2-1.52-3.48-3.39-4.56Zm17-7.07a6.37,6.37,0,0,0-5,2.51l-.07,0,1.82-9.54H62.38L57.78,49.9h4.74l1.59-8.29c.62-3.13,2.23-5.07,3.75-5.07,1.06,0,1.48.72,1.48,1.75a10.61,10.61,0,0,1-.21,2.1l-1.8,9.49h4.75l1.86-9.81A17.61,17.61,0,0,0,74.29,37c0-2.67-1.43-4.28-3.9-4.28Zm14.6,0c-5.71,0-9.48,5.16-9.48,10.89,0,3.68,2.28,6.63,6.54,6.63,5.59,0,9.39-5,9.39-10.89,0-3.41-2-6.63-6.45-6.63ZM82.67,46.58c-1.61,0-2.3-1.38-2.3-3.08,0-2.72,1.4-7.16,4-7.16,1.68,0,2.23,1.45,2.23,2.85C86.58,42.12,85.18,46.58,82.67,46.58ZM103.58,32.7a6.48,6.48,0,0,0-5,2.81h-.07L98.76,33H94.57c-.2,1.72-.57,4.32-1,6.28l-3.3,17.36H95l1.32-7h.09a5.45,5.45,0,0,0,2.78.62c5.58,0,9.21-5.71,9.21-11.49,0-3.18-1.4-6-4.85-6ZM99,46.65a3,3,0,0,1-2-.69l.79-4.44c.55-3,2.09-4.93,3.75-4.93,1.45,0,1.89,1.34,1.89,2.6C103.51,42.28,101.69,46.65,99,46.65Zm16.19-20.77a2.7,2.7,0,0,0-2.72,2.74A2.19,2.19,0,0,0,114.74,31h.07a2.69,2.69,0,0,0,2.79-2.75,2.25,2.25,0,0,0-2.37-2.37Zm-6.63,24h4.74l3.22-16.81H111.8m16.83,0h-3.29l.16-.78c.27-1.61,1.24-3.06,2.81-3.06a5.19,5.19,0,0,1,1.52.23l.92-3.71a6.33,6.33,0,0,0-2.58-.41,7.06,7.06,0,0,0-4.65,1.59,8.87,8.87,0,0,0-2.74,5.36l-.14.78h-2.21l-.69,3.57H120l-2.51,13.27h4.76l2.51-13.27H128l.65-3.57Zm11.42,0s-3,7.48-4.31,11.56h-.07c-.09-1.32-1.17-11.56-1.17-11.56h-5l2.86,15.43a1.1,1.1,0,0,1-.09.78,8.29,8.29,0,0,1-2.58,2.85A10.75,10.75,0,0,1,127,53.47l1.31,4A10.85,10.85,0,0,0,133,54.92c2.16-2,4.17-5.16,6.22-9.42L145,33.07Z"/></svg>