<svg id="Layer_1" data-name="Layer 1" xmlns="http://www.w3.org/2000/svg" xmlns:xlink="http://www.w3.org/1999/xlink" viewBox="0 0 150 75"><defs><style>.cls-1{fill:none;}.cls-2{clip-path:url(#clip-path);}.cls-3{fill:#0291a0;}.cls-4{fill:#09cad3;}</style><clipPath id="clip-path"><rect class="cls-1" x="5" y="26.88" width="140" height="21.24"/></clipPath></defs><g class="cls-2"><g class="cls-2"><path class="cls-3" d="M20,38.67,17.8,40.86c-2.84,2.83-5.34,6-12.27,6a.52.52,0,0,0-.53.52.71.71,0,0,0,.71.71H28a2,2,0,0,0,2-2,2,2,0,0,0-.57-1.39l-6.11-6.1a2.31,2.31,0,0,0-3.26,0"/><path class="cls-4" d="M14.94,36.36l2.19-2.18c2.84-2.84,5.34-6,12.27-6a.53.53,0,0,0,.53-.53.71.71,0,0,0-.71-.71H7a2,2,0,0,0-2,2,2,2,0,0,0,.57,1.39l6.11,6.1a2.31,2.31,0,0,0,3.26,0"/><path class="cls-3" d="M41.47,48A11.63,11.63,0,0,1,37,47.22a13.54,13.54,0,0,1-3.29-2,.7.7,0,0,1-.07-1l.08-.09a.69.69,0,0,1,1-.06,14.41,14.41,0,0,0,1.16.89,9.5,9.5,0,0,0,3.56,1.5,10.75,10.75,0,0,0,2.11.19,6.77,6.77,0,0,0,2.11-.31,4.89,4.89,0,0,0,1.64-.85,4,4,0,0,0,1.06-1.29,3.58,3.58,0,0,0,.38-1.62v-.06a4.19,4.19,0,0,0-.25-1.47,2.83,2.83,0,0,0-.91-1.17,6.6,6.6,0,0,0-1.77-1A19.65,19.65,0,0,0,41,38.16a19.87,19.87,0,0,1-3.17-.89,7.62,7.62,0,0,1-2.15-1.2,4.15,4.15,0,0,1-1.22-1.6A5.4,5.4,0,0,1,34,32.39v-.06a4.63,4.63,0,0,1,.5-2.12,5.3,5.3,0,0,1,1.38-1.72A6.52,6.52,0,0,1,38,27.35a8.19,8.19,0,0,1,2.63-.41,10.93,10.93,0,0,1,3.86.62A10.78,10.78,0,0,1,47.1,29a.68.68,0,0,1,.11,1l-.09.11a.7.7,0,0,1-1,.11,8.77,8.77,0,0,0-2.41-1.36,9.37,9.37,0,0,0-3.17-.52,6.38,6.38,0,0,0-2.07.31,4.94,4.94,0,0,0-1.58.83,3.58,3.58,0,0,0-1,1.23,3.23,3.23,0,0,0-.35,1.49v.06a4.29,4.29,0,0,0,.24,1.48,2.91,2.91,0,0,0,.91,1.2,6.44,6.44,0,0,0,1.83,1,22.27,22.27,0,0,0,3,.82,11.75,11.75,0,0,1,5.16,2.06,4.47,4.47,0,0,1,1.58,3.59v.06a5.08,5.08,0,0,1-.51,2.27,5.17,5.17,0,0,1-1.41,1.77,6.64,6.64,0,0,1-2.14,1.15,8.8,8.8,0,0,1-2.74.41"/><path class="cls-3" d="M54,27.23H67.18a.69.69,0,0,1,0,1.38H55.49a.69.69,0,0,0-.69.69V36a.69.69,0,0,0,.69.69H65.86a.68.68,0,0,1,.69.68.69.69,0,0,1-.69.69H55.49a.69.69,0,0,0-.69.69v6.89a.69.69,0,0,0,.69.69H67.33a.68.68,0,0,1,.69.68.69.69,0,0,1-.69.69H54a.69.69,0,0,1-.69-.69V27.92a.69.69,0,0,1,.69-.69"/><path class="cls-3" d="M72.91,27.92a.69.69,0,0,1,.69-.69h7.93a9.43,9.43,0,0,1,3.36.55,6.52,6.52,0,0,1,2.41,1.48A5.18,5.18,0,0,1,88.44,31a5.41,5.41,0,0,1,.41,2.09v.06a5.59,5.59,0,0,1-.45,2.3,5.41,5.41,0,0,1-1.26,1.75,6.69,6.69,0,0,1-1.91,1.18,9.13,9.13,0,0,1-1.31.43.69.69,0,0,0-.39,1.09l5.22,6.76a.69.69,0,0,1-.54,1.11H88a.69.69,0,0,1-.55-.27l-6.33-8.22h-6a.68.68,0,0,0-.69.68v7.12a.68.68,0,0,1-.68.69H73.6a.69.69,0,0,1-.69-.69Zm8.44,9.95a8.69,8.69,0,0,0,2.39-.32,6,6,0,0,0,1.89-.93,4.39,4.39,0,0,0,1.24-1.47,4.25,4.25,0,0,0,.46-2v-.06a4,4,0,0,0-1.54-3.29,6.89,6.89,0,0,0-4.35-1.21H75.12a.69.69,0,0,0-.69.69v7.88a.69.69,0,0,0,.69.69Z"/><path class="cls-3" d="M95,27.23h.14a.69.69,0,0,1,.69.69V47.05a.69.69,0,0,1-.69.69H95a.69.69,0,0,1-.69-.69V27.92a.69.69,0,0,1,.69-.69"/><path class="cls-3" d="M102.81,27.23h.41a.7.7,0,0,1,.54.26l12.72,16a.69.69,0,0,0,1.23-.43V27.92a.69.69,0,0,1,.69-.69h.08a.69.69,0,0,1,.69.69V47.05a.69.69,0,0,1-.69.69h-.12a.67.67,0,0,1-.54-.26l-13-16.41a.68.68,0,0,0-1.22.43V47.05a.69.69,0,0,1-.69.69h-.09a.69.69,0,0,1-.69-.69V27.92a.69.69,0,0,1,.69-.69"/><path class="cls-3" d="M134.64,48.09a10,10,0,0,1-4.23-.86,10.05,10.05,0,0,1-5.32-5.67,11.05,11.05,0,0,1-.73-4v-.06a11,11,0,0,1,.75-4,10.38,10.38,0,0,1,2.09-3.38,9.81,9.81,0,0,1,3.25-2.33,10.74,10.74,0,0,1,8.47,0,9.91,9.91,0,0,1,3.25,2.31,10.37,10.37,0,0,1,2.08,3.36,11,11,0,0,1,.74,4,.06.06,0,0,1,0,.06,11,11,0,0,1-.75,4,10.69,10.69,0,0,1-2.1,3.38,9.9,9.9,0,0,1-3.26,2.33,10.14,10.14,0,0,1-4.24.86m.06-1.37A8.45,8.45,0,0,0,141,44a9.07,9.07,0,0,0,1.8-2.92,9.79,9.79,0,0,0,.64-3.57v-.06a9.74,9.74,0,0,0-.66-3.59A9.21,9.21,0,0,0,140.93,31a8.65,8.65,0,0,0-2.77-2,8.57,8.57,0,0,0-9.77,2,8.8,8.8,0,0,0-1.8,2.92,9.8,9.8,0,0,0-.65,3.57v.06a9.78,9.78,0,0,0,.66,3.59A9.23,9.23,0,0,0,128.42,44a8.57,8.57,0,0,0,6.28,2.71"/></g></g></svg>