<svg id="Layer_1" data-name="Layer 1" xmlns="http://www.w3.org/2000/svg" xmlns:xlink="http://www.w3.org/1999/xlink" viewBox="0 0 150 75"><defs><style>.cls-1{fill:none;}.cls-2{clip-path:url(#clip-path);}.cls-3{fill:#313332;}</style><clipPath id="clip-path"><rect class="cls-1" x="10" y="21.35" width="130" height="32.31"/></clipPath></defs><g class="cls-2"><g class="cls-2"><path class="cls-3" d="M27.87,34a24.11,24.11,0,0,0-5.12.92q1.93-2.25,3.09-3.48c1.6-1.93,1.82-2.56,1.82-2.92a1,1,0,0,0-1-1.15,2.28,2.28,0,0,0-.59.1l-.1,0a18.84,18.84,0,0,1-3,1.63c-.53.22-1.84.86-4,1.94a25.31,25.31,0,0,1-3.54,1.53l-.07,0a1.65,1.65,0,0,0-1,1.54c.06.78.12.92.18,1a4.82,4.82,0,0,0,.56.65l.19.21,5.72-2.88c-.42.51-.9,1.06-1.45,1.65-.33.41-1.24,1.36-2.67,2.81-.43.42-.85.87-1.27,1.33a2.51,2.51,0,0,0-.71,1.72,1,1,0,0,0,1,1.08c.37,0,.81-.27,1.43-.86a11.75,11.75,0,0,1,4.24-2.49,13,13,0,0,1,4.51-1c2.14,0,2.39.83,2.39,1.45a6.22,6.22,0,0,1-.62,1.78A16.11,16.11,0,0,1,24.9,45a14.59,14.59,0,0,1-4.83,3.66,19.89,19.89,0,0,1-5.85,1.52c-.69,0-1.62-.27-1.87-2.09l0-.32h-.46c-.56,0-1,.5-1.44,1.54A6.16,6.16,0,0,0,10,51.39c0,1,.51,2.15,2.95,2.15a13,13,0,0,0,3.12-.44,23.15,23.15,0,0,0,6.71-3.3,25.87,25.87,0,0,0,5.65-5.2C30.78,41.61,32,39.06,32,37c0-1.37-.71-3-4.11-3"/><path class="cls-3" d="M49.75,33.06a10.94,10.94,0,0,0-6.11-1.81A11.2,11.2,0,0,0,32.42,42.43,11.2,11.2,0,0,0,43.64,53.65a10.88,10.88,0,0,0,6.11-1.83v1.83h5.07V21.4H49.75ZM48,46.81a6.13,6.13,0,0,1-8.68,0,6.2,6.2,0,0,1,0-8.72,6.13,6.13,0,0,1,10.47,4.34A6,6,0,0,1,48,46.81"/><path class="cls-3" d="M67.94,36.29q2.73-.1,5.47,2.67l3.81-3.29q-4.39-4.62-9.49-4.41A11.21,11.21,0,0,0,57,42.88a10.86,10.86,0,0,0,3.6,7.8,10.74,10.74,0,0,0,8,3q4.59-.18,8.57-4.45l-3.58-3.55q-2.61,2.86-5.18,3A6.18,6.18,0,0,1,63.7,38.27a5.89,5.89,0,0,1,4.24-2"/><path class="cls-3" d="M94.92,33.06a11,11,0,0,0-6.12-1.81A11.22,11.22,0,0,0,77.58,42.43a11.2,11.2,0,0,0,17.34,9.39v1.83H100V31.25H94.92Zm-1.8,13.75a5.85,5.85,0,0,1-4.31,1.8,6.17,6.17,0,1,1,0-12.33,6.16,6.16,0,0,1,6.11,6.15,6,6,0,0,1-1.8,4.38"/><path class="cls-3" d="M136.31,46.79A5.81,5.81,0,0,1,132,48.61a6.16,6.16,0,0,1-6.16-6.18V34.27h6.67v-5h-6.67V21.35h-5.07V42.43A11.22,11.22,0,0,0,140,50.26Z"/><path class="cls-3" d="M107.49,33.08V31.25h-5.06v22.4h5V42.49h0v0a6,6,0,0,1,1.8-4.38,5.86,5.86,0,0,1,4.31-1.81,6.09,6.09,0,0,1,2.81.66l3.66-3.66a10.75,10.75,0,0,0-6.46-2,10.91,10.91,0,0,0-6.12,1.83"/></g></g></svg>