<svg id="Layer_1" data-name="Layer 1" xmlns="http://www.w3.org/2000/svg" xmlns:xlink="http://www.w3.org/1999/xlink" viewBox="0 0 150 75"><defs><style>.cls-1{fill:none;}.cls-2{clip-path:url(#clip-path);}.cls-3{fill:#2f489a;}</style><clipPath id="clip-path"><rect class="cls-1" x="10" y="20.05" width="130" height="34.9"/></clipPath></defs><g class="cls-2"><g class="cls-2"><path class="cls-3" d="M10,54.09h6.63V38.89c0-3,1.7-4.83,4.26-4.83,2.27,0,3.65,1.38,3.65,3.89V54.09h6.58V38.85c0-3,1.7-4.79,4.26-4.79,2.32,0,3.74,1.38,3.74,3.84V54.09h6.63V36.52c0-5.16-3.22-8.28-8.24-8.28a8.48,8.48,0,0,0-7.15,3.69,7.61,7.61,0,0,0-7-3.69,8.57,8.57,0,0,0-7,3.5V29H10V54.09Zm37.88,0H54.6V29H47.88Zm0-27.93H54.6V20.05H47.88ZM71.55,44.62c-.47,3-2,4.5-4.5,4.5-3.17,0-5-2.65-5-7.53,0-5.21,1.61-7.86,5-7.86,2.47,0,4,1.47,4.41,4.12h6.67c-.47-6.11-4.59-9.8-11.12-9.8-7.39,0-11.93,5-11.93,13.45S59.53,55,66.77,55C73.21,55,77.61,51,78.18,44.62Zm7.1,9.47h6.73v-14c0-3.79,1.89-5.68,5.54-5.68h2.22V28.29a6.57,6.57,0,0,0-1-.05c-3.22,0-5.49,1.41-7.24,4.87V29H78.66V54.09Z"/><path class="cls-3" d="M91.77,41.5C91.77,49.88,96.6,55,104.51,55s12.73-5.07,12.73-13.45-4.83-13.45-12.73-13.45S91.77,33.12,91.77,41.5Zm6.82,0c0-5,2.18-7.77,5.92-7.77s5.87,2.75,5.87,7.77-2.13,7.81-5.87,7.81-5.92-2.79-5.92-7.81"/><path class="cls-3" d="M117.1,45.9v.28c0,5.4,4.07,8.77,11.08,8.77C135.9,55,140,51.87,140,46.18c0-4.54-2.84-6.15-8.67-7.52-4.78-1.14-6.86-1.33-6.86-3.08,0-1.56,1.23-2.32,3.79-2.32,2.74,0,4.31,1.23,4.4,3.36h6.53c-.23-5.4-4.21-8.57-11-8.57-6.44,0-10.32,3.31-10.32,8.38,0,4.26,2.79,6.06,8.71,7.58,4.45,1.13,6.63,1,6.63,3.17,0,1.56-1.42,2.51-4.12,2.51-3.46,0-5.16-1.23-5.25-3.79Zm19.35-25.45a3.71,3.71,0,0,1,1.75.45,3.31,3.31,0,0,1,1.33,1.32A3.67,3.67,0,0,1,140,24a3.49,3.49,0,0,1-.47,1.76,3.33,3.33,0,0,1-1.31,1.32,3.58,3.58,0,0,1-3.53,0,3.29,3.29,0,0,1-1.32-1.32A3.52,3.52,0,0,1,132.9,24a3.58,3.58,0,0,1,.48-1.78,3.19,3.19,0,0,1,1.33-1.32,3.67,3.67,0,0,1,1.74-.45m0,.58a3,3,0,0,0-1.46.39,2.75,2.75,0,0,0-1.1,1.09,3,3,0,0,0,0,3,2.81,2.81,0,0,0,1.1,1.09,2.92,2.92,0,0,0,3,0A2.72,2.72,0,0,0,139,25.47a3,3,0,0,0,.39-1.47,3,3,0,0,0-.4-1.49,2.75,2.75,0,0,0-1.1-1.09,3,3,0,0,0-1.46-.39M134.9,26V22.14h1.31a3.23,3.23,0,0,1,1,.1,1,1,0,0,1,.48.37,1,1,0,0,1,.18.57,1,1,0,0,1-.3.72,1.14,1.14,0,0,1-.79.35,1.36,1.36,0,0,1,.32.2,5.08,5.08,0,0,1,.57.76l.46.75h-.75l-.34-.6a3.1,3.1,0,0,0-.64-.89.8.8,0,0,0-.5-.13h-.36V26Zm.61-2.15h.75a1.17,1.17,0,0,0,.73-.16.54.54,0,0,0,.2-.43.56.56,0,0,0-.36-.5,2.13,2.13,0,0,0-.62-.06h-.7Z"/></g></g></svg>