<svg id="Layer_1" data-name="Layer 1" xmlns="http://www.w3.org/2000/svg" xmlns:xlink="http://www.w3.org/1999/xlink" viewBox="0 0 150 75"><defs><style>.cls-1{fill:none;}.cls-2{clip-path:url(#clip-path);}.cls-3{fill:#2eabe2;fill-rule:evenodd;}</style><clipPath id="clip-path"><rect class="cls-1" x="48.56" y="2.5" width="52.88" height="70"/></clipPath></defs><g class="cls-2"><g class="cls-2"><path class="cls-3" d="M67.49,26.72a38,38,0,0,0,9.81,4.15l4.51,1.52A34.63,34.63,0,0,1,85.92,34l1.44.57,12.93-12.31h.91L65.76,72.5,48.56,57,57.43,48l8.21,7.52L78,43.68c-1.77-.66-3.82-1.31-6.29-2a41.54,41.54,0,0,1-13.46-6.07A16,16,0,0,1,52,22a17.47,17.47,0,0,1,6.28-14.2A23,23,0,0,1,73.6,2.5,24.63,24.63,0,0,1,95.28,14.16l-9.15,9.32A13.15,13.15,0,0,0,73.6,15.27c-5.38-.16-8.62,2.55-8.62,6.4a6.14,6.14,0,0,0,2.51,5m31.4,24.35a17.66,17.66,0,0,1-6.65,14.49A26,26,0,0,1,75.82,70.9L96.35,42.16a17.73,17.73,0,0,1,2.54,8.91"/></g></g></svg>