<svg id="Layer_1" data-name="Layer 1" xmlns="http://www.w3.org/2000/svg" xmlns:xlink="http://www.w3.org/1999/xlink" viewBox="0 0 150 75"><defs><style>.cls-1{fill:url(#linear-gradient);}.cls-2{fill:none;}.cls-3{clip-path:url(#clip-path);}.cls-4{fill:#493087;}.cls-5{fill:#fff;}.cls-6{clip-path:url(#clip-path-4);}.cls-7{mask:url(#mask);}.cls-8{fill:url(#linear-gradient-2);}.cls-9{fill:#72c6a5;}</style><linearGradient id="linear-gradient" x1="-1.44" y1="-1.48" x2="-1.41" y2="-1.48" gradientTransform="matrix(546.15, 0, 0, -546.15, 829.09, -773.81)" gradientUnits="userSpaceOnUse"><stop offset="0" stop-color="#e6e6e6"/><stop offset="0.2" stop-color="#b3b3b3"/><stop offset="0.8" stop-color="#1a1a1a"/><stop offset="1" stop-color="#1a1a1a"/></linearGradient><clipPath id="clip-path"><rect class="cls-2" x="10" y="11.96" width="130" height="51.08"/></clipPath><clipPath id="clip-path-4"><path class="cls-2" d="M43.8,31.27a3.23,3.23,0,0,0,0,6.46H57.49a3.23,3.23,0,0,0,0-6.46Z"/></clipPath><mask id="mask" x="40.58" y="31.27" width="20.14" height="6.45" maskUnits="userSpaceOnUse"><rect class="cls-1" x="40.58" y="31.27" width="20.14" height="6.45"/></mask><linearGradient id="linear-gradient-2" x1="-1.44" y1="-1.48" x2="-1.41" y2="-1.48" gradientTransform="matrix(546.15, 0, 0, -546.15, 829.09, -773.81)" gradientUnits="userSpaceOnUse"><stop offset="0" stop-color="#72c6a5"/><stop offset="0.2" stop-color="#72c6a5"/><stop offset="0.8" stop-color="#72c6a5"/><stop offset="1" stop-color="#72c6a5"/></linearGradient></defs><g class="cls-3"><g class="cls-3"><rect class="cls-4" x="10" y="11.96" width="130" height="51.08"/><polygon class="cls-5" points="28.43 46.84 28.69 46.84 28.69 47.96 29.99 47.96 29.99 46.84 30.24 46.84 30.24 49.37 29.99 49.37 29.99 48.18 28.69 48.18 28.69 49.37 28.43 49.37 28.43 46.84"/><g class="cls-3"><path class="cls-5" d="M33.55,48.12a1.19,1.19,0,0,1,.11-.54,1.6,1.6,0,0,1,.3-.42,1.57,1.57,0,0,1,.43-.27,1.37,1.37,0,0,1,.49-.09,1.25,1.25,0,0,1,.51.1,1.51,1.51,0,0,1,.42.27,1.4,1.4,0,0,1,.3.42,1.27,1.27,0,0,1,.1.52,1.25,1.25,0,0,1-.1.51,1.4,1.4,0,0,1-.3.42,1.32,1.32,0,0,1-.42.27,1.35,1.35,0,0,1-1,0,1.35,1.35,0,0,1-.72-.69,1.21,1.21,0,0,1-.1-.5m.25,0a1.1,1.1,0,0,0,.32.75,1.36,1.36,0,0,0,.34.23,1.16,1.16,0,0,0,.42.08,1.15,1.15,0,0,0,.41-.08,1.07,1.07,0,0,0,.35-.23,1,1,0,0,0,0-1.52,1,1,0,0,0-.34-.24,1.16,1.16,0,0,0-.42-.08,1.15,1.15,0,0,0-.41.08,1.13,1.13,0,0,0-.34.23,1.09,1.09,0,0,0-.24.35,1,1,0,0,0-.09.43"/><path class="cls-5" d="M39.58,48.66a.57.57,0,0,0,.15.38.48.48,0,0,0,.37.14.58.58,0,0,0,.19,0,.5.5,0,0,0,.17-.11.58.58,0,0,0,.11-.15.49.49,0,0,0,0-.21.43.43,0,0,0-.06-.24.81.81,0,0,0-.16-.16l-.18-.09-.16,0-.2-.06a.61.61,0,0,1-.21-.11.55.55,0,0,1-.18-.19.63.63,0,0,1-.07-.3.6.6,0,0,1,.06-.27A.86.86,0,0,1,39.6,47a.83.83,0,0,1,.22-.14.87.87,0,0,1,.28-.05.68.68,0,0,1,.29.06.54.54,0,0,1,.22.15.55.55,0,0,1,.14.22.71.71,0,0,1,0,.26h-.25a.34.34,0,0,0,0-.18.38.38,0,0,0-.09-.15.56.56,0,0,0-.15-.1.47.47,0,0,0-.17,0,.41.41,0,0,0-.19,0,.3.3,0,0,0-.14.1.42.42,0,0,0-.09.14.41.41,0,0,0,0,.16.36.36,0,0,0,0,.19.8.8,0,0,0,.13.13l.19.08.24.07a.88.88,0,0,1,.35.17.73.73,0,0,1,.18.23.44.44,0,0,1,.07.2.85.85,0,0,1,0,.13h0a.87.87,0,0,1,0,.28.78.78,0,0,1-.16.24,1,1,0,0,1-.24.16.78.78,0,0,1-.31.06.77.77,0,0,1-.25,0,.6.6,0,0,1-.25-.13.62.62,0,0,1-.19-.23.72.72,0,0,1-.08-.35Z"/><path class="cls-5" d="M44.15,46.85h.93l.17,0,.14,0,.11.06a.78.78,0,0,1,.23.25.71.71,0,0,1,.09.36.68.68,0,0,1-.09.35.62.62,0,0,1-.23.25.41.41,0,0,1-.11.07l-.14,0-.17,0H44.4v1h-.25Zm.25,1.27h.77l.1,0a.52.52,0,0,0,.22-.19.54.54,0,0,0,.07-.27.5.5,0,0,0-.07-.27.46.46,0,0,0-.22-.19l-.1,0-.11,0H44.4Z"/><rect class="cls-5" x="48.81" y="46.85" width="0.25" height="2.52"/><polygon class="cls-5" points="52.67 47.07 52.09 47.07 52.09 46.84 53.49 46.84 53.49 47.07 52.92 47.07 52.92 49.37 52.67 49.37 52.67 47.07"/><path class="cls-5" d="M57.13,46.85h.28l1.08,2.52h-.27l-.37-.85H56.68l-.37.85h-.26Zm-.35,1.44h1l-.48-1.16Z"/><polygon class="cls-5" points="61.47 46.84 61.72 46.84 61.72 49.14 62.76 49.14 62.76 49.37 61.47 49.37 61.47 46.84"/><rect class="cls-5" x="65.78" y="46.85" width="0.25" height="2.52"/><polygon class="cls-5" points="69.63 47.07 69.05 47.07 69.05 46.84 70.46 46.84 70.46 47.07 69.88 47.07 69.88 49.37 69.63 49.37 69.63 47.07"/><polygon class="cls-5" points="74.1 48.52 73.22 46.84 73.5 46.84 74.22 48.26 74.96 46.84 75.24 46.84 74.35 48.52 74.35 49.37 74.1 49.37 74.1 48.52"/><path class="cls-5" d="M82.3,48.66a.57.57,0,0,0,.15.38.48.48,0,0,0,.38.14.63.63,0,0,0,.19,0,.57.57,0,0,0,.16-.11.58.58,0,0,0,.11-.15.49.49,0,0,0,0-.21.43.43,0,0,0-.06-.24.77.77,0,0,0-.15-.16l-.19-.09-.16,0-.2-.06a.71.71,0,0,1-.21-.11.45.45,0,0,1-.17-.19.53.53,0,0,1-.07-.3.59.59,0,0,1,0-.27.86.86,0,0,1,.15-.22.74.74,0,0,1,.23-.14.82.82,0,0,1,.28-.05.67.67,0,0,1,.28.06.54.54,0,0,1,.22.15.7.7,0,0,1,.19.48h-.25a.48.48,0,0,0,0-.18.56.56,0,0,0-.1-.15.71.71,0,0,0-.14-.1l-.17,0a.42.42,0,0,0-.2,0,.36.36,0,0,0-.14.1.42.42,0,0,0-.09.14.41.41,0,0,0,0,.16.29.29,0,0,0,0,.19.4.4,0,0,0,.13.13.68.68,0,0,0,.19.08l.23.07a.88.88,0,0,1,.35.17.77.77,0,0,1,.19.23.6.6,0,0,1,.07.2c0,.07,0,.11,0,.13h0a.67.67,0,0,1-.06.28.78.78,0,0,1-.16.24.72.72,0,0,1-.24.16.73.73,0,0,1-.3.06.78.78,0,0,1-.26,0,.67.67,0,0,1-.25-.13.62.62,0,0,1-.19-.23.72.72,0,0,1-.08-.35Z"/><path class="cls-5" d="M86.71,48.12a1.19,1.19,0,0,1,.12-.54,1.25,1.25,0,0,1,.3-.42,1.51,1.51,0,0,1,.42-.27A1.41,1.41,0,0,1,88,46.8a1.25,1.25,0,0,1,.51.1,1.57,1.57,0,0,1,.43.27,1.37,1.37,0,0,1,.29.42,1.26,1.26,0,0,1,0,1,1.26,1.26,0,0,1-.72.69,1.25,1.25,0,0,1-.51.1,1.32,1.32,0,0,1-.51-.1,1.34,1.34,0,0,1-.42-.28,1.33,1.33,0,0,1-.29-.41,1.22,1.22,0,0,1-.11-.5m.25,0a1,1,0,0,0,.09.41,1.16,1.16,0,0,0,.24.34,1.2,1.2,0,0,0,.34.23,1.15,1.15,0,0,0,.41.08,1.16,1.16,0,0,0,.42-.08,1.18,1.18,0,0,0,.35-.23,1.13,1.13,0,0,0,.23-.34,1,1,0,0,0,0-.84,1,1,0,0,0-.23-.34,1.16,1.16,0,0,0-.34-.24A1.22,1.22,0,0,0,88,47a1.1,1.1,0,0,0-.4.08,1.18,1.18,0,0,0-.35.23,1.09,1.09,0,0,0-.24.35,1,1,0,0,0-.09.43"/><polygon class="cls-5" points="92.69 46.84 92.95 46.84 92.95 49.14 93.99 49.14 93.99 49.37 92.69 49.37 92.69 46.84"/><path class="cls-5" d="M97.16,46.85v1.57a1.81,1.81,0,0,0,0,.25.52.52,0,0,0,.07.2.45.45,0,0,0,.13.17.42.42,0,0,0,.14.09.37.37,0,0,0,.14,0h.22a.43.43,0,0,0,.14,0l.14-.09a.59.59,0,0,0,.13-.17.52.52,0,0,0,.06-.2,1,1,0,0,0,0-.25V46.85h.26v1.57a1.3,1.3,0,0,1-.1.52.67.67,0,0,1-.16.23,1,1,0,0,1-.2.15.86.86,0,0,1-.21.07l-.19,0-.2,0a.86.86,0,0,1-.21-.07,1,1,0,0,1-.2-.15.84.84,0,0,1-.16-.23,1.31,1.31,0,0,1-.09-.52V46.85Z"/><polygon class="cls-5" points="102.23 47.07 101.65 47.07 101.65 46.84 103.06 46.84 103.06 47.07 102.48 47.07 102.48 49.37 102.23 49.37 102.23 47.07"/><rect class="cls-5" x="106.08" y="46.85" width="0.25" height="2.52"/><path class="cls-5" d="M109.64,48.12a1.19,1.19,0,0,1,.12-.54,1.25,1.25,0,0,1,.3-.42,1.51,1.51,0,0,1,.42-.27,1.43,1.43,0,0,1,.5-.09,1.24,1.24,0,0,1,.5.1,1.57,1.57,0,0,1,.43.27,1.37,1.37,0,0,1,.29.42,1.13,1.13,0,0,1,.11.52,1.12,1.12,0,0,1-.11.51,1.26,1.26,0,0,1-.72.69,1.24,1.24,0,0,1-.5.1,1.35,1.35,0,0,1-1.23-.79,1.22,1.22,0,0,1-.11-.5m.26,0a1,1,0,0,0,.08.41,1.16,1.16,0,0,0,.24.34,1.2,1.2,0,0,0,.34.23,1.16,1.16,0,0,0,.42.08,1.15,1.15,0,0,0,.41-.08,1.18,1.18,0,0,0,.35-.23,1.13,1.13,0,0,0,.23-.34,1,1,0,0,0,0-.84,1,1,0,0,0-.23-.34A1,1,0,0,0,111,47a1.11,1.11,0,0,0-.41.08,1.18,1.18,0,0,0-.35.23,1.09,1.09,0,0,0-.24.35,1.18,1.18,0,0,0-.08.43"/><polygon class="cls-5" points="115.61 46.84 115.95 46.84 117.36 48.94 117.37 48.94 117.37 46.84 117.62 46.84 117.62 49.37 117.37 49.37 115.87 47.15 115.86 47.15 115.86 49.37 115.61 49.37 115.61 46.84"/><path class="cls-5" d="M121.15,48.66a.49.49,0,0,0,.15.38.48.48,0,0,0,.37.14.58.58,0,0,0,.19,0A.46.46,0,0,0,122,49a.44.44,0,0,0,.12-.15.49.49,0,0,0,0-.21.36.36,0,0,0-.07-.24.57.57,0,0,0-.15-.16l-.18-.09-.16,0-.2-.06a.53.53,0,0,1-.21-.11.55.55,0,0,1-.18-.19.63.63,0,0,1-.07-.3.6.6,0,0,1,.06-.27.54.54,0,0,1,.15-.22.83.83,0,0,1,.22-.14.87.87,0,0,1,.28-.05.64.64,0,0,1,.28.06.57.57,0,0,1,.23.15.55.55,0,0,1,.14.22.71.71,0,0,1,.05.26h-.25a.34.34,0,0,0,0-.18.38.38,0,0,0-.09-.15l-.15-.1a.47.47,0,0,0-.17,0,.38.38,0,0,0-.19,0,.4.4,0,0,0-.15.1.64.64,0,0,0-.08.14.41.41,0,0,0,0,.16.36.36,0,0,0,0,.19.53.53,0,0,0,.13.13l.19.08.24.07a.88.88,0,0,1,.35.17.9.9,0,0,1,.18.23.6.6,0,0,1,.07.2.85.85,0,0,1,0,.13h0a.87.87,0,0,1-.05.28.78.78,0,0,1-.16.24,1,1,0,0,1-.24.16.78.78,0,0,1-.31.06.82.82,0,0,1-.26,0,.63.63,0,0,1-.24-.13A.62.62,0,0,1,121,49a.63.63,0,0,1-.08-.35Z"/><path class="cls-5" d="M30.09,41.63a6.62,6.62,0,1,1,5.35-10.51V25.54h1.27V35a6.63,6.63,0,0,1-6.62,6.62m0-12A5.36,5.36,0,1,0,35.44,35a5.36,5.36,0,0,0-5.35-5.35"/><path class="cls-5" d="M87.14,41.63A6.62,6.62,0,1,1,92.5,31.12V25.54h1.26V35a6.63,6.63,0,0,1-6.62,6.62m0-12A5.36,5.36,0,1,0,92.5,35a5.36,5.36,0,0,0-5.36-5.35"/><path class="cls-5" d="M119.77,41.63A6.62,6.62,0,1,1,126.39,35v.65H114.47a5.31,5.31,0,0,0,5.3,4.71,5.41,5.41,0,0,0,4.82-3l.1-.21h1.36l-.22.52a6.61,6.61,0,0,1-6.06,4m-5.3-7.26h10.6a5.34,5.34,0,0,0-10.6,0"/><path class="cls-5" d="M70.83,41.64A6.63,6.63,0,1,1,77.45,35v.65H65.52a5.32,5.32,0,0,0,5.31,4.71,5.38,5.38,0,0,0,4.81-3l.1-.21h1.37l-.22.52a6.63,6.63,0,0,1-6.06,4m-5.31-7.27H76.13a5.34,5.34,0,0,0-10.61,0"/><path class="cls-5" d="M103.46,41.63a6.61,6.61,0,1,1,6.07-9.27l.22.52h-1.39l-.1-.21a5.35,5.35,0,1,0-4.8,7.7,5.31,5.31,0,0,0,5.3-4.71h-5.67V34.37h7l0,.35a6.65,6.65,0,0,1-6.62,6.91"/></g><g class="cls-6"><g class="cls-7"><rect class="cls-8" x="40.58" y="31.27" width="20.14" height="6.45"/></g></g><g class="cls-3"><path class="cls-9" d="M54.26,34.5a3.23,3.23,0,1,1,3.23,3.23,3.23,3.23,0,0,1-3.23-3.23"/></g></g></g></svg>