<svg id="Layer_1" data-name="Layer 1" xmlns="http://www.w3.org/2000/svg" viewBox="0 0 150 75"><defs><style>.cls-1,.cls-4{fill:#ffcd2c;}.cls-1,.cls-2{fill-rule:evenodd;}.cls-2{fill:#fcee2b;}.cls-3{fill:#231f20;}.cls-5{fill:#4d4a4a;}</style></defs><path class="cls-1" d="M15.51,29.87,31.66,25q4.57.46,2.55,5.1l-8.6,15.26c-1.91,2.4-3.9,3.33-6.7,1.16L13.58,34.71c-.44-2.38.26-3.91,1.93-4.84M12.63,29l20.58-6.2q5.82.6,3.25,6.49l-11,19.44c-2.43,3.07-5,4.25-8.53,1.49L10.17,35.16C9.6,32.13,10.49,30.17,12.63,29Z"/><path class="cls-2" d="M21.35,30l9.79-3.19c4.42.26-6.55,11.06-8.06,9.55-.72-1.28-2.68-5.84-1.74-6.36m-3.78.09L32,25.57q3.28.34,1.83,3.66l-9,12c-1.37,1.73-2.8,2.39-4.81.84l-3.82-8.51C15.86,31.83,16.37,30.73,17.56,30.08Z"/><path class="cls-3" d="M95,33.17H91.92c0-.52-.23-.78-.79-.78a1.36,1.36,0,0,0-.74.19.71.71,0,0,0-.35.49c-.07.47.42.85,1.45,1.14a16.54,16.54,0,0,1,1.68.56,2.63,2.63,0,0,1,.84.56,2.39,2.39,0,0,1,.66,2.2,3.85,3.85,0,0,1-1.82,2.69,5.57,5.57,0,0,1-3.12.9A3.74,3.74,0,0,1,86.81,40a2.71,2.71,0,0,1-.62-1,3.8,3.8,0,0,1-.13-1.34h3.13q0,1,1,1a1.42,1.42,0,0,0,.8-.24.8.8,0,0,0,.41-.57c.06-.38-.17-.68-.68-.91-.13-.06-.84-.26-2.16-.62a2.53,2.53,0,0,1-1.8-2.93,3.56,3.56,0,0,1,1.37-2.26,5,5,0,0,1,1.59-.87,5.47,5.47,0,0,1,1.83-.32,3.3,3.3,0,0,1,3,1.41A3.09,3.09,0,0,1,95,33.17Zm-8.46,0h-3.1q.06-.78-.78-.78a1.36,1.36,0,0,0-.74.19.66.66,0,0,0-.35.49q-.1.7,1.44,1.14a16.72,16.72,0,0,1,1.69.56,2.59,2.59,0,0,1,.83.56,2.42,2.42,0,0,1,.67,2.2,3.85,3.85,0,0,1-1.81,2.7,5.57,5.57,0,0,1-3.12.9A3.75,3.75,0,0,1,78.36,40a2.71,2.71,0,0,1-.62-1,4,4,0,0,1-.13-1.34h3.14c0,.64.34,1,1,1a1.45,1.45,0,0,0,.81-.24.86.86,0,0,0,.41-.57c.06-.38-.17-.68-.69-.91-.12-.06-.84-.26-2.15-.62a2.52,2.52,0,0,1-1.8-2.92,3.56,3.56,0,0,1,1.37-2.27,5,5,0,0,1,1.59-.87,5.37,5.37,0,0,1,1.82-.32,3.27,3.27,0,0,1,3,1.41,3.06,3.06,0,0,1,.41,1.89ZM75,34.37a1.77,1.77,0,0,0-.61-1.31,2.24,2.24,0,0,0-1.49-.5,2.73,2.73,0,0,0-2.65,1.83Zm-.89,3.11h3.21a7.87,7.87,0,0,1-1.43,1.82,6.1,6.1,0,0,1-4.26,1.81A4.76,4.76,0,0,1,68.45,40,4.38,4.38,0,0,1,67,37.61a5.3,5.3,0,0,1-.08-2.1,6.59,6.59,0,0,1,2.37-4.15,6,6,0,0,1,3.95-1.5,4.46,4.46,0,0,1,3.93,1.93A5.17,5.17,0,0,1,78,35.62a4.22,4.22,0,0,1-.21.85H69.83a1.94,1.94,0,0,0,.2,1,1.91,1.91,0,0,0,1.81,1,2.73,2.73,0,0,0,1.63-.5c.07,0,.27-.2.61-.47ZM55.72,40.76l1.59-10.54h3l-.17,1.12a4.13,4.13,0,0,1,1.39-1.13,3.92,3.92,0,0,1,1.72-.34,3.36,3.36,0,0,1,2.68,1.06,2.62,2.62,0,0,1,.63,1.28,6.43,6.43,0,0,1-.07,2l-1,6.59H62.33L63.19,35a2.74,2.74,0,0,0-.07-1.55,1.26,1.26,0,0,0-1.25-.64,2,2,0,0,0-1.62.74,1.83,1.83,0,0,0-.31.5,4.31,4.31,0,0,0-.17.81l-.89,5.89Zm.3-14-.52,3.51H57l-.36,2.39H55.13L53.9,40.76H50.74L52,32.61H50.43l.36-2.39h1.54l.53-3.51Zm-4.63,0L51,29.1H47.87l.36-2.39Zm-.52,3.51L49.28,40.76H46.11L47.7,30.22ZM41,40.76l1.23-8.15H41l.36-2.39h1.17l.08-.55c.36-2.22,1.87-3.31,4.51-3.25h.48l-.36,2.37H46.9a1.06,1.06,0,0,0-1.14,1v.05l-.06.41H47l-.36,2.39H45.34l-1.23,8.15Z"/><path class="cls-4" d="M137,34.37a1.74,1.74,0,0,0-.62-1.31,2.21,2.21,0,0,0-1.49-.5,2.73,2.73,0,0,0-2.64,1.83Zm-.89,3.11h3.21a7.87,7.87,0,0,1-1.43,1.82,6.14,6.14,0,0,1-4.26,1.81A4.76,4.76,0,0,1,130.44,40,4.38,4.38,0,0,1,129,37.61a5.12,5.12,0,0,1-.08-2.1,6.59,6.59,0,0,1,2.37-4.15,6,6,0,0,1,3.95-1.5,4.41,4.41,0,0,1,3.91,1.93,5.22,5.22,0,0,1,.79,3.83,5.06,5.06,0,0,1-.22.85h-7.89a1.86,1.86,0,0,0,1.73,2h.28a2.73,2.73,0,0,0,1.63-.5C135.53,37.91,135.73,37.75,136.07,37.48Zm-10.53-.72h3.18a6.73,6.73,0,0,1-1.89,2.67,6.27,6.27,0,0,1-4.3,1.69,4.65,4.65,0,0,1-3.75-1.64,4.85,4.85,0,0,1-1-4,6.43,6.43,0,0,1,2.55-4.24,6.16,6.16,0,0,1,3.86-1.36,4.88,4.88,0,0,1,3.44,1.23,4.45,4.45,0,0,1,1.48,3.2h-3.19a1.89,1.89,0,0,0-.74-1.09,2.33,2.33,0,0,0-1.33-.39,2.73,2.73,0,0,0-1.9.75,3.17,3.17,0,0,0-1,2,2.34,2.34,0,0,0,.45,1.94,2.08,2.08,0,0,0,1.65.7,3.25,3.25,0,0,0,2.54-1.4Zm-14,4,1.59-10.54h3L116,31.34a3.14,3.14,0,0,1,2.86-1.47L118.36,33a3.65,3.65,0,0,0-2,.47,2,2,0,0,0-.79,1.44l-.88,5.82Zm-5.2-7.94a2.88,2.88,0,0,0-2.15,1,3.08,3.08,0,0,0-.78,1.62,2.4,2.4,0,0,0,.48,2,2.1,2.1,0,0,0,1.64.71,2.71,2.71,0,0,0,2-.88,3.14,3.14,0,0,0,.9-1.79,2.35,2.35,0,0,0-.42-1.85,2.07,2.07,0,0,0-1.71-.82Zm.45-2.95a4.57,4.57,0,0,1,4.11,2,5,5,0,0,1,.74,3.65,6.59,6.59,0,0,1-2.26,4.06,6.42,6.42,0,0,1-4.33,1.57,5.16,5.16,0,0,1-3-.88,4.25,4.25,0,0,1-1.56-2,5.47,5.47,0,0,1-.22-2.78,6.32,6.32,0,0,1,1.09-2.7A6.39,6.39,0,0,1,106.82,29.87ZM95.07,40.76l1.23-8.15H95.14l.36-2.39h1.17l.08-.55c.37-2.22,1.87-3.31,4.52-3.25h.47l-.37,2.38H101a1.06,1.06,0,0,0-1.12,1h0l-.06.41h1.34l-.37,2.39H99.46l-1.22,8.15Z"/><path class="cls-5" d="M44.43,48.86A2.58,2.58,0,0,1,42,50.71,2,2,0,0,1,40.37,50a2.84,2.84,0,0,1-.63-2,4.38,4.38,0,0,1,.8-2.67,2.47,2.47,0,0,1,2.07-1.12,2.15,2.15,0,0,1,1.57.57,2.42,2.42,0,0,1,.66,1.59l-1,.18c-.09-.94-.51-1.41-1.25-1.41a1.36,1.36,0,0,0-1.29,1.06,5.85,5.85,0,0,0-.39,2,1.68,1.68,0,0,0,.33,1.13,1.06,1.06,0,0,0,.84.38,1.24,1.24,0,0,0,.86-.37,2.52,2.52,0,0,0,.59-.89Z"/><path class="cls-5" d="M45.56,50.55H44.51l1-6.15H46.6Z"/><path class="cls-5" d="M50,50.55H49l.17-1a1.75,1.75,0,0,1-1.57,1.09,1,1,0,0,1-.83-.35,1.13,1.13,0,0,1-.28-.77,5.65,5.65,0,0,1,.11-.91L47.08,46h1l-.48,2.84a4.1,4.1,0,0,0-.06.49.43.43,0,0,0,.14.35.49.49,0,0,0,.36.13,1,1,0,0,0,.64-.26,1.45,1.45,0,0,0,.46-.6,6,6,0,0,0,.25-1L49.74,46h1Z"/><path class="cls-5" d="M51.21,50.55h-.46l1-6.15h1l-.39,2.34a1.65,1.65,0,0,1,1.39-1,1.16,1.16,0,0,1,1,.52,2.21,2.21,0,0,1,.36,1.34,3.82,3.82,0,0,1-.57,2,1.75,1.75,0,0,1-1.56,1,1.38,1.38,0,0,1-1.35-.86Zm1.73-.77c.37,0,.65-.23.86-.7a3.41,3.41,0,0,0,.31-1.41c0-.69-.24-1-.72-1a1.08,1.08,0,0,0-.94.7,3.21,3.21,0,0,0-.36,1.49.92.92,0,0,0,.26.7A.81.81,0,0,0,52.94,49.78Z"/><path class="cls-5" d="M63.09,50.55H62l.94-5.6-2.61,5.6h-.6L58.88,45,58,50.55h-.86l1-6.15h1.69l.63,4.13,1.88-4.13h1.8Z"/><path class="cls-5" d="M67.72,50.55h-1v-.2a5.16,5.16,0,0,1,.08-.79,1.83,1.83,0,0,1-.64.81,1.59,1.59,0,0,1-.94.3,1.38,1.38,0,0,1-1-.38,1.25,1.25,0,0,1-.39-.94,1.42,1.42,0,0,1,.69-1.23,4,4,0,0,1,2.15-.45h.44a1.66,1.66,0,0,0,0-.32.67.67,0,0,0-.26-.56,1,1,0,0,0-.64-.19,1.11,1.11,0,0,0-1,.63L64.3,47a2,2,0,0,1,2-1.11,2.1,2.1,0,0,1,1.35.39,1.22,1.22,0,0,1,.5,1,12.1,12.1,0,0,1-.22,1.45,11.73,11.73,0,0,0-.23,1.56C67.7,50.36,67.71,50.45,67.72,50.55ZM67,48.2a4.19,4.19,0,0,0-1.64.31.79.79,0,0,0-.46.72.64.64,0,0,0,.19.45.71.71,0,0,0,.5.17,1.19,1.19,0,0,0,.86-.4A2.45,2.45,0,0,0,67,48.21Z"/><path class="cls-5" d="M72.13,50.55h-1l.47-2.76a3.05,3.05,0,0,0,0-.52.71.71,0,0,0-.14-.43.54.54,0,0,0-.43-.17,1,1,0,0,0-.82.47,3,3,0,0,0-.49,1.35l-.35,2.06h-1L69.16,46h.94L69.92,47a2.45,2.45,0,0,1,.78-1,1.61,1.61,0,0,1,.71-.2,1.22,1.22,0,0,1,1.24,1.29,4.78,4.78,0,0,1-.09.76Z"/><path class="cls-5" d="M76.69,50.55h-1v-.2a4.15,4.15,0,0,1,.08-.79,1.85,1.85,0,0,1-.65.81,1.56,1.56,0,0,1-.93.3,1.42,1.42,0,0,1-1-.38,1.28,1.28,0,0,1-.38-.94,1.41,1.41,0,0,1,.68-1.23,4,4,0,0,1,2.15-.45h.44a3.11,3.11,0,0,0,0-.32.65.65,0,0,0-.27-.56,1,1,0,0,0-.63-.19,1.13,1.13,0,0,0-1.06.63l-.9-.28a2.07,2.07,0,0,1,2-1.12,2.13,2.13,0,0,1,1.36.39,1.22,1.22,0,0,1,.49,1,11.78,11.78,0,0,1-.21,1.45,11.88,11.88,0,0,0-.23,1.57A2.44,2.44,0,0,0,76.69,50.55ZM76,48.2a4.11,4.11,0,0,0-1.64.31.76.76,0,0,0-.46.72.59.59,0,0,0,.18.45.72.72,0,0,0,.51.17,1.13,1.13,0,0,0,.85-.4A2.47,2.47,0,0,0,76,48.21Z"/><path class="cls-5" d="M77.74,50.11a.8.8,0,0,1-.39-.71,1,1,0,0,1,.18-.59,1.85,1.85,0,0,1,.72-.52,1.13,1.13,0,0,1-.52-.95,1.29,1.29,0,0,1,.54-1.1,2.56,2.56,0,0,1,1.5-.39,2.12,2.12,0,0,1,.57.06,1.82,1.82,0,0,1,.54-.9,1.3,1.3,0,0,1,.81-.23,1.51,1.51,0,0,1,.3,0v.78a2.48,2.48,0,0,0-.33,0,1.27,1.27,0,0,0-.48.08.61.61,0,0,0-.37.44,1.16,1.16,0,0,1,.7,1.09,1.32,1.32,0,0,1-.5,1.06,2.21,2.21,0,0,1-1.45.42,3.36,3.36,0,0,1-.89-.13.63.63,0,0,0-.41.56.39.39,0,0,0,.13.32,1.11,1.11,0,0,0,.59.11h.55a3.86,3.86,0,0,1,1.17.13,1.23,1.23,0,0,1,.58.43,1,1,0,0,1,.21.62,1.31,1.31,0,0,1-.55,1A3,3,0,0,1,79,52.2c-1.35,0-2-.36-2-1.07a.89.89,0,0,1,.19-.59A2.1,2.1,0,0,1,77.74,50.11Zm.46.23a.66.66,0,0,0-.3.49.58.58,0,0,0,.33.49,2,2,0,0,0,1,.2c.86,0,1.3-.23,1.31-.69a.32.32,0,0,0-.21-.34,5.05,5.05,0,0,0-1-.07A4.05,4.05,0,0,1,78.2,50.34Zm1.36-2.29a1,1,0,0,0,.68-.23.88.88,0,0,0,.24-.64c0-.45-.25-.68-.74-.68a1,1,0,0,0-.7.23.84.84,0,0,0-.26.63c0,.47.26.69.78.69Z"/><path class="cls-5" d="M85.6,49.25a2.09,2.09,0,0,1-2,1.41,1.85,1.85,0,0,1-1.42-.56,2.08,2.08,0,0,1-.52-1.47,3.08,3.08,0,0,1,.65-2,2,2,0,0,1,1.67-.8,1.67,1.67,0,0,1,1.39.58A2.43,2.43,0,0,1,85.85,48c0,.11,0,.23,0,.36H82.69a2.07,2.07,0,0,0,0,.35,1.3,1.3,0,0,0,.26.83.84.84,0,0,0,.71.31A1.18,1.18,0,0,0,84.71,49Zm-.7-1.53c0-.77-.3-1.16-.9-1.16s-1,.39-1.2,1.16Z"/><path class="cls-5" d="M92.58,50.55H91.52L92,47.77A3.55,3.55,0,0,0,92,47.3c0-.41-.21-.61-.64-.61-.67,0-1.11.61-1.33,1.85l-.34,2h-1l.44-2.67a3.4,3.4,0,0,0,.08-.64.51.51,0,0,0-.42-.57h-.14a1.12,1.12,0,0,0-.83.43A4,4,0,0,0,87.22,49L87,50.55h-1L86.71,46h1l-.17,1a1.89,1.89,0,0,1,.61-.84,1.32,1.32,0,0,1,.87-.32,1.11,1.11,0,0,1,1.2,1.08,1.89,1.89,0,0,1,1.62-1.08,1.25,1.25,0,0,1,.9.34,1.15,1.15,0,0,1,.37.89A6.91,6.91,0,0,1,93,48Z"/><path class="cls-5" d="M97.36,49.25a2.11,2.11,0,0,1-2,1.41,1.83,1.83,0,0,1-1.41-.56,2,2,0,0,1-.52-1.47,3,3,0,0,1,.65-2,2,2,0,0,1,1.67-.8,1.64,1.64,0,0,1,1.39.58A2.44,2.44,0,0,1,97.6,48v.36H94.45c0,.12,0,.23,0,.35a1.31,1.31,0,0,0,.27.83.83.83,0,0,0,.7.31A1.16,1.16,0,0,0,96.46,49Zm-.71-1.53c0-.77-.3-1.16-.9-1.16s-1,.38-1.2,1.16Z"/><path class="cls-5" d="M101.42,50.55h-1l.47-2.76a3.05,3.05,0,0,0,.05-.52.6.6,0,0,0-.14-.43.54.54,0,0,0-.43-.17,1,1,0,0,0-.82.46,3,3,0,0,0-.49,1.35l-.35,2.07h-1L98.46,46h.93L99.21,47a2.53,2.53,0,0,1,.79-1,1.45,1.45,0,0,1,.71-.19,1.2,1.2,0,0,1,.87.34,1.22,1.22,0,0,1,.36,1,4.92,4.92,0,0,1-.09.76Z"/><path class="cls-5" d="M104.34,50.55a4.78,4.78,0,0,1-.65.07,1.27,1.27,0,0,1-.93-.29.89.89,0,0,1-.29-.69,5.57,5.57,0,0,1,.1-.82l.34-2h-.67l.13-.83h.69l.28-1.23.92-.06L104,46h1l-.13.82h-1l-.34,2a3.86,3.86,0,0,0-.06.49c0,.29.21.43.64.43a1.84,1.84,0,0,0,.33,0Z"/><path class="cls-5" d="M111.32,45.56l-1,.38a1.16,1.16,0,0,0-1.17-.77,1.22,1.22,0,0,0-.8.24.78.78,0,0,0-.28.6.56.56,0,0,0,.19.45,1.88,1.88,0,0,0,.64.3l.84.24a3,3,0,0,1,.7.33,1.43,1.43,0,0,1,.49.57,1.57,1.57,0,0,1,.16.71,2,2,0,0,1-.62,1.45,2.52,2.52,0,0,1-1.83.62,2.29,2.29,0,0,1-2.41-1.54l1-.35a1.41,1.41,0,0,0,1.47,1,1.27,1.27,0,0,0,.93-.29.87.87,0,0,0,.31-.66.7.7,0,0,0-.11-.37.76.76,0,0,0-.3-.23,5.73,5.73,0,0,0-.7-.23,7.24,7.24,0,0,1-1.1-.4,1.51,1.51,0,0,1-.81-1.41,1.75,1.75,0,0,1,.61-1.38,2.34,2.34,0,0,1,1.65-.53A2.13,2.13,0,0,1,111.32,45.56Z"/><path class="cls-5" d="M113.22,50.66a2.34,2.34,0,0,1-1-.22,1.5,1.5,0,0,1-.73-.72,2.46,2.46,0,0,1-.26-1.16,2.91,2.91,0,0,1,.64-1.9,2.08,2.08,0,0,1,1.69-.8,1.75,1.75,0,0,1,1.37.58,2.22,2.22,0,0,1,.52,1.54,3.09,3.09,0,0,1-.61,1.83A2,2,0,0,1,113.22,50.66Zm0-.82a1,1,0,0,0,.9-.64,3.14,3.14,0,0,0,.29-1.32c0-.79-.31-1.19-.92-1.19a.94.94,0,0,0-.92.68,3.33,3.33,0,0,0-.28,1.35,1.14,1.14,0,0,0,.26.85.9.9,0,0,0,.68.27Z"/><path class="cls-5" d="M116.7,50.55h-1l.63-3.75h-.63l.14-.84h.63a2.42,2.42,0,0,1,.63-1.36,1.75,1.75,0,0,1,1.25-.42,2.32,2.32,0,0,1,.64.06l-.09.84a1.8,1.8,0,0,0-.46,0,.88.88,0,0,0-1,.93h1l-.14.84h-1Z"/><path class="cls-5" d="M120.38,50.55a4.64,4.64,0,0,1-.64.07,1.25,1.25,0,0,1-.93-.29.94.94,0,0,1-.3-.69,5.58,5.58,0,0,1,.11-.82l.34-2h-.68l.14-.83h.7l.28-1.23.92-.06L120.1,46h1l-.14.82h-1l-.34,2a3.85,3.85,0,0,0-.07.49c0,.29.22.43.65.43a1.84,1.84,0,0,0,.33,0Z"/><path class="cls-5" d="M125.15,50.55h-1l-.35-3.26-1.32,3.26h-.93L120.92,46h1l.41,3.18L123.7,46h.91l.33,3.16L126.35,46h.89Z"/><path class="cls-5" d="M130.49,50.55h-1v-.2a4.15,4.15,0,0,1,.08-.79,1.85,1.85,0,0,1-.65.81,1.56,1.56,0,0,1-.93.3,1.42,1.42,0,0,1-1-.38,1.28,1.28,0,0,1-.38-.94,1.41,1.41,0,0,1,.68-1.23,4,4,0,0,1,2.15-.45h.44a3.11,3.11,0,0,0,0-.32.65.65,0,0,0-.27-.56,1,1,0,0,0-.63-.19,1.13,1.13,0,0,0-1.06.63l-.9-.28a2.07,2.07,0,0,1,2-1.12,2.12,2.12,0,0,1,1.35.39,1.22,1.22,0,0,1,.49,1,11.78,11.78,0,0,1-.21,1.45,11.88,11.88,0,0,0-.23,1.57A2.44,2.44,0,0,0,130.49,50.55Zm-.69-2.35a4.15,4.15,0,0,0-1.64.31.76.76,0,0,0-.46.72.59.59,0,0,0,.18.45.72.72,0,0,0,.51.17,1.11,1.11,0,0,0,.85-.4,2.47,2.47,0,0,0,.56-1.24Z"/><path class="cls-5" d="M132.18,50.55h-1l.76-4.59h.93l-.21,1.25c.4-.91.93-1.37,1.59-1.37h.12L134.23,47H134a1.35,1.35,0,0,0-.7.2,1.37,1.37,0,0,0-.52.52,3.56,3.56,0,0,0-.32,1.1Z"/><path class="cls-5" d="M137.92,49.25a2.09,2.09,0,0,1-2,1.41,1.85,1.85,0,0,1-1.42-.56,2.08,2.08,0,0,1-.52-1.47,3.08,3.08,0,0,1,.65-2,2,2,0,0,1,1.67-.8,1.7,1.7,0,0,1,1.4.58,2.49,2.49,0,0,1,.47,1.58,2.3,2.3,0,0,1,0,.36H135a2.07,2.07,0,0,0,0,.35,1.3,1.3,0,0,0,.26.83.84.84,0,0,0,.71.31A1.16,1.16,0,0,0,137,49Zm-.7-1.53c0-.77-.3-1.16-.9-1.16s-1,.38-1.2,1.16Z"/></svg>