<svg id="Layer_1" data-name="Layer 1" xmlns="http://www.w3.org/2000/svg" xmlns:xlink="http://www.w3.org/1999/xlink" viewBox="0 0 150 75"><defs><style>.cls-1{fill:none;}.cls-2{clip-path:url(#clip-path);}.cls-3{fill:#d22229;}</style><clipPath id="clip-path"><rect class="cls-1" x="27.4" y="2.5" width="95.21" height="70"/></clipPath></defs><g class="cls-2"><g class="cls-2"><path class="cls-3" d="M53.75,72.49a5.44,5.44,0,0,0,4.41-2L56.37,68.7a3.43,3.43,0,0,1-2.48,1.15,2.76,2.76,0,0,1-2.74-3v0a2.76,2.76,0,0,1,2.62-2.95,3.16,3.16,0,0,1,2.45,1.19l1.88-2a5.31,5.31,0,0,0-4.31-1.82,5.55,5.55,0,0,0-5.67,5.63v0a5.52,5.52,0,0,0,5.63,5.58m5.46-12.23h3.22V57.54H59.21Zm.08,12h3.06V61.45H59.29Zm4.53,0h3.06v-4c0-2.58,1.25-3.81,3.29-3.81h.16V61.24a3.35,3.35,0,0,0-3.45,2.38V61.45H63.82Zm12.72.24a5.44,5.44,0,0,0,4.41-2L79.16,68.7a3.41,3.41,0,0,1-2.48,1.15,2.77,2.77,0,0,1-2.74-3v0a2.76,2.76,0,0,1,2.62-2.95A3.2,3.2,0,0,1,79,65.07l1.87-2a5.31,5.31,0,0,0-4.31-1.82,5.55,5.55,0,0,0-5.67,5.63v0a5.52,5.52,0,0,0,5.63,5.58m9.83,0a4,4,0,0,0,3.37-1.75v1.55H92.8V57.54H89.74v5.32a4.16,4.16,0,0,0-3.37-1.62c-2.56,0-4.92,2-4.92,5.59v0c0,3.6,2.4,5.58,4.92,5.58m.79-2.6a2.75,2.75,0,0,1-2.64-3v0a2.65,2.65,0,1,1,5.26,0v0a2.74,2.74,0,0,1-2.62,3m10.36,2.6a4.19,4.19,0,0,0,3.27-1.37v1.17h3V66a4.71,4.71,0,0,0-1.17-3.45,5,5,0,0,0-3.65-1.2,9.6,9.6,0,0,0-4.19.86l.77,2.34a8,8,0,0,1,3-.59c1.53,0,2.32.71,2.32,2v.18a7.74,7.74,0,0,0-2.64-.44c-2.56,0-4.35,1.09-4.35,3.44v0c0,2.14,1.67,3.31,3.7,3.31m.93-2.12c-1,0-1.67-.48-1.67-1.31v0c0-1,.8-1.49,2.11-1.49a4.81,4.81,0,0,1,2,.4v.55c0,1.11-1,1.89-2.4,1.89m10.68,2.1a4.44,4.44,0,0,0,2.42-.63V69.35a3.13,3.13,0,0,1-1.51.38c-.69,0-1-.34-1-1V64.07h2.54V61.45h-2.54V57.59H106v3.86H104.7v2.62H106v5.11c0,2.5,1.27,3.25,3.14,3.25m7.24,0a4.16,4.16,0,0,0,3.26-1.37v1.17h3V66a4.71,4.71,0,0,0-1.17-3.45,5,5,0,0,0-3.64-1.2,9.53,9.53,0,0,0-4.19.86l.76,2.34a8,8,0,0,1,3-.59c1.54,0,2.32.71,2.32,2v.18a7.7,7.7,0,0,0-2.64-.44c-2.56,0-4.35,1.09-4.35,3.44v0c0,2.14,1.67,3.31,3.71,3.31m.92-2.12c-1,0-1.67-.48-1.67-1.31v0c0-1,.81-1.49,2.12-1.49a4.76,4.76,0,0,1,2,.4v.55c0,1.11-1,1.89-2.4,1.89M31.63,29.07A22.27,22.27,0,1,1,53.9,51.39,22.32,22.32,0,0,1,31.63,29.07m-4.23,0A26.5,26.5,0,1,0,53.9,2.5,26.56,26.56,0,0,0,27.4,29.07"/><path class="cls-3" d="M46.85,29.07a7,7,0,1,1,7,7.07,7.07,7.07,0,0,1-7-7.07m-3.46,0A10.51,10.51,0,1,0,53.9,18.53,10.53,10.53,0,0,0,43.39,29.07"/><path class="cls-3" d="M39.64,29.07A14.26,14.26,0,1,1,53.9,43.36,14.29,14.29,0,0,1,39.64,29.07m-4,0A18.26,18.26,0,1,0,53.9,10.77a18.3,18.3,0,0,0-18.26,18.3"/></g></g></svg>