<svg id="Layer_1" data-name="Layer 1" xmlns="http://www.w3.org/2000/svg" xmlns:xlink="http://www.w3.org/1999/xlink" viewBox="0 0 150 75"><defs><style>.cls-1{fill:none;}.cls-2{clip-path:url(#clip-path);}.cls-3{fill:#00dc00;}</style><clipPath id="clip-path"><rect class="cls-1" x="10" y="12.75" width="130" height="49.5"/></clipPath></defs><g class="cls-2"><g class="cls-2"><path class="cls-3" d="M123.31,12.75c-10,0-16.62,6.89-16.62,18.25,0,14.11,10.06,18.16,17.24,18.16A19.71,19.71,0,0,0,138.21,43l-4.62-4.64A13.3,13.3,0,0,1,124,41.93c-5.59,0-9.37-3.28-9.37-7.76h25S144,12.75,123.31,12.75m-8.63,15.33c0-6,4.57-8.94,9.5-8.94s9.37,3,9.37,8.94Z"/><path class="cls-3" d="M31.45,27.48c-3.2-.4-12.44,0-12.44-4.26,0-2.49,3.87-3.84,7.45-3.84a18.81,18.81,0,0,1,10.56,3l4.8-4.79c-1.42-1.15-6.71-4.88-15.36-4.88-7.89,0-15,4.12-15,10.74,0,10.14,12.24,10.14,17.35,10.64,3.1.3,5.93.51,5.93,3.55,0,2.82-4.33,4.39-7.68,4.39A16.2,16.2,0,0,1,15.16,37.4L10,42.57a23.66,23.66,0,0,0,16.64,6.59c9.15,0,15.84-4,15.84-12.17,0-5.38-3.62-8.59-11-9.51"/><path class="cls-3" d="M57.81,12.75a22.39,22.39,0,0,0-14.08,4.87l4.83,4.82a15.17,15.17,0,0,1,9.31-3c6.09,0,7.91,2.43,7.91,5.18V28H54.92C50.9,28,43,29,43,37.88c0,6.5,3.72,11.28,12.62,11.28,4.46,0,7.83-1.45,10.16-4.24v3.53h7.89V25.12c0-8.15-5-12.37-15.86-12.37m8,23c0,6.74-4.81,6.38-9.1,6.38S49.62,41,49.62,37.93c0-2.82,2.26-3.76,6.93-3.76h9.29Z"/><path class="cls-3" d="M98,13.5v3.91a12.64,12.64,0,0,0-10.27-4.66c-7.48,0-11.33,4.19-12.63,8.66-.49,1.66-.65,4.83-.65,9.51,0,4.41,0,8.42,1.57,11.51,2.15,4.32,7.36,6.73,11.71,6.73A13.33,13.33,0,0,0,98,44.69v2.19a6.62,6.62,0,0,1-2.53,5.6,10,10,0,0,1-6.59,2.16,12.22,12.22,0,0,1-6.53-2.41l-5.3,5.3a19.5,19.5,0,0,0,12,4.72,18.07,18.07,0,0,0,11.79-4C104,55.77,106,51.08,106,46.1V13.5Zm0,17.43a35.38,35.38,0,0,1-.27,5.76c-.48,2.26-3,5.24-7.72,5.24-1.17,0-7.17-.67-7.84-5.86A40.54,40.54,0,0,1,82,30.93a30.78,30.78,0,0,1,.37-6.35c.41-2,3.07-5,7.7-5,5.66,0,7.47,3.86,7.74,5.35a46.63,46.63,0,0,1,.25,6"/></g></g></svg>